<?xml version="1.0" encoding="UTF-8" standalone="no"?>
<!-- Generator: Adobe Illustrator 14.0.0, SVG Export Plug-In . SVG Version: 6.00 Build 43363)  -->

<svg
   xmlns:dc="http://purl.org/dc/elements/1.1/"
   xmlns:cc="http://creativecommons.org/ns#"
   xmlns:rdf="http://www.w3.org/1999/02/22-rdf-syntax-ns#"
   xmlns:svg="http://www.w3.org/2000/svg"
   xmlns="http://www.w3.org/2000/svg"
   xmlns:sodipodi="http://sodipodi.sourceforge.net/DTD/sodipodi-0.dtd"
   xmlns:inkscape="http://www.inkscape.org/namespaces/inkscape"
   version="1.2"
   id="Layer_1"
   x="0px"
   y="0px"
   width="215"
   height="215"
   viewBox="0 0 214.99999 214.99999"
   xml:space="preserve"
   inkscape:version="0.91 r13725"
   sodipodi:docname="Chelsea-logo-resize.svg"><metadata
     id="metadata3561"><rdf:RDF><cc:Work
         rdf:about=""><dc:format>image/svg+xml</dc:format><dc:type
           rdf:resource="http://purl.org/dc/dcmitype/StillImage" /><dc:title></dc:title></cc:Work></rdf:RDF></metadata><defs
     id="defs3559"><inkscape:perspective
       sodipodi:type="inkscape:persp3d"
       inkscape:vp_x="0 : 237.67551 : 1"
       inkscape:vp_y="0 : 1000 : 0"
       inkscape:vp_z="475.35101 : 237.67551 : 1"
       inkscape:persp3d-origin="237.67551 : 158.45034 : 1"
       id="perspective3563" /></defs><sodipodi:namedview
     pagecolor="#ffffff"
     bordercolor="#666666"
     borderopacity="1"
     objecttolerance="10"
     gridtolerance="10"
     guidetolerance="10"
     inkscape:pageopacity="0"
     inkscape:pageshadow="2"
     inkscape:window-width="1536"
     inkscape:window-height="801"
     id="namedview3557"
     showgrid="false"
     inkscape:zoom="1"
     inkscape:cx="104.73836"
     inkscape:cy="104.73836"
     inkscape:window-x="-8"
     inkscape:window-y="-8"
     inkscape:window-maximized="1"
     inkscape:current-layer="Layer_1"
     fit-margin-top="0"
     fit-margin-left="0"
     fit-margin-right="0"
     fit-margin-bottom="0" /><path
     d="m 214.99997,107.49976 c 0,59.37487 -48.13167,107.50021 -107.50021,107.50021 C 48.128059,214.99997 0,166.87463 0,107.49976 0,48.130768 48.128059,0 107.49976,0 166.8683,0 214.99997,48.130768 214.99997,107.49976"
     id="path3381"
     style="fill:#dba111"
     inkscape:connector-curvature="0" /><path
     d="m 211.41325,107.49976 c 0,57.39155 -46.52193,103.91394 -103.91394,103.91394 -57.392457,0 -103.9152983,-46.52194 -103.9152983,-103.91394 0,-57.392456 46.5228413,-103.9152967 103.9152983,-103.9152967 57.39109,0 103.91394,46.5228407 103.91394,103.9152967"
     id="path3383"
     style="fill:#034694"
     inkscape:connector-curvature="0" /><path
     d="m 181.55213,107.49976 c 0,40.89852 -33.15475,74.04784 -74.05282,74.04784 -40.900342,0 -74.055996,-33.14932 -74.055996,-74.04784 0,-40.902147 33.155654,-74.055995 74.055996,-74.055995 40.89898,-4.51e-4 74.05282,33.153848 74.05282,74.055995"
     id="path3385"
     style="fill:#dba111"
     inkscape:connector-curvature="0" /><path
     d="m 179.3119,107.49976 c 0,39.66104 -32.15652,71.81169 -71.81214,71.81169 -39.661043,0 -71.812141,-32.1511 -71.812141,-71.81169 0,-39.660592 32.151098,-71.812593 71.812141,-71.812593 39.65652,0 71.81214,32.151549 71.81214,71.812593"
     id="path3387"
     style="fill:#ffffff"
     inkscape:connector-curvature="0" /><path
     d="m 45.967433,169.45362 c 0.794685,0.75851 2.749514,2.62017 2.749514,2.62017 l 1.873869,-1.97293 -5.589492,-5.32896 -0.719155,0.75443 -7.504969,7.86771 2.849472,2.71198 c 0,0 2.406676,-2.52382 3.287299,-3.44335 0.735885,0.69881 2.501656,2.38226 2.501656,2.38226 l 1.875224,-1.96886 c 0,0 -1.763052,-1.68209 -2.498033,-2.38586 0.466309,-0.49165 0.703318,-0.74041 1.174615,-1.23659"
     id="path3389"
     style="fill:#dba111"
     inkscape:connector-curvature="0" /><path
     d="m 59.447243,178.43896 c -0.252835,-1.50886 -1.099988,-2.84178 -2.381797,-3.7527 -1.275928,-0.90641 -2.807411,-1.26418 -4.316273,-1.01677 -1.625098,0.27636 -3.085115,1.22347 -4.113638,2.66268 -1.024909,1.44871 -1.438761,3.13713 -1.162863,4.76856 0.253738,1.50435 1.09501,2.82867 2.372755,3.7396 1.278648,0.90912 2.821431,1.27277 4.328035,1.01948 1.624195,-0.27364 3.085116,-1.22256 4.110025,-2.66629 0.820467,-1.14477 1.248339,-2.45598 1.248339,-3.76674 4.52e-4,-0.32656 -0.0271,-0.66216 -0.08457,-0.98782 m -8.026467,4.17924 c -1.306236,-0.92405 -0.227956,-2.85581 0.532808,-3.9178 0.758957,-1.07059 2.230275,-2.726 3.536511,-1.80286 1.363221,0.97515 0.0895,3.08195 -0.521948,3.93724 -0.613316,0.8648 -2.18143,2.75812 -3.547371,1.78342 z"
     id="path3391"
     style="fill:#dba111"
     inkscape:connector-curvature="0" /><path
     d="m 68.232667,181.42233 c -3.007778,-1.52199 -6.486844,-0.27456 -8.084815,2.89243 -0.800566,1.58304 -0.957057,3.32077 -0.441441,4.88436 0.476265,1.45323 1.508862,2.6387 2.908724,3.34293 1.399862,0.71282 2.975212,0.83675 4.431155,0.35867 1.562684,-0.50973 2.866211,-1.66445 3.6618,-3.24659 1.604755,-3.17286 0.538237,-6.70983 -2.475423,-8.2318 m -3.32665,8.80125 c -0.352783,0.11578 -0.687491,0.0796 -1.067422,-0.10947 -0.596575,-0.30393 -0.806437,-0.84715 -0.806437,-1.45413 0,-0.83992 0.403896,-1.82954 0.746282,-2.50437 0.593415,-1.17326 1.798338,-3.02632 3.228047,-2.3049 0.377221,0.19267 0.602919,0.44279 0.717348,0.79151 0.239267,0.72187 -10e-4,1.90734 -0.645882,3.17649 -0.641356,1.2696 -1.452781,2.16695 -2.171936,2.40487 z"
     id="path3393"
     style="fill:#dba111"
     inkscape:connector-curvature="0" /><path
     d="m 74.444517,185.77749 -0.553612,1.58666 c 0,0 1.415688,0.49663 1.845377,0.63864 -0.54185,1.54957 -3.039442,8.67869 -3.039442,8.67869 l 3.708387,1.30035 c 0,0 2.501656,-7.12278 3.042151,-8.67235 0.432398,0.15106 1.848538,0.64317 1.848538,0.64317 l 0.898718,-2.56091 -7.405463,-2.59799 -0.344654,0.98374"
     id="path3395"
     style="fill:#dba111"
     inkscape:connector-curvature="0" /><path
     d="m 89.841622,189.21812 -5.011452,-1.05838 -0.214388,1.01948 -2.239779,10.63623 5.10011,1.08144 c 1.630076,0.3365 2.703378,-0.0637 3.315329,-0.45954 0.777052,-0.50702 1.321622,-1.33835 1.531032,-2.33205 0.05748,-0.27046 0.08509,-0.5328 0.08509,-0.7897 0,-0.71826 -0.227504,-1.36594 -0.639098,-1.92227 0.574417,-0.45592 0.984194,-1.09998 1.154714,-1.90372 0.04342,-0.2076 0.06918,-0.44189 0.06918,-0.68659 0,-1.36141 -0.777493,-3.09009 -3.1507,-3.5849 m -1.379509,8.12009 c -0.05337,0.24289 -0.15106,0.56447 -0.335149,0.68478 -0.170059,0.11035 -0.49707,0.12437 -0.920426,0.0325 0,0 -0.19268,-0.0425 -0.420636,-0.0873 0.162823,-0.76755 0.271834,-1.2782 0.430592,-2.04665 0.218,0.0511 0.496618,0.10584 0.496618,0.10584 0.657644,0.13886 0.783836,0.62552 0.783836,0.97877 4.52e-4,0.14203 -0.01765,0.26234 -0.03479,0.33199 z m -0.342385,-5.69261 c 0.440085,0.1 0.763473,0.26142 0.887858,0.44958 0.05696,0.0864 0.08498,0.2076 0.08498,0.35053 0,0.0864 -0.0118,0.18635 -0.03438,0.30666 -0.06743,0.31163 -0.158758,0.74402 -1.025812,0.56628 0,0 -0.108097,-0.0285 -0.25691,-0.0601 0.138405,-0.64362 0.20399,-0.9652 0.344202,-1.61289 z"
     id="path3397"
     style="fill:#dba111"
     inkscape:connector-curvature="0" /><path
     d="m 99.093365,190.95042 -5.443399,11.14687 3.10864,0.23835 c 0,0 0.841272,-1.77572 1.177325,-2.48311 0.657644,0.0547 1.316644,0.10089 1.961161,0.15288 0.241088,0.74448 0.848518,2.63418 0.848518,2.63418 l 4.1358,0.32158 -4.62112,-14.32426 -1.166925,2.31351"
     id="path3399"
     style="fill:#dba111"
     inkscape:connector-curvature="0" /><path
     d="m 111.36736,199.848 c -0.0688,-1.62917 -0.38175,-9.04503 -0.38175,-9.04503 l -3.92774,0.16508 0.49662,11.90175 7.87133,-0.32701 -0.11805,-2.8558 c 0,4.5e-4 -2.81148,0.12031 -3.94041,0.16101"
     id="path3401"
     style="fill:#dba111"
     inkscape:connector-curvature="0" /><path
     d="m 122.14108,198.70776 c -0.25329,-1.61063 -1.40258,-8.94237 -1.40258,-8.94237 l -1.02943,0.1651 -2.85761,0.44506 1.84447,11.77194 7.78629,-1.22256 -0.44596,-2.82414 c 0,0 -2.77756,0.43827 -3.89518,0.60697"
     id="path3403"
     style="fill:#dba111"
     inkscape:connector-curvature="0" /><path
     d="m 144.68176,190.78985 c -0.0316,1.02039 -0.63322,1.89919 -1.57173,2.27053 -0.52014,0.2067 -1.01677,0.2067 -1.51429,-0.004 -0.76348,-0.32701 -1.47087,-1.15381 -1.89557,-2.21626 -0.49979,-1.25332 -0.60157,-2.31802 -0.27364,-3.06612 0.22523,-0.52376 0.66713,-0.915 1.34196,-1.18547 0.73136,-0.29083 1.42563,-0.0231 2.37727,0.53732 l 0.87294,0.51518 1.44961,-2.28637 -0.86027,-0.56537 c -1.58123,-1.03893 -3.53877,-1.25105 -5.23218,-0.57442 -1.57173,0.62643 -2.79022,1.79879 -3.43429,3.2977 -0.65357,1.52017 -0.65357,3.25971 0.009,4.90969 1.25105,3.12718 4.7862,4.66771 7.8772,3.43022 2.2339,-0.89238 3.49807,-2.5894 3.65909,-4.90742 l 0.0733,-1.03441 -2.84541,-0.21122 -0.0335,1.09094"
     id="path3405"
     style="fill:#dba111"
     inkscape:connector-curvature="0" /><path
     d="m 153.85074,187.53873 c -0.80464,-1.43016 -4.41941,-7.91429 -4.41941,-7.91429 l -0.90549,0.51065 -2.52925,1.41251 5.81293,10.40013 6.87265,-3.8391 -1.39127,-2.49668 c 4.6e-4,0 -2.45958,1.37136 -3.44016,1.92678"
     id="path3407"
     style="fill:#dba111"
     inkscape:connector-curvature="0" /><path
     d="m 161.49455,171.49892 -0.84262,0.61647 -1.4763,1.08507 4.8242,6.5755 c 0.22072,0.29761 0.22072,0.49662 0.20127,0.61241 -0.0461,0.33922 -0.39938,0.70693 -0.71192,0.93218 -0.14744,0.10494 -0.48847,0.24831 -0.83764,0.19358 -0.24922,-0.0361 -0.44597,-0.17141 -0.62101,-0.40797 l -4.76767,-6.50176 -3.17738,2.32615 4.74459,6.46921 c 0.70424,0.95751 1.57853,1.52379 2.59891,1.67939 1.14476,0.17865 2.44602,-0.21123 3.65547,-1.10497 2.48762,-1.81869 2.44692,-4.23396 1.36141,-5.71387 l -4.95131,-6.76139"
     id="path3409"
     style="fill:#dba111"
     inkscape:connector-curvature="0" /><path
     d="m 175.96988,169.10853 c -0.73136,-0.75896 -1.63325,-1.09999 -2.58036,-1.04842 -0.0556,-0.7359 -0.34103,-1.43922 -0.91002,-2.02811 -0.9937,-1.02581 -3.21538,-1.82502 -5.26067,0.16599 l -3.67944,3.55823 8.29062,8.55927 3.74276,-3.62833 c 1.19632,-1.15879 1.45955,-2.28093 1.47086,-3.00642 0.0199,-0.93082 -0.36274,-1.84176 -1.07375,-2.57221 m -6.26342,-0.28857 c 0.12349,0.13162 0.27456,0.2854 0.27456,0.49933 0,0.1755 -0.0954,0.39215 -0.38265,0.66669 0,0 -0.0778,0.0787 -0.18273,0.18409 -0.46451,-0.48169 -0.68478,-0.70784 -1.15561,-1.19181 0.82996,-0.76121 1.17461,-0.43601 1.44643,-0.1583 z m 1.96298,2.94672 c 0.67211,-0.6486 1.31889,-0.0787 1.50343,0.11488 0.17866,0.17911 0.38174,0.43194 0.38174,0.65086 0,0 0,0 0,0.007 -0.004,0.20218 -0.17504,0.48215 -0.48305,0.78112 0,0 -0.14293,0.13886 -0.31254,0.29852 -0.5423,-0.56085 -0.90911,-0.93717 -1.45233,-1.49484 0.16057,-0.15967 0.36275,-0.35778 0.36275,-0.35778 z"
     id="path3411"
     style="fill:#dba111"
     inkscape:connector-curvature="0" /><path
     d="m 45.941651,168.34957 c 0.324291,0.31209 2.744987,2.62107 2.744987,2.62107 l 0.798308,-0.84173 -4.460108,-4.25341 -0.179563,0.18816 -6.961754,7.30279 1.71511,1.63686 c 0,0 2.96617,-3.10864 3.285483,-3.44876 0.324301,0.30847 2.506634,2.38677 2.506634,2.38677 l 0.799663,-0.83901 c 0,0 -2.182333,-2.07695 -2.506634,-2.38541 0.289476,-0.30305 1.971117,-2.06745 2.257874,-2.36733"
     id="path3413"
     style="fill:#ffffff"
     inkscape:connector-curvature="0" /><path
     d="m 56.609986,175.32173 c -1.105418,-0.78699 -2.428385,-1.10134 -3.726934,-0.88423 -1.425634,0.24468 -2.704282,1.07691 -3.609332,2.35058 -0.90776,1.27774 -1.271853,2.75901 -1.029877,4.17923 0.217549,1.30216 0.949369,2.45145 2.05569,3.23573 1.112202,0.79152 2.440598,1.10089 3.745018,0.88244 1.417956,-0.23836 2.698411,-1.07421 3.602096,-2.33929 0.722326,-1.02038 1.104063,-2.176 1.104063,-3.32076 0,-0.28541 -0.02484,-0.57442 -0.07144,-0.85937 -0.221172,-1.30036 -0.954347,-2.4528 -2.069259,-3.24433 m -1.006363,5.96897 c -0.748098,1.04617 -2.695239,3.34519 -4.633328,1.96659 -1.931314,-1.37091 -0.398025,-3.96302 0.346912,-5.01597 0.747195,-1.05295 2.69524,-3.34791 4.623834,-1.977 1.938541,1.38313 0.409777,3.9766 -0.337418,5.02638 z"
     id="path3415"
     style="fill:#ffffff"
     inkscape:connector-curvature="0" /><path
     d="m 67.880326,182.12293 c -2.609754,-1.3198 -5.633359,-0.22163 -7.035479,2.55141 -0.706038,1.39398 -0.845346,2.91098 -0.397122,4.28641 0.411594,1.24926 1.306237,2.27099 2.519752,2.88159 1.216224,0.62192 2.579906,0.73227 3.835933,0.31887 1.366392,-0.45138 2.507086,-1.46363 3.213114,-2.85671 1.398055,-2.77258 0.480801,-5.86267 -2.136198,-7.18157 m -4.39361,8.68456 c -2.113136,-1.0629 -0.98873,-3.85855 -0.40481,-5.00693 0.582104,-1.15381 2.163787,-3.71653 4.273761,-2.64414 0.561751,0.28089 0.936704,0.69881 1.115364,1.24563 0.414303,1.26599 -0.257814,2.90194 -0.696544,3.77125 -0.436463,0.86299 -1.358243,2.37638 -2.62558,2.79159 -0.542302,0.18363 -1.10316,0.128 -1.662191,-0.1574 z"
     id="path3417"
     style="fill:#ffffff"
     inkscape:connector-curvature="0" /><path
     d="m 75.184928,186.03349 -0.299422,0.84716 c 0,0 1.476757,0.51924 1.846731,0.64949 -0.163726,0.46361 -3.042151,8.67145 -3.042151,8.67145 l 2.237059,0.78609 c 0,0 2.880683,-8.20739 3.0417,-8.67235 0.369984,0.1289 1.846731,0.64497 1.846731,0.64497 l 0.385812,-1.09003 -5.934136,-2.08283 -0.08231,0.24605"
     id="path3419"
     style="fill:#ffffff"
     inkscape:connector-curvature="0" /><path
     d="m 89.683766,189.97978 -4.247516,-0.89645 -0.05696,0.25781 -2.076042,9.87727 4.333916,0.91002 c 1.101795,0.23067 2.018597,0.11579 2.727806,-0.34872 0.613306,-0.40028 1.024899,-1.03893 1.193152,-1.83407 0.043,-0.2171 0.06877,-0.42425 0.06877,-0.62643 0,-0.86388 -0.428323,-1.59525 -1.193162,-2.11946 0.885601,-0.25465 1.519721,-0.9064 1.723702,-1.87387 0.03479,-0.15107 0.05563,-0.32973 0.05563,-0.5319 -4.52e-4,-0.98827 -0.520143,-2.39039 -2.529256,-2.8142 m -1.484886,0.87429 c 0.714177,0.15107 1.208537,0.42426 1.460017,0.81278 0.144728,0.22072 0.216194,0.47899 0.216194,0.77931 0,0.14655 -0.01899,0.29852 -0.05337,0.4636 -0.275898,1.31529 -1.338341,1.30126 -1.949399,1.16783 0,0 -0.646786,-0.13342 -1.021738,-0.21212 0.08724,-0.40526 0.580297,-2.74997 0.665332,-3.15387 0.271371,0.0552 0.682965,0.14247 0.682965,0.14247 z m -0.326559,4.409 c 1.20673,0.25374 1.397142,1.20582 1.397142,1.78432 0,0.2483 -0.0389,0.4256 -0.04383,0.45501 -0.121666,0.57079 -0.339225,0.9566 -0.673471,1.17235 -0.353245,0.23565 -0.862077,0.28088 -1.505701,0.14745 0,0 -0.772526,-0.16509 -1.186377,-0.24741 0.08909,-0.42471 0.666686,-3.16065 0.753979,-3.57767 0.353696,0.0737 1.258295,0.26595 1.258295,0.26595 z"
     id="path3421"
     style="fill:#ffffff"
     inkscape:connector-curvature="0" /><path
     d="m 99.797586,191.29325 -4.940438,10.11292 1.422925,0.10584 c 0,0 1.045713,-2.19772 1.184119,-2.47859 0.300777,0.0231 2.719208,0.21122 3.015918,0.2352 0.0945,0.28992 0.84896,2.63417 0.84896,2.63417 l 2.45054,0.18907 -3.66949,-11.37618 -0.312534,0.57757 m -0.542302,4.06616 c 0.238815,0.76393 0.698351,2.23661 0.850326,2.7174 -0.488039,-0.0362 -1.611992,-0.12348 -2.095042,-0.16011 0.221624,-0.45456 0.895095,-1.83905 1.244716,-2.55729 z"
     id="path3423"
     style="fill:#ffffff"
     inkscape:connector-curvature="0" /><path
     d="m 110.61699,200.6626 c -0.0195,-0.49301 -0.38264,-9.04504 -0.38264,-9.04504 l -0.25238,0.009 -2.11494,0.0864 0.43465,10.34631 6.31181,-0.26776 -0.0556,-1.29132 c 0.001,4.6e-4 -3.48449,0.14745 -3.94087,0.16239"
     id="path3425"
     style="fill:#ffffff"
     inkscape:connector-curvature="0" /><path
     d="m 121.49248,199.60965 c -0.0787,-0.48758 -1.40664,-8.95322 -1.40664,-8.95322 l -0.25328,0.0407 -2.08691,0.33017 1.6043,10.2278 6.24035,-0.9851 -0.20128,-1.27819 c -4.5e-4,9e-4 -3.45012,0.54275 -3.89654,0.61784"
     id="path3427"
     style="fill:#ffffff"
     inkscape:connector-curvature="0" /><path
     d="m 145.45926,190.80749 c -0.037,1.34739 -0.8277,2.48854 -2.06021,2.98516 -0.71734,0.28541 -1.42565,0.27545 -2.11042,-0.0186 -0.96475,-0.40797 -1.80738,-1.37453 -2.31803,-2.64323 -0.57486,-1.4487 -0.66759,-2.71741 -0.26595,-3.66587 0.31254,-0.71734 0.90641,-1.25422 1.77482,-1.59887 1.13617,-0.45502 2.17917,0.0637 3.06205,0.58754 l 0.22072,0.1289 0.63503,-0.99731 -0.21258,-0.14338 c -1.37001,-0.89736 -3.06205,-1.08462 -4.51845,-0.5016 -1.37996,0.55316 -2.45145,1.57354 -3.00777,2.87977 -0.57081,1.32343 -0.56538,2.85943 0.0186,4.30723 1.08914,2.73233 4.16431,4.0743 6.86497,2.99828 1.95845,-0.78609 3.02135,-2.20676 3.16338,-4.23486 l 0.0186,-0.26142 -1.25014,-0.0864 -0.0145,0.26458"
     id="path3429"
     style="fill:#ffffff"
     inkscape:connector-curvature="0" /><path
     d="m 153.54769,188.60074 c -0.24378,-0.42744 -4.41939,-7.90888 -4.41939,-7.90888 l -0.22977,0.128 -1.83904,1.02989 5.04402,9.03282 5.51395,-3.07879 -0.62733,-1.13074 c 9e-4,9.1e-4 -3.0521,1.70155 -3.44244,1.9277"
     id="path3431"
     style="fill:#ffffff"
     inkscape:connector-curvature="0" /><path
     d="m 161.32404,172.58895 -0.21303,0.1565 -0.84535,0.621 4.36377,5.94545 c 0.29218,0.40028 0.40706,0.79966 0.34465,1.1909 -0.10403,0.7083 -0.749,1.25196 -1.01948,1.44509 -0.30937,0.23338 -0.87564,0.42651 -1.41795,0.33832 -0.46043,-0.0678 -0.83765,-0.31119 -1.14024,-0.71644 l -4.30813,-5.87625 -1.90824,1.4071 4.28009,5.83463 c 0.57577,0.787 1.27909,1.25106 2.08734,1.37092 1.27458,0.19268 2.47091,-0.51698 3.07246,-0.9557 2.06519,-1.51837 2.09279,-3.41802 1.2004,-4.62656 l -4.49629,-6.13496"
     id="path3433"
     style="fill:#ffffff"
     inkscape:connector-curvature="0" /><path
     d="m 175.40813,169.65173 c -0.80102,-0.8286 -1.82593,-1.01766 -2.88883,-0.60879 0.0842,-0.24785 0.13434,-0.50069 0.13434,-0.75352 0,-0.61467 -0.2447,-1.21442 -0.73679,-1.72054 -0.66624,-0.68524 -2.3913,-1.53194 -4.15571,0.18363 l -3.1186,3.02134 7.19968,7.43261 3.18824,-3.09101 c 0.80373,-0.77206 1.22347,-1.60429 1.23341,-2.44601 0.0126,-0.73499 -0.28585,-1.43017 -0.85574,-2.01771 m -4.64917,-0.32293 c 0,0.52059 -0.33922,0.94801 -0.61241,1.21487 0,0 -0.47807,0.4645 -0.7481,0.73045 -0.29082,-0.29851 -1.95934,-2.01769 -2.24475,-2.32254 0.19359,-0.18725 0.49843,-0.47762 0.49843,-0.47762 0.97425,-0.94893 1.82955,-1.0118 2.61473,-0.19811 0.35958,0.3736 0.4921,0.72639 0.4921,1.05295 z m 1.98287,5.39364 c -0.29489,-0.30394 -2.24022,-2.31712 -2.53874,-2.62107 0.2569,-0.2474 0.92314,-0.89554 0.92314,-0.89554 1.27051,-1.22437 2.5582,0.0733 2.61292,0.13343 0.40029,0.4134 0.59703,0.80464 0.59703,1.19361 0,0.007 0,0.0113 0,0.0149 -0.005,0.42742 -0.25284,0.87474 -0.72277,1.33926 0.001,0 -0.61965,0.59657 -0.87158,0.83539 z"
     id="path3435"
     style="fill:#ffffff"
     inkscape:connector-curvature="0" /><path
     d="m 59.73943,36.681768 -4.345217,1.171896 0.498876,1.556362 c 0.600199,1.886986 0.05696,3.862619 -1.413872,5.152567 -0.818209,0.717348 -1.763062,1.046617 -2.805153,0.975151 -1.583489,-0.10629 -3.370969,-1.13119 -4.779421,-2.743181 -1.659933,-1.901458 -2.488088,-3.731901 -2.382711,-5.283285 0.07328,-1.13119 0.623271,-2.124888 1.678479,-3.049388 1.165573,-1.020834 2.643675,-0.981032 4.648714,-0.583458 l 1.487154,0.293992 0.961583,-4.161589 -1.4971,-0.365007 c -3.219005,-0.796492 -6.575954,-0.01406 -8.970868,2.082375 -4.690322,4.104144 -5.072972,10.806741 -0.889675,15.590688 3.887498,4.444271 10.632607,4.928686 15.028937,1.083258 3.166536,-2.765802 4.269686,-6.304571 3.194125,-10.22283 L 59.73943,36.681768"
     id="path3437"
     style="fill:#dba111"
     inkscape:connector-curvature="0" /><path
     d="m 71.538964,14.88737 -4.4384,2.090062 c 0,0 2.477691,5.250719 3.32936,7.060368 -1.265973,0.595221 -2.492153,1.174615 -3.75949,1.772998 -0.85484,-1.808284 -3.333886,-7.061261 -3.333886,-7.061261 l -5.844133,2.759008 8.900305,18.87889 5.849111,-2.757653 c 0,0 -2.757653,-5.839155 -3.644609,-7.732474 1.266886,-0.592963 2.492153,-1.171905 3.761758,-1.769836 0.889665,1.887889 3.643705,7.727948 3.643705,7.727948 l 5.847746,-2.75947 -8.897585,-18.874364 -1.413882,0.665784"
     id="path3439"
     style="fill:#dba111"
     inkscape:connector-curvature="0" /><path
     d="m 91.32697,26.583323 c -0.284951,-1.405742 -0.574417,-2.835903 -0.855754,-4.239829 1.805574,-0.3632 6.603542,-1.332019 6.603542,-1.332019 l -0.843982,-4.193253 c 0,0 -4.800236,0.970184 -6.607165,1.335181 -0.260071,-1.285422 -0.475362,-2.365058 -0.737239,-3.648673 1.875223,-0.378124 7.009706,-1.415698 7.009706,-1.415698 l -0.84625,-4.1914367 -1.535999,0.3084643 -11.810845,2.3885814 4.129022,20.460573 13.454942,-2.720108 -0.845347,-4.189179 c 0,0 -5.226742,1.053402 -7.114631,1.437396"
     id="path3441"
     style="fill:#dba111"
     inkscape:connector-curvature="0" /><path
     d="m 110.41119,8.4122777 -6.47056,-0.1343309 -0.0321,1.5604267 -0.40435,19.3067615 13.58248,0.284951 0.0972,-4.520716 c 0,0 -5.21454,-0.112171 -7.12007,-0.15106 0.0543,-2.55549 0.34736,-16.3460323 0.34736,-16.3460323"
     id="path3443"
     style="fill:#dba111"
     inkscape:connector-curvature="0" /><path
     d="m 131.37879,18.938594 c -1.67847,-1.232965 -2.16966,-1.727324 -2.00006,-2.400796 0.0832,-0.34917 0.46361,-1.464081 1.66944,-1.165562 0.72548,0.186347 1.44735,0.568535 1.76893,2.129865 l 0.35325,1.733205 4.27239,-1.443739 -0.26595,-1.345126 c -0.52556,-2.641868 -2.75991,-4.890689 -5.56461,-5.591297 -2.00865,-0.498886 -4.02228,-0.232031 -5.67497,0.760764 -1.51701,0.908663 -2.58398,2.342898 -3.00597,4.040364 -1.0724,4.278739 1.81191,6.338945 3.71878,7.703982 1.95529,1.398056 2.45236,1.945335 2.15384,3.113166 -0.0936,0.364997 -0.30846,0.653118 -0.64496,0.857099 -0.39125,0.230224 -0.88244,0.313442 -1.28181,0.209409 -1.02717,-0.252825 -1.47178,-0.738142 -1.90463,-2.066538 l -0.52467,-1.592542 -4.28687,1.753107 0.41521,1.360962 c 0.80374,2.644578 2.72237,4.311295 5.86223,5.097841 3.52882,0.882881 7.80981,-0.739959 8.87632,-4.977079 1.11266,-4.464624 -1.92587,-6.701693 -3.93589,-8.177085"
     id="path3445"
     style="fill:#dba111"
     inkscape:connector-curvature="0" /><path
     d="m 146.81525,30.070538 c 1.64681,0.83223 6.01148,3.039432 6.01148,3.039432 l 1.93041,-3.816484 c 0,0 -4.36829,-2.207212 -6.00967,-3.036722 0.58753,-1.17054 1.0855,-2.154744 1.67213,-3.323027 1.70336,0.86027 6.38508,3.226241 6.38508,3.226241 l 1.92498,-3.816484 -12.14915,-6.139491 -0.70242,1.39082 -8.71487,17.23659 12.25093,6.187433 1.93176,-3.814226 c 0,0 -4.76042,-2.40486 -6.48051,-3.271011 0.64406,-1.280906 1.30578,-2.581713 1.94985,-3.863071"
     id="path3447"
     style="fill:#dba111"
     inkscape:connector-curvature="0" /><path
     d="m 171.01135,32.019938 -19.46733,10.073114 3.72421,3.238895 c 0,0 3.21313,-1.708326 4.38096,-2.321642 0.86841,0.756248 2.14841,1.869805 3.0028,2.612022 -0.41883,1.242007 -1.60882,4.7342 -1.60882,4.7342 l 5.13086,4.464172 8.32317,-24.543009 -3.48585,1.742248"
     id="path3449"
     style="fill:#dba111"
     inkscape:connector-curvature="0" /><path
     d="m 59.009878,37.951815 -2.294505,0.623723 0.168252,0.519229 c 0.7291,2.29044 0.07144,4.686258 -1.721895,6.254372 -1.029887,0.903685 -2.230736,1.317537 -3.557315,1.232061 -1.880654,-0.126192 -3.880714,-1.255123 -5.494964,-3.101404 -1.845828,-2.113135 -2.760824,-4.202295 -2.63961,-6.042242 0.09504,-1.397142 0.779762,-2.662673 2.035337,-3.760855 1.648622,-1.441471 3.724224,-1.177776 5.536572,-0.819102 l 0.497983,0.09638 0.502047,-2.175098 -0.498886,-0.124385 c -2.892887,-0.710102 -5.894784,-0.01581 -8.037766,1.8603 -4.23984,3.713365 -4.580419,9.778218 -0.789266,14.116651 3.508922,4.011883 9.590516,4.451507 13.56078,0.984204 2.878867,-2.52473 3.846331,-5.603061 2.871179,-9.159473 L 59.009878,37.95186"
     id="path3451"
     style="fill:#ffffff"
     inkscape:connector-curvature="0" /><path
     d="m 71.982211,15.824976 -3.491731,1.650891 c 0,0 2.939474,6.237632 3.326188,7.057648 -0.747195,0.354148 -4.894754,2.311234 -5.647378,2.662673 -0.385811,-0.821371 -3.323479,-7.058551 -3.323479,-7.058551 l -3.968909,1.869794 8.012446,16.99055 3.966189,-1.867085 c 0,0 -3.252916,-6.895266 -3.644608,-7.729764 0.752173,-0.354148 4.894764,-2.306257 5.646927,-2.66177 0.390789,0.83223 3.644619,7.731571 3.644619,7.731571 l 3.961212,-1.871601 -8.011995,-16.993259 -0.469481,0.218903"
     id="path3453"
     style="fill:#ffffff"
     inkscape:connector-curvature="0" /><path
     d="m 90.509212,27.810407 c -0.162823,-0.816393 -1.101795,-5.465106 -1.264618,-6.281509 0.868861,-0.174586 6.602629,-1.333364 6.602629,-1.333364 L 95.41347,18.048929 c 0,0 -5.731962,1.153811 -6.6058,1.330654 -0.158759,-0.800567 -0.98601,-4.89069 -1.144759,-5.690353 0.875645,-0.179563 7.005632,-1.413882 7.005632,-1.413882 L 94.233877,10.12785 82.93097,12.408776 86.648861,30.824518 98.059865,28.520971 97.626112,26.373462 c -9.04e-4,4.52e-4 -6.234009,1.258285 -7.1169,1.436945"
     id="path3455"
     style="fill:#ffffff"
     inkscape:connector-curvature="0" /><path
     d="m 109.34604,9.434026 -4.38186,-0.094939 -0.009,0.5174326 -0.38807,18.2669294 11.50328,0.243782 0.0511,-2.438329 c 0,0 -6.22722,-0.131622 -7.11915,-0.15062 0.0226,-0.974699 0.3442,-16.3442048 0.3442,-16.3442048"
     id="path3457"
     style="fill:#ffffff"
     inkscape:connector-curvature="0" /><path
     d="m 131.301,14.364518 c 1.39307,0.348719 2.19771,1.279541 2.53874,2.928163 l 0.11851,0.576233 2.28546,-0.772526 -0.0864,-0.450944 c -0.4514,-2.251079 -2.37728,-4.174244 -4.79616,-4.782582 -1.73909,-0.433753 -3.47139,-0.206249 -4.88391,0.641808 -1.27774,0.767999 -2.17872,1.977891 -2.53377,3.404889 -0.90007,3.588979 1.43922,5.260675 3.31534,6.601736 1.89919,1.358243 3.04396,2.285452 2.55638,4.211789 -0.19358,0.801921 -0.71734,1.260101 -1.12124,1.501174 -0.62598,0.374953 -1.39398,0.492102 -2.06881,0.32656 -1.38539,-0.347364 -2.09866,-1.092301 -2.63961,-2.754041 l -0.17639,-0.53099 -2.37185,0.967463 0.13795,0.455461 c 0.6893,2.266464 2.36506,3.703409 5.12272,4.39361 3.02949,0.756699 6.70078,-0.614219 7.60538,-4.2231 0.94259,-3.782562 -1.54052,-5.613005 -3.55008,-7.082065 -1.70561,-1.259198 -2.73595,-2.100922 -2.38542,-3.492193 0.30711,-1.243812 1.33699,-2.320276 2.93315,-1.920445"
     id="path3459"
     style="fill:#ffffff"
     inkscape:connector-curvature="0" /><path
     d="m 149.96098,21.536595 c 0.79966,0.40209 6.3783,3.221253 6.3783,3.221253 l 0.99279,-1.957087 -10.28977,-5.198251 -0.23564,0.464052 -8.2395,16.305778 10.3861,5.248902 0.98963,-1.956184 c 0,0 -5.67045,-2.867115 -6.47373,-3.274634 0.3745,-0.744475 2.51431,-4.972101 2.8861,-5.717038 0.79153,0.399832 6.00968,3.036733 6.00968,3.036733 l 0.9946,-1.957097 c 0,0 -5.22358,-2.634633 -6.01511,-3.036722 0.36818,-0.726391 2.24929,-4.453324 2.61655,-5.179705"
     id="path3461"
     style="fill:#ffffff"
     inkscape:connector-curvature="0" /><path
     d="m 171.49033,32.947147 -18.1032,9.368883 2.02312,1.758987 c 0,0 3.83911,-2.035337 4.38231,-2.322996 0.45049,0.393498 3.63241,3.161559 4.07339,3.545553 -0.19177,0.572159 -1.61379,4.729674 -1.61379,4.729674 l 3.43565,2.986974 6.99477,-20.626116 -1.19225,0.559041 m -9.60182,7.727045 c 0.8562,-0.442796 3.04396,-1.579425 4.37824,-2.273701 -0.49663,1.418409 -1.31528,3.754071 -1.62917,4.663185 -0.69428,-0.607886 -2.05389,-1.789286 -2.74907,-2.389484 z"
     id="path3463"
     style="fill:#ffffff"
     inkscape:connector-curvature="0" /><path
     d="m 158.85766,104.67923 c -1.48488,-3.93226 -6.59721,-5.640591 -11.43,-3.81648 -2.01498,0.75805 -3.66542,2.02539 -4.79073,3.52159 3.19095,-9.107459 16.18907,-11.040129 16.18907,-19.513013 0,-14.201685 -20.16794,-10.223723 -17.23343,0.0021 0,-4.639661 7.38421,-5.489975 7.38421,0 0,5.490889 -12.87555,9.09163 -12.87555,18.367803 0,10.22598 10.2278,11.17218 9.19249,20.52479 -0.17594,1.61244 -1.91005,3.73146 -4.4203,3.73146 -15.66532,0 -10.07311,-19.28415 -15.54681,-25.15226 l 0.2863,-3.962125 c 3.16427,1.940355 11.55937,-2.605227 6.03274,-9.534426 0,3.40761 -7.09564,3.219005 -7.09564,-3.218994 0,-8.711248 8.14406,-4.165664 8.53983,-2.242037 -0.39034,-3.172418 -0.53779,-5.185596 -0.0141,-7.013781 -4.39045,1.415699 -4.80114,-1.122147 -4.24572,-2.104083 0.63593,-1.135716 1.4867,-2.462305 3.19729,-2.462305 0.92449,0 1.47946,0.128901 1.80647,0.354147 0.54683,0.37405 0.94666,-0.480339 0.86841,0.314346 0.46994,-0.71508 0.28179,0.177756 0.73499,-0.539592 0.4618,-0.712371 1.0837,-1.517904 2.17645,-2.591207 l -0.047,-1.607013 1.2791,0.469029 1.22798,-1.986031 c -1.32523,-2.747707 -3.12357,-1.424289 -4.44789,-4.830996 -1.10768,-0.28766 -18.35875,1.588478 -17.85851,-5.29323 -1.40664,0 -4.73871,0.770719 -2.67669,3.572701 -1.6034,0.193121 -2.75902,-1.627818 -5.17609,3.297244 3.02768,-0.567632 1.46047,2.816905 1.46047,3.779843 0,6.2399 -8.30689,6.134513 -8.30689,3.211769 -2.00187,1.945324 -0.86616,6.199184 2.16152,7.247156 0,0 -1.15155,4.55011 -3.99378,7.434869 C 97.01686,84.472193 90.248227,83.739018 86.354396,80.05823 84.675024,78.472021 83.34165,77.607677 82.205934,77.163527 l 0,-2.062474 c 1.662643,-0.813684 3.48585,-2.2538 5.380523,-4.660476 1.478112,-1.805123 2.278227,-4.119981 2.062926,-6.578211 -0.02802,-0.293541 -0.07143,-0.583459 -0.12302,-0.866151 -0.01581,-0.09001 -0.03798,-0.177295 -0.05881,-0.266856 -0.04157,-0.198109 -0.0896,-0.388069 -0.146996,-0.58391 -0.02761,-0.09453 -0.05337,-0.191325 -0.08324,-0.28495 -0.06425,-0.196293 -0.134793,-0.384005 -0.211226,-0.570353 -0.03212,-0.07821 -0.0547,-0.161468 -0.09227,-0.23474 -0.105388,-0.251019 -0.222979,-0.487124 -0.350074,-0.725026 -0.05429,-0.09637 -0.11172,-0.186347 -0.164639,-0.275004 -0.08734,-0.142922 -0.170069,-0.28766 -0.261878,-0.425604 -0.07421,-0.109462 -0.151974,-0.220268 -0.230224,-0.330634 -0.08047,-0.105387 -0.165543,-0.213484 -0.248309,-0.319323 -0.09186,-0.113075 -0.182273,-0.232934 -0.280424,-0.345106 -0.06517,-0.07421 -0.135686,-0.145631 -0.204442,-0.213935 -0.246051,-0.271824 -0.512906,-0.524659 -0.791514,-0.766183 -0.02309,-0.01991 -0.0507,-0.04567 -0.0778,-0.06651 -0.155587,-0.132976 -0.321582,-0.260071 -0.484866,-0.381295 -0.04157,-0.03161 -0.08498,-0.0624 -0.131611,-0.09494 -0.174596,-0.123021 -0.353245,-0.243331 -0.539592,-0.358223 -0.01129,-0.0072 -0.02176,-0.0117 -0.02987,-0.01991 -1.773008,-1.085506 -3.915539,-1.65359 -6.17838,-1.474027 -5.448377,0.433752 -9.498246,4.986121 -9.043227,10.168545 0.354148,4.037656 3.33207,7.262531 7.203731,8.291064 -1.358243,0.758044 -2.505721,1.19542 -2.764889,1.19542 0.043,0.02761 0.09905,0.05973 0.160113,0.09904 0.01581,0.0072 0.03438,0.01858 0.05337,0.02802 0.05245,0.03387 0.114882,0.06877 0.17866,0.103119 0.01581,0.0092 0.03531,0.01806 0.0507,0.02761 0.08734,0.04393 0.177305,0.0896 0.278617,0.137954 0.01581,0.0072 0.03479,0.01314 0.0507,0.02083 0.0896,0.04157 0.180917,0.08509 0.277704,0.122118 0.02761,0.01262 0.05748,0.02402 0.08724,0.03397 0.237009,0.09904 0.503864,0.188154 0.795599,0.271372 0.04157,0.01129 0.0855,0.02083 0.121214,0.03212 0.118042,0.02987 0.237901,0.05748 0.361835,0.08724 0.04075,0.0072 0.08231,0.01581 0.126192,0.02484 0.15649,0.02802 0.320226,0.05563 0.484414,0.07554 0.01406,0 0.02802,0.0072 0.04157,0.0072 l 0,1.172809 c -0.06148,0.01355 -0.11715,0.01991 -0.174585,0.02894 -1.772105,0.291734 -2.923657,0.837207 -3.444251,2.414815 -0.517423,1.5835 0.01406,2.155658 0.843991,3.266495 -0.701059,1.253317 -2.538297,1.721895 -0.140663,4.490858 -0.174585,1.045714 0.0466,2.711077 1.568566,3.216285 0.496618,0.168263 0.910469,0.257813 1.346942,0.333344 l -0.0021,20.758636 c -1.517904,0.80418 -2.266906,1.80738 -2.681209,2.74228 0,0 -1.218492,-2.70519 -1.137984,2.65363 1.384487,-1.0742 0.839465,1.24382 0.839465,1.24382 -1.885179,2.4424 0.509284,2.30988 0.509284,2.30988 1.623753,-1.62194 1.292668,0.73499 1.292668,0.73499 0,2.87434 1.167379,3.9992 1.177325,4.00373 l 0,15.81457 -1.379047,0.004 0.01314,4.36376 2.411644,-0.004 c -1.353275,0.56175 -2.246112,1.8983 -2.115845,3.3755 0.163736,1.86211 1.883814,3.24569 3.842718,3.09462 1.957086,-0.15741 3.411674,-1.78974 3.244777,-3.65637 -0.110807,-1.28814 -0.964293,-2.33929 -2.124888,-2.82234 l 2.225297,-0.006 -0.0092,-4.36376 -1.327041,0.006 0.0021,-14.03116 c 0.27364,0.15015 0.569439,0.25419 0.890569,0.32429 0.127998,0.024 0.255093,0.0416 0.385811,0.0502 0.05748,0.009 0.117139,0.009 0.174585,0.0109 -0.356857,-1.84447 0.744937,-3.06703 0.744937,-3.06703 0.565816,-0.85167 1.384025,-1.51565 2.315309,-1.98423 2.78479,-1.39714 6.584996,-1.0439 7.720712,1.23071 7.196502,-1.89694 13.380762,-9.13053 13.380762,-9.13053 l 3.5424,6.02912 c -7.5104,2.51115 -23.86909,16.73229 -12.513715,21.6578 -0.0041,1.43379 -0.196293,12.07453 -7.019652,11.22919 -9.826611,-1.21035 -12.277165,2.85535 -10.390179,7.42581 -0.886956,3.85403 2.08102,5.19193 2.08102,5.19193 -0.445515,-2.22621 0.625078,-4.07067 4.686258,-4.04716 -0.02084,4.06118 2.602066,4.79345 2.602066,4.79345 0.01858,-3.47772 2.435169,-4.76586 4.582226,-4.75636 -0.01581,2.86575 3.313523,3.95488 3.313523,3.95488 0,0 -0.843982,-3.30267 2.919583,-3.95488 9.52719,-1.65993 0.57939,-11.4585 15.06783,-14.15872 0,0 -7.21459,-1.08777 -7.21459,-5.0318 0,-3.58989 6.53072,-6.0445 8.77909,-6.0445 4.61117,8.8103 9.62081,8.87995 10.93383,8.94282 2.04212,2.28093 1.35779,9.96908 -1.59027,9.81801 -10.79227,-0.57939 -10.39742,5.98525 -9.18798,7.32813 -0.13794,2.54824 1.84448,4.02001 1.84448,4.02001 0,-2.73142 2.59889,-3.49942 5.93187,-3.31895 -0.17503,3.3366 1.95076,3.83503 1.95076,3.83503 0.0583,-3.35786 2.54236,-3.9273 4.30723,-3.83503 -0.1289,2.35329 2.20676,3.04622 2.20676,3.04622 0,0 -0.22977,-2.98697 2.9146,-2.98697 5.9649,-0.004 -2.69795,-12.78735 8.94373,-25.42996 -10.22645,4.73374 -15.66713,-7.09926 -15.66713,-9.37025 5.25615,6.15079 22.2978,7.37878 22.2978,-3.12809 0,-10.03738 -11.03198,-13.77743 -5.87036,-17.61652 3.00189,-2.23209 8.90528,2.27731 5.52753,6.93552 4.84365,-1.79471 7.5425,-6.48504 6.06078,-10.41505 m -65.36646,0.31662 c -3.855383,2.2669 -6.440257,5.13492 -9.955061,6.38959 -0.53371,0.18725 -0.959324,0.24062 -1.329299,0.21666 l 0,-19.591715 c 0.931274,0.08724 3.347906,0.417927 6.173402,1.586209 2.798369,1.526957 2.798369,4.683087 -0.733175,5.431185 2.232092,4.273761 9.964114,2.181431 11.649367,-1.299452 0.825446,-0.07328 1.554996,1.400313 2.241136,2.793393 -1.08506,0.56356 -3.305386,1.68345 -8.04637,4.47413 z M 136.6438,72.517482 c -0.42426,0.57533 -0.84219,1.147478 -1.20855,1.637773 0.97787,1.625098 2.81737,2.640966 4.8328,2.454618 2.78525,-0.263694 4.83552,-2.735945 4.57951,-5.523906 -0.0149,-0.101303 -0.0289,-0.19268 -0.0425,-0.291735 -0.29852,1.443729 -2.00006,2.666296 -4.1643,2.866212 -1.63868,0.15378 -3.12221,-0.316614 -3.99695,-1.142962 z"
     id="path3465"
     style="fill:#d1d3d4"
     inkscape:connector-curvature="0" /><path
     d="m 74.352246,60.727697 c 0,0.0031 -0.0072,0.01026 -0.0072,0.01673 l -0.0021,0 c 0.04342,-0.103581 0.08909,-0.207151 0.142018,-0.308474 -0.05019,0.09637 -0.09586,0.190873 -0.133427,0.291734 m 0.177756,82.172913 c 0.0041,-0.003 0.0118,-0.003 0.01314,-0.008 l -0.001,0 c -0.0031,0.006 -0.0072,0.006 -0.0118,0.008 z m -0.122117,-90.537249 0.0051,0 -0.0051,0 z m -1.474037,90.055099 2.411644,-0.003 c -0.294444,0.12302 -0.560397,0.28449 -0.802373,0.47717 0.239718,-0.0919 0.493908,-0.14745 0.763474,-0.14745 1.20945,0 2.188665,0.97968 2.188665,2.19002 0,1.20855 -0.979215,2.18822 -2.188665,2.18822 -0.979216,0 -1.798329,-0.64226 -2.075592,-1.53102 l 0,0.19811 c 0.165543,1.86662 1.881105,3.25111 3.842267,3.09009 1.95528,-0.15288 3.409416,-1.78975 3.247948,-3.65185 -0.11443,-1.28272 -0.966109,-2.33521 -2.126704,-2.81826 l 2.223952,-0.009 -0.01026,-4.36422 -1.327042,0.007 0,-14.03162 c -1.296732,-0.67302 -2.045734,-2.13936 -1.756267,-3.64506 0.830413,0 1.573092,0.21574 2.070161,0.55587 -0.766645,1.68662 1.140243,3.4732 1.140243,3.4732 -0.356858,-1.84357 0.742679,-3.06341 0.742679,-3.06341 0.570342,-0.85349 1.388099,-1.51837 2.315309,-1.98785 2.788413,-1.39805 6.58635,-1.04481 7.722066,1.22889 7.196957,-1.89422 13.381666,-9.13098 13.381666,-9.13098 l 3.5442,6.02505 c 8.30734,0 5.41581,-6.22089 4.87306,-6.76319 1.91231,0 4.60212,1.40709 4.60212,4.52296 0,7.65106 -22.242176,8.74111 -22.242176,18.02813 0,3.89925 3.864887,5.38234 3.864887,5.38234 0,8.46745 -5.814286,13.49745 -9.791335,13.49745 -6.359749,0 -11.229634,-1.28814 -11.229634,5.64648 l 2.217158,0 c -2.106352,2.1059 -0.140664,5.19509 -0.140664,5.19509 -0.443698,-2.2235 0.630056,-4.06435 4.690322,-4.0449 l 2.53332,0 c -1.609723,1.60882 -0.669396,4.05123 0.07144,4.79662 0.01406,-3.48224 2.428384,-4.76948 4.578151,-4.75682 0.779762,0 1.838582,0 1.838582,0 -0.500241,0.493 0.303497,2.78209 1.476758,3.95082 0,0 -0.848057,-3.29861 2.919572,-3.95082 9.524019,-1.65993 0.574427,-11.4585 15.063759,-14.16278 0,0 -7.21007,-1.08461 -7.21007,-5.03272 0,-3.584 6.52755,-6.04405 8.77231,-6.04405 1.76939,-0.25283 3.45464,-0.18905 4.89747,0.12031 0.58664,5.6881 7.11644,5.41174 8.53983,5.41174 5.53973,5.54065 -1.40845,14.43462 -1.40845,14.43462 -8.50229,0 -11.86738,1.17326 -11.86738,6.12456 l 1.60927,0 c -0.90188,0.9064 -0.39034,3.39856 0.23068,4.02047 0,-2.73324 2.60342,-3.49671 5.93639,-3.32077 l 1.75265,0 c -0.85529,0.85439 -0.70422,2.9327 0.20128,3.83503 0.0498,-3.35831 2.53739,-3.9282 4.30497,-3.83503 l 1.46092,0 c -0.54683,0.55226 0,2.3031 0.74945,3.05301 0,0 -0.23067,-2.98923 2.91189,-2.99285 5.96716,0 -2.70066,-12.78736 8.9478,-25.42952 -10.22599,4.73601 -15.67119,-7.10061 -15.67119,-9.37204 5.25705,6.15305 22.30232,7.38058 22.30232,-3.12357 0,-8.47515 -7.86229,-12.45853 -7.21097,-15.80463 0.22615,-2.56135 2.37456,-4.5691 4.99833,-4.5691 2.76942,0 5.01416,2.24973 5.01416,5.01959 0,2.11178 -1.29673,3.91509 -3.14391,4.65595 0.004,0 0.004,-0.005 0.004,-0.005 -0.004,0.005 -0.0104,0.0104 -0.0104,0.0194 4.83913,-1.79517 7.54161,-6.48685 6.0653,-10.41595 -1.48941,-3.932275 -6.60172,-5.644676 -11.4309,-3.821458 -2.02313,0.763473 -3.66769,2.025833 -4.79164,3.524748 3.18553,-9.107004 16.18636,-11.036502 16.18636,-19.51301 0,-14.201685 -20.16884,-10.221916 -17.23433,0.0041 0,-0.153781 0.009,-0.305303 0.028,-0.453203 0.51426,-5.780365 10.84699,-6.961764 10.84699,0.573062 0,6.437548 -13.23377,10.005723 -13.23377,18.666761 0,8.89532 9.77595,11.12017 9.77595,20.48092 0,1.11491 -0.58934,5.91514 -7.08297,5.91514 -6.26613,0 -9.27842,-3.50259 -10.98947,-8.07351 l 0,0 c -3.19186,-6.16617 -2.0195,-15.79195 -5.61346,-19.640549 l 0.2854,-3.958502 c 3.16608,1.942615 11.56389,-2.607044 6.04767,-9.536242 0,3.411233 -7.10152,3.218102 -7.10152,-3.217188 0,-8.711248 8.13954,-4.165654 8.5353,-2.243843 -0.39078,-3.170602 -0.54411,-5.189209 -0.009,-7.01061 -4.39496,1.411624 -4.79932,-1.123954 -4.25249,-2.108609 0.64317,-1.137984 1.49303,-2.462306 3.20045,-2.462306 2.46818,0 2.31169,0.905954 2.18188,2.182334 0.94258,-1.425645 1.21035,-2.497131 3.40398,-4.642381 l -0.0466,-1.611078 1.27276,0.473104 1.23749,-1.988299 c -1.32342,-2.747707 -3.12265,-1.41886 -4.45242,-4.828276 -1.10269,-0.289477 -15.60695,-1.627818 -15.1049,-8.511784 -1.28362,0 -4.77762,4.426177 -2.41348,6.794405 0,0 -1.87113,0 -3.01139,0 -1.61062,0.190422 -5.36922,-0.933542 -7.78132,3.988811 5.93913,-5.93821 9.7945,8.22865 -1.14476,8.22865 l 0,-0.0021 0,0 c -1.61425,0.0041 -2.99873,-0.668945 -3.09235,-1.807381 -1.090043,4.781689 5.80115,6.269747 5.80115,6.269747 0,1.420666 -3.45192,9.111531 -5.1295,10.787291 1.13076,1.1312 1.48218,7.959978 -3.745917,7.959978 1.88517,-5.097841 -3.659542,-9.417276 -9.045043,-12.274435 0.0051,0 0.0051,0 0.0072,0 -0.975151,-0.370888 -1.903716,-0.821381 -2.763986,-1.364134 -3.306297,-1.510668 -5.993849,-2.360993 -5.993849,-2.360993 l 0,-3.996046 c 1.662642,-0.81549 3.48586,-2.255606 5.380533,-4.662282 1.48037,-1.803306 2.27641,-4.118164 2.060216,-6.578212 -0.02309,-0.293992 -0.06651,-0.579394 -0.124837,-0.867054 -0.01314,-0.0896 -0.03397,-0.174585 -0.05296,-0.264135 -0.04341,-0.19811 -0.09186,-0.393048 -0.148803,-0.583469 -0.02576,-0.0972 -0.05337,-0.188606 -0.08724,-0.28494 -0.0624,-0.196303 -0.13389,-0.38808 -0.207162,-0.574427 -0.03254,-0.07913 -0.05973,-0.154684 -0.09227,-0.232924 -0.108107,-0.246051 -0.226602,-0.488037 -0.351439,-0.720058 -0.04978,-0.09904 -0.110816,-0.188164 -0.162822,-0.282692 -0.08734,-0.142019 -0.171876,-0.282682 -0.262791,-0.420636 -0.07554,-0.110355 -0.151061,-0.22343 -0.232031,-0.333344 -0.08006,-0.105387 -0.160565,-0.213935 -0.246041,-0.315248 -0.09135,-0.119859 -0.183637,-0.237009 -0.282692,-0.34917 -0.06425,-0.07421 -0.132976,-0.145642 -0.202174,-0.216204 -0.24876,-0.269114 -0.512906,-0.521949 -0.79062,-0.758958 -0.02802,-0.02258 -0.05152,-0.05337 -0.07913,-0.07328 -0.156039,-0.13116 -0.319313,-0.257803 -0.487124,-0.377211 -0.04434,-0.02894 -0.0855,-0.06651 -0.128902,-0.09638 -0.177294,-0.126182 -0.353245,-0.241977 -0.540495,-0.358213 -0.01088,-0.0051 -0.02217,-0.01406 -0.03254,-0.01806 -1.772094,-1.090935 -3.915538,-1.6536 -6.177476,-1.476747 -0.487124,0.0389 -0.961131,0.126192 -1.424731,0.225236 -3.13668,1.202215 -5.419433,4.87396 -5.419433,9.219629 0,4.095101 2.030369,7.587294 4.885722,8.980823 0.0389,0.01088 0.08047,0.02669 0.121214,0.03664 -1.360962,0.758054 -2.507989,1.195872 -2.768512,1.195872 0.04434,0.02802 0.101816,0.05973 0.163726,0.101302 0.01581,0.0072 0.03254,0.01581 0.0507,0.02576 0.0547,0.03172 0.112171,0.06374 0.180917,0.100379 0.01673,0.0092 0.03254,0.01858 0.05152,0.02484 0.08139,0.04341 0.176392,0.09453 0.274995,0.142932 0.01806,0.0051 0.03664,0.01355 0.0507,0.0235 0.08642,0.04075 0.179563,0.07739 0.280424,0.118956 0.02761,0.0118 0.05337,0.0235 0.08324,0.03479 0.241977,0.09545 0.505671,0.188605 0.800567,0.27093 0.04075,0.0092 0.08006,0.02083 0.121665,0.03254 0.11444,0.02987 0.234299,0.05748 0.358223,0.08324 0.04157,0.01129 0.08509,0.01806 0.128901,0.02761 0.156049,0.02987 0.316614,0.05696 0.485318,0.07739 0.0118,0 0.02484,0.0021 0.03664,0.01026 1.038919,0.08509 2.266906,-0.172778 2.266906,-0.172778 l 0,2.318029 c -0.186337,0 -1.819133,-0.526475 -2.266906,-0.974248 -0.05522,0.0082 -0.114891,0.01858 -0.174585,0.02987 -1.76803,0.289477 -2.920486,0.833585 -3.439725,2.413913 -0.517433,1.583499 0.01406,2.155647 0.84353,3.266494 -0.706028,1.248791 -2.537836,1.720089 -0.144728,4.490859 -0.170069,1.043445 0.04834,2.712882 1.568566,3.219004 0.497972,0.168253 0.912286,0.252825 1.346942,0.330624 0.900976,0 2.266906,0.752624 2.266906,2.62287 l 0,17.839504 c 0.820467,0.0475 1.710594,0.15831 2.519751,0.22796 l 0,-19.593969 c 0.931284,0.0896 3.350164,0.420636 6.171144,1.584403 0.03254,0.01581 0.05748,0.03397 0.0855,0.05245 -0.0021,-0.0021 -0.0051,-0.0021 -0.0051,-0.0041 0.257813,0.03161 0.51969,0.08724 0.778858,0.164639 1.878847,0.577578 3.048484,2.208116 2.609754,3.651844 -0.438731,1.441019 -2.324352,2.142983 -4.200027,1.567211 2.228017,4.277372 9.964555,2.184602 11.649367,-1.296281 0.821371,-0.07328 1.552277,1.400765 2.239779,2.791575 0,0 1.937637,0.742227 6.736507,0.742227 0,0 -19.427524,12.403341 -25.046411,12.403341 -2.400795,0 -7.725689,0 -7.725689,1.81552 -1.463178,0 -3.573153,2.48673 -3.573153,3.9083 1.383584,-1.07964 2.510709,-1.07964 2.510709,-1.07964 1.179593,0 1.844012,0.35235 1.844012,0.35235 -0.432398,0.42696 -2.370938,2.61473 -2.370938,4.31356 1.623291,-1.626 2.331587,-1.61922 2.331587,-1.61922 0,0 1.696574,-0.21891 2.301289,0.38897 -0.408874,0.40572 -1.123954,1.87658 -1.123954,3.61657 0,0 1.006815,-1.94353 2.266906,-1.94353 l 0,18.64777 c 0,0.56989 -2.573112,1.11672 -3.632846,1.11672 m 0.790159,-54.063996 c -0.478975,0.01806 -0.70649,-0.604264 -0.710554,-0.82951 -0.0118,-0.227956 0.167801,-0.862077 0.645882,-0.881075 1.137974,-0.0389 3.414384,0.507026 3.423437,0.731369 0.0092,0.222527 -2.221232,0.938058 -3.358765,0.979216 z m -0.734078,-3.07788 c -0.659903,-0.0466 -0.877903,-0.93852 -0.855744,-1.251962 0.02084,-0.307561 0.368168,-1.160595 1.027619,-1.112192 1.57535,0.118043 4.628812,1.216224 4.60303,1.526495 -0.0194,0.314807 -3.201813,0.953895 -4.774905,0.837659 z m -0.27092,-3.943579 c -0.698802,-0.183637 -0.756248,-1.184119 -0.671665,-1.514743 0.08724,-0.329279 0.627788,-1.172809 1.329299,-0.990988 1.665363,0.436473 4.726964,2.227114 4.639671,2.555479 -0.08509,0.329279 -3.630588,0.386715 -5.297305,-0.04978 z m 5.159351,-11.111592 c 0.289467,-0.6902 0.227956,-1.632785 0.04845,-2.519741 -0.02987,0 -0.05974,0.0021 -0.09001,0.0021 -2.004135,0 -3.627878,-1.625108 -3.627878,-3.62562 -0.02987,-0.342386 0.01858,-0.674375 0.133879,-0.979216 l 0.0021,0 c 0,-0.0072 0.0041,-0.01406 0.0072,-0.01673 0.433302,-1.517001 1.825476,-2.634181 3.485861,-2.634181 1.998244,0 3.626523,1.625109 3.626523,3.630137 -9.13e-4,2.3126 -1.628731,4.441562 -3.585366,6.143555 z"
     id="path3467"
     style="fill:#034694"
     inkscape:connector-curvature="0" /><path
     d="m 132.31686,71.0351 c 0.97063,1.625108 2.81465,2.640965 4.82963,2.453263 2.78977,-0.260522 4.83461,-2.734139 4.57951,-5.525261 -0.0104,-0.09863 -0.0285,-0.193583 -0.0416,-0.292186 -0.2958,1.441922 -2.00549,2.66765 -4.1652,2.868018 -1.6432,0.15378 -3.12448,-0.317517 -3.99922,-1.142963 -0.42154,0.577137 -0.84443,1.148844 -1.20311,1.639129"
     id="path3469"
     style="fill:#ed1c24"
     inkscape:connector-curvature="0" /><path
     d="m 125.54371,61.628673 1.75174,0.09227 -0.87654,1.202205 c -4.6e-4,0 -1.1701,0.369984 -0.8752,-1.294475 m -4.17878,0 2.52383,0 c 0,0 -0.0909,2.036692 1.75174,2.218975 l -0.39123,0.648592 c -4.6e-4,0 -4.95266,-1.294475 -3.88434,-2.867567 z"
     id="path3471"
     style="fill:#ffffff"
     inkscape:connector-curvature="0" /><path
     d="m 78.017669,79.028548 c 0.08724,-0.328365 -2.974308,-2.119458 -4.639671,-2.555479 -0.701511,-0.181821 -1.242006,0.661709 -1.329299,0.990988 -0.08509,0.330624 -0.02761,1.331106 0.671665,1.514743 1.666717,0.436463 5.212271,0.379027 5.297305,0.04978 m -0.251028,3.05572 c 0.02576,-0.310271 -3.02768,-1.408453 -4.60303,-1.526495 -0.659451,-0.04844 -1.006815,0.804631 -1.027619,1.112192 -0.02217,0.313442 0.195389,1.205375 0.855743,1.251962 1.572641,0.116688 4.755004,-0.5224 4.774906,-0.837659 z m -3.466863,-9.214199 0,1.170551 c 0.447784,0.448225 2.080569,0.974248 2.266917,0.974248 l 0,-2.318029 c 4.51e-4,4.52e-4 -1.227535,0.257813 -2.266917,0.17323 z m -0.639087,11.419153 c -0.478082,0.01899 -0.657645,0.653119 -0.645883,0.881075 0.0041,0.225246 0.232031,0.848056 0.710554,0.829509 1.137533,-0.04075 3.367807,-0.756689 3.358765,-0.979677 -0.0092,-0.223881 -2.285462,-0.770258 -3.423436,-0.730907 z m -2.342898,30.900496 c -1.882922,2.44014 -0.526927,4.66589 -0.526927,4.66589 0,-1.69928 1.93854,-3.88659 2.370938,-4.31356 0,4.6e-4 -0.663977,-0.35233 -1.844011,-0.35233 z m 6.007407,5.17699 c -0.289466,1.50524 0.459535,2.97114 1.756268,3.64506 0.275908,0.14293 0.57532,0.256 0.889675,0.31797 0.134783,0.0308 0.260975,0.047 0.391682,0.062 0.05748,9e-4 0.115344,0.002 0.172779,0.004 0,0 -1.906887,-1.78522 -1.140242,-3.47274 -0.497521,-0.34149 -1.239749,-0.55678 -2.070162,-0.55678 z M 73.879143,70.563833 c -2.855353,-1.393519 -4.885712,-4.885711 -4.885712,-8.980361 0,-4.345217 2.282742,-8.017414 5.419422,-9.219628 -4.70931,1.043456 -8.031434,5.228559 -7.615776,9.946018 0.352342,3.996047 3.271914,7.191528 7.082066,8.253971 z M 104.19392,60.541381 c 3.0304,-0.570342 4.05847,2.123994 4.05847,3.088287 0,3.652757 -2.84496,5.124527 -5.20323,5.138547 l 0,0.0021 c 10.93926,0 7.08433,-14.16686 1.14476,-8.22865 z M 96.882078,91.97785 c 5.228112,0 4.876672,-6.828327 3.745932,-7.959978 1.67757,-1.676211 5.1295,-9.366625 5.1295,-10.787291 0,0 -6.90024,-1.488058 -5.798446,-6.276531 -0.0021,-0.0031 -0.0021,-0.0051 -0.0021,-0.0092 l -0.09227,-0.01673 c -1.880643,1.984234 -0.737239,6.12275 2.246106,7.155347 0,0 -1.15154,4.550111 -3.993773,7.43532 -2.82958,-0.109913 -6.79577,-0.482156 -10.279362,-1.81553 5.38505,2.858073 10.930212,7.177507 9.044581,12.274897 z M 76.458598,59.192181 c 1.35192,-0.108097 2.542362,0.850314 2.657695,2.142079 0.112171,1.285432 -0.894643,2.4216 -2.248822,2.528793 -1.356887,0.109 -2.549598,-0.849411 -2.657695,-2.139821 0,2.000061 1.623744,3.625621 3.627879,3.625621 0.02987,0 0.05974,-0.0021 0.09001,-0.0021 0.179563,0.886945 0.241073,1.82954 -0.04834,2.519741 1.957087,-1.701993 3.584905,-3.830955 3.584905,-6.143555 0,-2.005028 -1.627818,-3.630137 -3.626513,-3.630137 -1.668976,0 -3.06658,1.123964 -3.494,2.650921 0.317066,-0.839465 1.119438,-1.471327 2.114942,-1.551836 z M 114.98664,56.55257 c -2.36416,-2.368229 1.12984,-6.794405 2.41346,-6.794405 -1.40393,0 -7.4914,3.985639 -5.42486,6.794405 1.14025,0 3.0114,0 3.0114,0 z M 84.526673,95.904699 c 1.875234,0.575771 3.760855,-0.126192 4.200037,-1.567211 0.439182,-1.443729 -0.730917,-3.074267 -2.609753,-3.651844 -0.259168,-0.07739 -0.521046,-0.132976 -0.778859,-0.16464 2.712883,1.546858 2.681219,4.650068 -0.811425,5.383695 z M 79.086446,75.978288 c 0,0 2.687552,0.850325 5.993839,2.360993 -0.663967,-0.411593 -1.286777,-0.875645 -1.84627,-1.402571 -1.678479,-1.586209 -3.01366,-2.450554 -4.147569,-2.889726 l 0,1.931304 0,0 z m 1.01948,34.567722 c 5.618887,0 25.046414,-12.4038 25.046414,-12.4038 -4.79842,0 -6.736521,-0.742218 -6.736521,-0.742218 -1.083248,0.564471 -3.306287,1.679835 -8.045013,4.470958 -3.855835,2.26963 -6.440257,5.13946 -9.955964,6.39186 -0.535517,0.19403 -0.961131,0.23927 -1.328396,0.21891 -0.809157,-0.0697 -1.699284,-0.17956 -2.519751,-0.2284 l 0,-17.839058 c 0,-1.870697 -1.365931,-2.62287 -2.266917,-2.62287 l 0,20.759988 c -1.51971,0.80554 -2.267357,1.80647 -2.678499,2.74228 0,0 -2.896962,-0.38626 -2.814195,4.97526 0,-1.42202 2.109964,-3.90874 3.573152,-3.90874 0,-1.81417 5.324894,-1.81417 7.72569,-1.81417 z m 48.460034,28.71861 c -1.42293,0 -7.95319,0.27636 -8.53982,-5.41173 -1.44329,-0.30982 -3.12809,-0.37225 -4.89749,-0.12077 4.6166,8.81076 9.62806,8.88131 10.93927,8.9487 2.04077,2.27642 1.3569,9.96367 -1.59118,9.80898 -10.79227,-0.57487 -10.39651,5.99113 -9.18751,7.334 0,-4.95085 3.36554,-6.12456 11.86737,-6.12456 4.5e-4,0 6.94955,-8.89397 1.40936,-14.43462 z m 2.21942,21.25934 -1.46092,0 c -0.12347,2.35873 2.21129,3.05301 2.21129,3.05301 -0.75037,-0.74992 -1.2972,-2.50121 -0.75037,-3.05301 z m -13.65667,3.32076 c -0.621,-0.6219 -1.13254,-3.11406 -0.23066,-4.02092 l -1.60928,0 c -0.13433,2.55232 1.83994,4.02092 1.83994,4.02092 z m 32.21578,-81.971185 c 0,-7.537085 -10.33679,-6.352976 -10.84699,-0.565375 0.45592,-4.242097 7.36205,-4.868078 7.36205,0.445515 0,5.490889 -12.88008,9.088007 -12.88008,18.368245 0,10.22598 10.22509,11.17219 9.19069,20.52117 -0.17504,1.61833 -1.90915,3.73327 -4.4194,3.73327 -5.38279,0 -8.26392,-2.28456 -9.93697,-5.51306 1.71104,4.57046 4.72244,8.07397 10.98946,8.07397 6.49364,0 7.08298,-4.79979 7.08298,-5.9147 0,-9.36029 -9.77595,-11.5856 -9.77595,-20.48137 9.1e-4,-8.661943 13.23421,-12.230118 13.23421,-18.667665 z M 73.122454,118.23687 c 0,2.88611 1.177324,4.00555 1.177324,4.00555 0,-1.73999 0.715091,-3.21086 1.123965,-3.61657 -0.604274,-0.60834 -2.301289,-0.38898 -2.301289,-0.38898 z M 147.81257,102.2848 c -2.62378,0 -4.7722,2.00775 -4.99835,4.56911 0.11941,-0.61468 0.5292,-1.21216 1.32931,-1.81009 3.00597,-2.23435 8.89759,2.266 5.53703,6.91698 1.84717,-0.74178 3.14482,-2.54418 3.14482,-4.6564 0.001,-2.76987 -2.2434,-5.0196 -5.01281,-5.0196 z m -22.9948,58.23916 -1.75265,0 c -0.17911,3.33343 1.95392,3.83503 1.95392,3.83503 -0.90505,-0.90233 -1.05611,-2.9811 -0.20127,-3.83503 z M 75.306593,142.7455 c -0.27092,0 -0.523755,0.0556 -0.764828,0.14745 -0.833133,0.63412 -1.341061,1.61923 -1.310763,2.69977 0.277714,0.88876 1.096375,1.53102 2.075591,1.53102 1.20945,0 2.188666,-0.97967 2.188666,-2.18821 0,-1.21035 -0.979216,-2.19003 -2.188666,-2.19003 z m 12.31199,16.18727 -2.53332,0 c -0.02176,4.06028 2.604334,4.79661 2.604334,4.79661 -0.740411,-0.74538 -1.680286,-3.18823 -0.07103,-4.79661 z m 7.855945,-25.67646 c 0,-9.28702 22.242172,-10.37706 22.242172,-18.02812 0,-3.11588 -2.68981,-4.52298 -4.60212,-4.52298 0.5414,0.54232 3.43429,6.76321 -4.87305,6.76321 -7.51221,2.51432 -23.870896,16.7341 -12.515973,21.66368 -0.0051,1.42927 -0.197657,12.07091 -7.017393,11.23461 -9.824343,-1.21577 -12.275349,2.84541 -10.389718,7.41587 0,-6.93462 4.869885,-5.64647 11.229635,-5.64647 3.977048,0 9.791335,-5.02955 9.791335,-13.49747 0,0 -3.864888,-1.48308 -3.864888,-5.38233 z m -18.907382,5.69171 0,-18.64822 c -1.260553,0 -2.266906,1.94352 -2.266906,1.94352 l 0,15.91001 0,-0.10181 -1.377702,0.004 0.0118,2.00866 c 1.059734,-4.6e-4 3.632846,-0.54728 3.632846,-1.11672 z m 3.828246,24.02965 c 0,0 -1.966139,-3.08919 0.140664,-5.19509 l -2.217158,0 c -0.890117,3.85854 2.076494,5.19509 2.076494,5.19509 z m 13.71139,-4.00465 c 0,0 -1.058821,0 -1.838583,0 -0.01406,2.86576 3.31534,3.95083 3.31534,3.95083 -1.173261,-1.16783 -1.976998,-3.45782 -1.476757,-3.95083 z"
     id="path3473"
     style="fill:#6a7ab5"
     inkscape:connector-curvature="0" /><line
     x1="184.49478"
     y1="86.182083"
     x2="184.49478"
     y2="86.182083"
     id="line3475"
     style="fill:none" /><path
     d="m 32.259656,128.0128 -0.122568,-0.37632 -0.05245,-0.39168 c -0.179563,-1.34106 -0.503864,-3.83911 -2.432459,-4.28598 -0.515616,-0.11986 -1.048423,-0.0583 -1.616959,0.17549 0.154684,-0.5934 0.136589,-1.13074 -0.04978,-1.62329 -0.711006,-1.84899 -3.228047,-1.82547 -4.580409,-1.80783 l -0.397573,0 -0.391693,-0.0724 c -1.328396,-0.24469 -3.806528,-0.70739 -4.823298,0.98963 -0.273188,0.4532 -0.381737,0.97786 -0.33515,1.58892 -0.514713,-0.33199 -1.0335,-0.48079 -1.556804,-0.45546 -1.979256,0.10538 -2.735945,2.50708 -3.140754,3.79974 l -0.123472,0.37541 -0.183638,0.34873 c -0.648592,1.19089 -1.851258,3.39855 -0.552257,4.89385 0.346912,0.39938 0.813683,0.66714 1.409818,0.80825 -0.471298,0.39034 -0.775698,0.83676 -0.908674,1.3474 -0.516971,1.9096 1.535548,3.37007 2.634633,4.15254 l 0.322494,0.2379 0.277704,0.28089 c 0.931285,0.98555 2.66177,2.80922 4.484074,2.03714 0.482157,-0.2076 0.881988,-0.56718 1.202215,-1.08958 0.227956,0.56989 0.55587,0.99233 0.997762,1.28362 1.659933,1.07511 3.681249,-0.4229 4.768572,-1.22256 l 0.321582,-0.23565 0.356867,-0.17504 c 1.221202,-0.58481 3.496258,-1.66445 3.324382,-3.63692 -0.04567,-0.52919 -0.266855,-1.01495 -0.662612,-1.48037 0.609241,-0.0361 1.113095,-0.22072 1.521979,-0.55226 1.541429,-1.24517 0.739046,-3.63104 0.308464,-4.9142"
     id="path3477"
     style="fill:#ffffff"
     inkscape:connector-curvature="0" /><path
     d="m 23.589114,129.61258 c 11.073144,6.54474 7.662824,-0.65222 7.419483,-1.71648 -0.245137,-1.06064 -0.338311,-9.02152 -7.419483,1.71648"
     id="path3479"
     style="fill:#ed1c24"
     inkscape:connector-curvature="0" /><path
     d="m 22.893032,131.25079 c -2.802433,12.54854 2.988329,7.08569 3.922323,6.52937 0.933542,-0.5613 8.476045,-3.11227 -3.922323,-6.52937"
     id="path3481"
     style="fill:#ed1c24"
     inkscape:connector-curvature="0" /><path
     d="m 21.115046,131.09882 c -12.8054358,1.20853 -5.816082,5.02999 -4.995163,5.74372 0.823177,0.71147 5.575461,7.10017 4.995163,-5.74372"
     id="path3483"
     style="fill:#ed1c24"
     inkscape:connector-curvature="0" /><path
     d="m 20.713408,129.35612 c -5.110958,-11.8027 -6.584995,-3.97615 -7.010609,-2.97069 -0.425604,0.99686 -5.0331598,7.49502 7.010609,2.97069"
     id="path3485"
     style="fill:#ed1c24"
     inkscape:connector-curvature="0" /><path
     d="m 203.61837,126.27869 -0.18274,-0.34872 -0.12529,-0.37541 c -0.4048,-1.29312 -1.1615,-3.69436 -3.13532,-3.8002 -0.52919,-0.0248 -1.04525,0.12257 -1.55997,0.45139 0.047,-0.60699 -0.0678,-1.13164 -0.33379,-1.58485 -1.0213,-1.69793 -3.49581,-1.23477 -4.82421,-0.99008 l -0.39576,0.0724 -0.39576,0 c -1.34739,-0.0177 -3.86669,-0.0408 -4.57499,1.80828 -0.19268,0.4921 -0.2067,1.02989 -0.0556,1.62284 -0.55994,-0.23337 -1.09365,-0.29399 -1.61289,-0.17504 -1.92679,0.44597 -2.25787,2.94447 -2.42838,4.28553 l -0.0592,0.39213 -0.1194,0.37632 c -0.43285,1.28271 -1.23252,3.66858 0.30846,4.91512 0.40888,0.33107 0.90913,0.51606 1.52199,0.55224 -0.39577,0.46542 -0.61649,0.95164 -0.66262,1.48037 -0.17051,1.97248 2.10092,3.05211 3.32439,3.63692 l 0.35323,0.17505 0.3216,0.23564 c 1.09093,0.80057 3.11405,2.29767 4.76856,1.22256 0.44778,-0.29127 0.77298,-0.71372 0.99822,-1.28361 0.32249,0.5224 0.71825,0.88197 1.20493,1.09003 1.8214,0.77162 3.55369,-1.05205 4.48407,-2.0376 l 0.27997,-0.28042 0.31796,-0.23836 c 1.10271,-0.78202 3.15387,-2.24294 2.63871,-4.15209 -0.13796,-0.512 -0.43647,-0.95752 -0.91093,-1.34784 0.59386,-0.14158 1.062,-0.40889 1.40709,-0.80827 1.30126,-1.49574 0.10038,-3.70296 -0.55224,-4.8943"
     id="path3487"
     style="fill:#ffffff"
     inkscape:connector-curvature="0" /><path
     d="m 193.82929,128.44067 c -9.64297,-8.50726 -1.74723,-7.49185 -0.66171,-7.58728 1.08054,-0.0909 8.68501,-2.46548 0.66171,7.58728"
     id="path3489"
     style="fill:#ed1c24"
     inkscape:connector-curvature="0" /><path
     d="m 192.48687,129.61258 c -11.07314,6.54474 -7.66961,-0.65222 -7.42129,-1.71648 0.24288,-1.06064 0.3347,-9.02152 7.42129,1.71648"
     id="path3491"
     style="fill:#ed1c24"
     inkscape:connector-curvature="0" /><path
     d="m 193.18025,131.25079 c 2.80378,12.54854 -2.98743,7.08569 -3.92323,6.52937 -0.93264,-0.5613 -8.47243,-3.11227 3.92323,-6.52937"
     id="path3493"
     style="fill:#ed1c24"
     inkscape:connector-curvature="0" /><path
     d="m 194.95596,131.09882 c 12.8059,1.20853 5.82152,5.02999 4.99743,5.74372 -0.81819,0.71147 -5.57727,7.10017 -4.99743,-5.74372"
     id="path3495"
     style="fill:#ed1c24"
     inkscape:connector-curvature="0" /><path
     d="m 195.35489,129.35612 c 5.11412,-11.8027 6.585,-3.97615 7.01242,-2.97069 0.42334,0.99686 5.0309,7.49502 -7.01242,2.97069"
     id="path3497"
     style="fill:#ed1c24"
     inkscape:connector-curvature="0" /><path
     d="m 197.84253,129.72429 c -0.0122,-0.10267 -0.0453,-0.19449 -0.0592,-0.294 1.02807,-0.75533 2.13891,-1.56449 2.13891,-1.56449 l -0.10674,-0.23926 c 0,0 -1.29584,0.22614 -2.53875,0.44279 -0.62372,-1.02219 -1.68707,-1.71556 -2.90465,-1.83407 -0.38671,-1.1624 -0.77297,-2.34651 -0.77297,-2.34651 l -0.26053,0.0222 c 0,0 -0.17504,1.23387 -0.35144,2.44241 -0.74809,0.20217 -1.41976,0.62553 -1.9304,1.23161 -0.27228,0.32656 -0.46904,0.69608 -0.62553,1.08189 -1.25196,0 -2.57493,0.004 -2.57493,0.004 l -0.0556,0.25781 c 0,0 1.2334,0.6011 2.37274,1.15879 0.004,0.10402 -0.009,0.2067 0,0.31163 0.0873,1.00365 0.55724,1.90462 1.31528,2.56181 -0.40028,1.25105 -0.85077,2.64911 -0.85077,2.64911 l 0.22072,0.13343 c 0,0 1.03893,-1.07603 1.96387,-2.02585 0.48306,0.15876 0.99733,0.22118 1.51702,0.17504 0.52375,-0.0398 1.02038,-0.19674 1.47086,-0.43058 1.0724,0.77206 2.28184,1.6468 2.28184,1.6468 l 0.19811,-0.17051 c 0,0 -0.68568,-1.29583 -1.29673,-2.45597 0.63367,-0.78248 0.93218,-1.75718 0.84896,-2.75856"
     id="path3499"
     style="fill:#ffffff"
     inkscape:connector-curvature="0" /><path
     d="m 193.80984,127.7975 c -0.60698,0.047 -1.15381,0.3338 -1.54414,0.80283 -0.39034,0.46497 -0.57939,1.0525 -0.52376,1.65631 0.10583,1.25015 1.21306,2.17962 2.45959,2.06926 0.61151,-0.0556 1.15381,-0.34103 1.54957,-0.80418 0.38671,-0.46904 0.57487,-1.05295 0.52376,-1.66084 -0.10901,-1.2506 -1.21758,-2.17645 -2.46502,-2.06338"
     id="path3501"
     style="fill:#ed1c24"
     inkscape:connector-curvature="0" /><path
     d="m 22.243988,128.44067 c 9.646145,-8.50726 1.745861,-7.49185 0.663516,-7.58728 -1.085968,-0.0909 -8.689079,-2.46548 -0.663516,7.58728"
     id="path3503"
     style="fill:#ed1c24"
     inkscape:connector-curvature="0" /><path
     d="m 25.895832,130.08749 c 1.147479,-0.55724 2.375014,-1.15924 2.375014,-1.15924 l -0.05748,-0.25782 c 0,0 -1.320247,-0.004 -2.57538,-0.004 -0.151964,-0.38536 -0.349622,-0.75535 -0.623262,-1.08144 -0.510196,-0.60608 -1.181399,-1.02899 -1.931314,-1.23207 -0.171865,-1.20944 -0.346912,-2.44195 -0.346912,-2.44195 l -0.265039,-0.0222 c 0,0 -0.384005,1.18321 -0.764838,2.34651 -1.225277,0.11851 -2.289979,0.81188 -2.912799,1.83407 -1.237932,-0.21665 -2.541449,-0.4428 -2.541449,-0.4428 l -0.100378,0.23927 c 0,0 1.108137,0.80916 2.135756,1.56449 -0.01673,0.1 -0.0466,0.19178 -0.05748,0.29354 -0.08498,1.00682 0.220268,1.97609 0.853034,2.75857 -0.616026,1.15923 -1.301711,2.45597 -1.301711,2.45597 l 0.203077,0.17051 c 0,0 1.207182,-0.87474 2.278679,-1.64681 0.450482,0.2352 0.946659,0.38626 1.469059,0.43059 0.523755,0.047 1.036662,-0.0163 1.519721,-0.17504 0.922232,0.95027 1.959807,2.02583 1.959807,2.02583 l 0.227504,-0.13342 c 0,0 -0.451396,-1.39895 -0.853937,-2.64549 0.756689,-0.6617 1.22617,-1.56268 1.315279,-2.56633 0.01088,-0.10403 -0.0051,-0.20625 -0.0051,-0.31027"
     id="path3505"
     style="fill:#ffffff"
     inkscape:connector-curvature="0" /><path
     d="m 23.808479,128.60078 c -0.391692,-0.46903 -0.9358,-0.7567 -1.545503,-0.80282 -1.246071,-0.11308 -2.35465,0.81277 -2.463209,2.06383 -0.05152,0.60788 0.136148,1.1918 0.522862,1.66083 0.390779,0.46315 0.940327,0.74855 1.546858,0.80418 1.246071,0.11037 2.354199,-0.81955 2.462306,-2.06926 0.05111,-0.60426 -0.135244,-1.19179 -0.523314,-1.65676"
     id="path3507"
     style="fill:#ed1c24"
     inkscape:connector-curvature="0" /><path
     d="M 23.653796,74.927576 C 18.262865,73.975487 13.100794,77.594313 12.148253,82.985244 11.197078,88.379798 14.81184,93.541417 20.203222,94.493496 25.59913,95.445133 30.76346,91.828113 31.712829,86.434463 32.667175,81.042629 29.050156,75.88102 23.653796,74.927576"
     id="path3509"
     style="fill:#ffffff"
     inkscape:connector-curvature="0" /><path
     d="m 25.902617,82.441136 c -0.08724,-0.05337 -0.239267,-0.151974 -0.423346,-0.27364 -0.814596,-0.540043 -2.411654,-1.596154 -2.455521,-1.627818 -0.221182,-0.151974 -0.436473,-0.296712 -0.648602,-0.439634 -0.710103,-0.475813 -1.345126,-0.889665 -1.942164,-1.234319 -0.230214,-0.130718 -0.452751,-0.252835 -0.676632,-0.362287 -0.949379,-0.478985 -1.859397,-0.768461 -2.933603,-0.86299 -0.828155,0.597941 -1.546858,1.338352 -2.128962,2.194096 2.469993,0.891933 4.881647,2.320287 9.903045,5.439324 0.287208,-0.663967 1.248339,-2.708357 1.305785,-2.832732"
     id="path3511"
     style="fill:#ed1c24"
     inkscape:connector-curvature="0" /><path
     d="m 23.587308,87.765579 c 0.100378,-0.250126 0.541849,-1.367296 0.722315,-1.797425 -5.145782,-3.196394 -7.535267,-4.610728 -10.01069,-5.485921 -0.384005,0.689308 -0.671664,1.44147 -0.859366,2.242037 1.412978,1.939905 5.199605,3.845889 10.147741,5.041309"
     id="path3513"
     style="fill:#ed1c24"
     inkscape:connector-curvature="0" /><path
     d="m 23.030072,79.642767 c 1.926789,-1.13978 4.115906,-0.82951 5.805696,-0.252835 -0.630056,-0.813673 -1.393077,-1.524689 -2.280484,-2.078301 -1.596155,-0.317517 -3.800658,-0.367265 -5.555571,1.027619 0.638195,0.374953 1.297195,0.812329 2.030359,1.303517"
     id="path3515"
     style="fill:#ed1c24"
     inkscape:connector-curvature="0" /><path
     d="m 15.341927,88.848827 c 0.257813,0.176853 0.521949,0.345105 0.802825,0.502961 0.56718,0.313442 1.181399,0.584362 1.815981,0.816392 0.269114,0.101816 0.542753,0.196293 0.818651,0.285402 0.965206,0.317507 3.180106,0.892837 3.345197,0.931274 0.03397,-0.08498 0.863882,-2.137553 1.178679,-2.917314 -3.836385,-0.951627 -8.037315,-2.61699 -10.033311,-4.782593 -0.119849,1.00003 -0.07328,1.989202 0.137954,2.92727 0.421088,0.917264 1.097279,1.648171 1.934024,2.236608"
     id="path3517"
     style="fill:#ed1c24"
     inkscape:connector-curvature="0" /><path
     d="m 22.253934,92.186787 -0.800566,-0.206248 c -0.742218,-0.188615 -1.546859,-0.399831 -2.365058,-0.65086 0.398918,0.850324 1.026716,1.512936 1.696113,2.025843 0.896901,0.118956 1.78205,0.09638 2.632826,-0.0507 -0.614681,-0.478071 -1.163315,-1.118073 -1.163315,-1.118073"
     id="path3519"
     style="fill:#ed1c24"
     inkscape:connector-curvature="0" /><path
     d="m 30.27769,82.177442 c -0.182272,-0.595673 -0.421539,-1.172799 -0.722315,-1.710584 -1.512486,-0.674375 -3.816033,-1.333374 -5.827856,-0.34917 l 2.774845,1.832249 c 0.578491,-0.05152 1.110837,-0.06743 1.597961,-0.05563 0.265952,0.0041 0.512906,0.01858 0.749012,0.04157 0.543204,0.04793 1.006814,0.135234 1.428353,0.241525"
     id="path3521"
     style="fill:#ed1c24"
     inkscape:connector-curvature="0" /><path
     d="m 28.857024,82.684919 c -0.08098,4.560066 -2.230726,8.077128 -4.083339,10.277556 2.899671,-1.007718 5.186489,-3.506665 5.756841,-6.734712 0.195389,-1.10315 0.161016,-2.188214 -0.04342,-3.220801 C 30.036624,82.86675 29.497935,82.7496 28.85703,82.684919"
     id="path3523"
     style="fill:#ed1c24"
     inkscape:connector-curvature="0" /><path
     d="m 20.306793,77.952987 c 1.298549,-1.144768 2.83229,-1.531472 4.246623,-1.563136 -0.359125,-0.114881 -0.725035,-0.213936 -1.10632,-0.278617 -2.016791,-0.355955 -3.989714,0.01899 -5.665474,0.926758 0.892385,0.174585 1.698822,0.487575 2.525171,0.914995"
     id="path3525"
     style="fill:#ed1c24"
     inkscape:connector-curvature="0" /><path
     d="m 26.608203,82.689445 c -0.659903,1.374531 -1.047972,2.216255 -1.370015,2.981996 -0.09905,0.232031 -0.19539,0.457277 -0.292628,0.691566 -0.15378,0.383995 -0.627797,1.577608 -0.627797,1.577608 l -0.282682,0.700609 -1.225277,3.035367 c 0.33787,0.448224 0.747195,0.813683 1.149746,1.099085 1.820498,-2.076494 4.086049,-5.566419 4.155257,-10.134624 -0.45818,-0.01632 -0.962045,4.51e-4 -1.506604,0.04834"
     id="path3527"
     style="fill:#ed1c24"
     inkscape:connector-curvature="0" /><path
     d="m 18.170143,91.027999 c -0.611058,-0.210323 -1.221202,-0.450042 -1.797425,-0.730917 0.215291,0.66488 0.525561,1.255134 0.8381,1.761697 0.65357,0.419281 1.370919,0.749915 2.13665,0.98601 -0.496166,-0.559041 -0.92449,-1.220299 -1.177325,-2.01679"
     id="path3529"
     style="fill:#ed1c24"
     inkscape:connector-curvature="0" /><path
     d="m 15.473549,89.805893 c -0.414304,-0.248309 -0.799663,-0.524668 -1.156531,-0.828155 0.403906,0.722316 0.912738,1.384477 1.502991,1.965226 -0.140212,-0.362287 -0.263243,-0.737239 -0.34646,-1.137071"
     id="path3531"
     style="fill:#ed1c24"
     inkscape:connector-curvature="0" /><path
     d="m 183.28352,86.434914 c 0.95299,5.393651 6.11326,9.010671 11.506,8.059033 5.3941,-0.951626 9.00795,-6.113698 8.06084,-11.508252 -0.95208,-5.39093 -6.11506,-9.009756 -11.50961,-8.057667 -5.39364,0.952992 -9.00795,6.114601 -8.05723,11.506886"
     id="path3533"
     style="fill:#ffffff"
     inkscape:connector-curvature="0" /><path
     d="m 189.09283,82.441136 c 0.0855,-0.05337 0.23836,-0.151974 0.42652,-0.27364 0.81549,-0.540043 2.40984,-1.596154 2.45055,-1.627818 0.22614,-0.151974 0.44189,-0.296712 0.65356,-0.439634 0.70243,-0.475813 1.34288,-0.889665 1.94081,-1.234319 0.22977,-0.130718 0.45502,-0.252835 0.67484,-0.362287 0.94711,-0.478985 1.8621,-0.768461 2.93449,-0.86299 0.82771,0.597941 1.54958,1.338352 2.12355,2.194096 -2.46819,0.891933 -4.87261,2.320287 -9.90034,5.439324 -0.28811,-0.663967 -1.24473,-2.708357 -1.30398,-2.832732"
     id="path3535"
     style="fill:#ed1c24"
     inkscape:connector-curvature="0" /><path
     d="m 191.40996,87.765579 c -0.10182,-0.250126 -0.54683,-1.367296 -0.71735,-1.797425 5.13584,-3.196394 7.53256,-4.610728 10.00617,-5.485921 0.38174,0.689308 0.67122,1.44147 0.85937,2.242037 -1.41524,1.939905 -5.20142,3.845889 -10.14819,5.041309"
     id="path3537"
     style="fill:#ed1c24"
     inkscape:connector-curvature="0" /><path
     d="m 191.96718,79.642767 c -1.92859,-1.13978 -4.1159,-0.82951 -5.8084,-0.252835 0.63096,-0.813673 1.3985,-1.524689 2.28546,-2.078301 1.59435,-0.317517 3.79748,-0.367265 5.55014,1.027619 -0.63322,0.374953 -1.29673,0.812329 -2.0272,1.303517"
     id="path3539"
     style="fill:#ed1c24"
     inkscape:connector-curvature="0" /><path
     d="m 199.65036,88.848827 c -0.25193,0.176853 -0.51516,0.345105 -0.80102,0.502961 -0.56447,0.313442 -1.17779,0.584362 -1.811,0.816392 -0.27137,0.101816 -0.54683,0.196293 -0.82228,0.285402 -0.96022,0.317507 -3.17738,0.892837 -3.34383,0.931274 -0.037,-0.08498 -0.86932,-2.137553 -1.17778,-2.917314 3.83503,-0.951627 8.03279,-2.61699 10.03466,-4.782593 0.11941,1.00003 0.0678,1.989202 -0.13976,2.92727 -0.42244,0.917264 -1.09727,1.648171 -1.93899,2.236608"
     id="path3541"
     style="fill:#ed1c24"
     inkscape:connector-curvature="0" /><path
     d="m 192.74469,92.186787 0.79513,-0.206248 c 0.74448,-0.188615 1.5541,-0.399831 2.37276,-0.65086 -0.40481,0.850324 -1.02989,1.512936 -1.69793,2.025843 -0.89555,0.118956 -1.78341,0.09638 -2.62966,-0.0507 0.60744,-0.478071 1.1597,-1.118073 1.1597,-1.118073"
     id="path3543"
     style="fill:#ed1c24"
     inkscape:connector-curvature="0" /><path
     d="m 184.71912,82.177442 c 0.18363,-0.595673 0.41882,-1.172799 0.72684,-1.710584 1.50796,-0.674375 3.80653,-1.333374 5.81971,-0.34917 l -2.77213,1.832249 c -0.57939,-0.05152 -1.11129,-0.06743 -1.59977,-0.05563 -0.26234,0.0041 -0.51065,0.01858 -0.74992,0.04157 -0.5423,0.04793 -1.00093,0.135234 -1.42473,0.241525"
     id="path3545"
     style="fill:#ed1c24"
     inkscape:connector-curvature="0" /><path
     d="m 186.14024,82.684919 c 0.0787,4.560066 2.2339,8.077128 4.08832,10.277556 -2.90737,-1.007718 -5.1969,-3.506665 -5.76137,-6.734712 -0.19358,-1.10315 -0.16599,-2.188214 0.0453,-3.220801 0.44687,-0.140212 0.98917,-0.257362 1.62782,-0.322043"
     id="path3547"
     style="fill:#ed1c24"
     inkscape:connector-curvature="0" /><path
     d="m 194.69273,77.952987 c -1.29945,-1.144768 -2.83635,-1.531472 -4.24843,-1.563136 0.35776,-0.114881 0.72186,-0.213936 1.10677,-0.278617 2.01499,-0.355955 3.98745,0.01899 5.66277,0.926758 -0.88878,0.174585 -1.69703,0.487575 -2.52111,0.914995"
     id="path3549"
     style="fill:#ed1c24"
     inkscape:connector-curvature="0" /><path
     d="m 188.38951,82.689445 c 0.66171,1.374531 1.04255,2.216255 1.37544,2.981996 0.0954,0.232031 0.18725,0.457277 0.2845,0.691566 0.15649,0.383995 0.63004,1.577608 0.63004,1.577608 l 0.28088,0.700609 1.22798,3.035367 c -0.34012,0.448224 -0.74629,0.813683 -1.15018,1.099085 -1.8196,-2.076494 -4.08922,-5.566419 -4.153,-10.134624 0.45592,-0.01632 0.96204,4.51e-4 1.50434,0.04834"
     id="path3551"
     style="fill:#ed1c24"
     inkscape:connector-curvature="0" /><path
     d="m 196.82757,91.027999 c 0.6115,-0.210323 1.21713,-0.450042 1.79878,-0.730917 -0.22162,0.66488 -0.52556,1.255134 -0.84262,1.761697 -0.65267,0.419281 -1.37001,0.749915 -2.13259,0.98601 0.49527,-0.559041 0.92315,-1.220299 1.17643,-2.01679"
     id="path3553"
     style="fill:#ed1c24"
     inkscape:connector-curvature="0" /><path
     d="m 199.52643,89.805893 c 0.40887,-0.248309 0.79513,-0.524668 1.15381,-0.828155 -0.40481,0.722316 -0.91002,1.384477 -1.50253,1.965226 0.1375,-0.362287 0.26142,-0.737239 0.34872,-1.137071"
     id="path3555"
     style="fill:#ed1c24"
     inkscape:connector-curvature="0" /></svg>