<?xml version="1.0" encoding="UTF-8" standalone="no"?>
<!-- Generator: Adobe Illustrator 14.0.0, SVG Export Plug-In . SVG Version: 6.00 Build 43363)  -->

<svg
   xmlns:dc="http://purl.org/dc/elements/1.1/"
   xmlns:cc="http://creativecommons.org/ns#"
   xmlns:rdf="http://www.w3.org/1999/02/22-rdf-syntax-ns#"
   xmlns:svg="http://www.w3.org/2000/svg"
   xmlns="http://www.w3.org/2000/svg"
   xmlns:sodipodi="http://sodipodi.sourceforge.net/DTD/sodipodi-0.dtd"
   xmlns:inkscape="http://www.inkscape.org/namespaces/inkscape"
   version="1.2"
   id="Layer_1"
   x="0px"
   y="0px"
   width="107.5"
   height="107.5"
   viewBox="0 0 107.49999 107.49999"
   xml:space="preserve"
   inkscape:version="0.91 r13725"
   sodipodi:docname="Chelsea-logo-resize.svg"><metadata
     id="metadata3561"><rdf:RDF><cc:Work
         rdf:about=""><dc:format>image/svg+xml</dc:format><dc:type
           rdf:resource="http://purl.org/dc/dcmitype/StillImage" /><dc:title></dc:title></cc:Work></rdf:RDF></metadata><defs
     id="defs3559"><inkscape:perspective
       sodipodi:type="inkscape:persp3d"
       inkscape:vp_x="0 : 237.6755 : 1"
       inkscape:vp_y="0 : 999.99995 : 0"
       inkscape:vp_z="475.35099 : 237.6755 : 1"
       inkscape:persp3d-origin="237.6755 : 158.45033 : 1"
       id="perspective3563" /></defs><sodipodi:namedview
     pagecolor="#ffffff"
     bordercolor="#666666"
     borderopacity="1"
     objecttolerance="10"
     gridtolerance="10"
     guidetolerance="10"
     inkscape:pageopacity="0"
     inkscape:pageshadow="2"
     inkscape:window-width="1536"
     inkscape:window-height="801"
     id="namedview3557"
     showgrid="false"
     inkscape:zoom="1"
     inkscape:cx="104.73836"
     inkscape:cy="104.73836"
     inkscape:window-x="-8"
     inkscape:window-y="-8"
     inkscape:window-maximized="1"
     inkscape:current-layer="Layer_1"
     fit-margin-top="0"
     fit-margin-left="0"
     fit-margin-right="0"
     fit-margin-bottom="0" /><path
     d="m 107.49999,53.74988 c 0,29.68744 -24.065838,53.75011 -53.750109,53.75011 C 24.06403,107.49999 0,83.43732 0,53.74988 0,24.06539 24.06403,0 53.749881,0 83.434152,0 107.49999,24.06539 107.49999,53.74988"
     id="path3381"
     style="fill:#dba111"
     inkscape:connector-curvature="0" /><path
     d="m 105.70663,53.74988 c 0,28.69578 -23.260968,51.95697 -51.956974,51.95697 -28.696229,0 -51.9576501,-23.26097 -51.9576501,-51.95697 0,-28.69622 23.2614211,-51.95765 51.9576501,-51.95765 28.695546,0 51.956974,23.26143 51.956974,51.95765"
     id="path3383"
     style="fill:#034694"
     inkscape:connector-curvature="0" /><path
     d="m 90.776067,53.74988 c 0,20.44926 -16.577375,37.02392 -37.026411,37.02392 -20.450171,0 -37.027999,-16.57466 -37.027999,-37.02392 0,-20.45107 16.577828,-37.02799 37.027999,-37.02799 20.449491,-2.3e-4 37.026411,16.57692 37.026411,37.02799"
     id="path3385"
     style="fill:#dba111"
     inkscape:connector-curvature="0" /><path
     d="m 89.655952,53.74988 c 0,19.83052 -16.078261,35.90585 -35.906071,35.90585 -19.830522,0 -35.906071,-16.07555 -35.906071,-35.90585 0,-19.83029 16.075549,-35.90629 35.906071,-35.90629 19.82826,0 35.906071,16.07577 35.906071,35.90629"
     id="path3387"
     style="fill:#ffffff"
     inkscape:connector-curvature="0" /><path
     d="m 22.983717,84.72681 c 0.397342,0.37926 1.374757,1.31009 1.374757,1.31009 l 0.936935,-0.98647 -2.794747,-2.66448 -0.359577,0.37722 -3.752485,3.93385 1.424736,1.35599 c 0,0 1.203338,-1.26191 1.64365,-1.72167 0.367942,0.3494 1.250828,1.19113 1.250828,1.19113 l 0.937612,-0.98443 c 0,0 -0.881526,-0.84105 -1.249017,-1.19293 0.233155,-0.24583 0.351659,-0.37021 0.587308,-0.6183"
     id="path3389"
     style="fill:#dba111"
     inkscape:connector-curvature="0" /><path
     d="m 29.723622,89.21948 c -0.126417,-0.75443 -0.549994,-1.42089 -1.190898,-1.87635 -0.637964,-0.4532 -1.403706,-0.63209 -2.158137,-0.50838 -0.812549,0.13818 -1.542557,0.61173 -2.056819,1.33134 -0.512455,0.72435 -0.719381,1.56856 -0.581432,2.38428 0.126869,0.75217 0.547505,1.41433 1.186378,1.8698 0.639324,0.45456 1.410716,0.63638 2.164018,0.50974 0.812097,-0.13682 1.542558,-0.61128 2.055012,-1.33315 0.410234,-0.57238 0.62417,-1.22799 0.62417,-1.88337 2.26e-4,-0.16328 -0.01355,-0.33108 -0.04228,-0.49391 M 25.7104,91.3091 c -0.653118,-0.46202 -0.113978,-1.4279 0.266404,-1.9589 0.379479,-0.53529 1.115138,-1.363 1.768256,-0.90143 0.68161,0.48758 0.04475,1.54098 -0.260974,1.96862 -0.306658,0.4324 -1.090715,1.37906 -1.773686,0.89171 z"
     id="path3391"
     style="fill:#dba111"
     inkscape:connector-curvature="0" /><path
     d="m 34.116334,90.71117 c -1.503889,-0.761 -3.243422,-0.13728 -4.042407,1.44621 -0.400283,0.79152 -0.478529,1.66039 -0.220721,2.44218 0.238133,0.72662 0.754431,1.31935 1.454362,1.67147 0.699931,0.35641 1.487606,0.41837 2.215578,0.17933 0.781342,-0.25486 1.433105,-0.83222 1.8309,-1.62329 0.802377,-1.58643 0.269118,-3.35492 -1.237712,-4.1159 m -1.663325,4.40062 c -0.176391,0.0579 -0.343745,0.0398 -0.533711,-0.0547 -0.298287,-0.15197 -0.403218,-0.42358 -0.403218,-0.72707 0,-0.41996 0.201948,-0.91477 0.373141,-1.25218 0.296707,-0.58663 0.899169,-1.51316 1.614023,-1.15245 0.188611,0.0963 0.30146,0.22139 0.358674,0.39575 0.119634,0.36094 -5e-4,0.95367 -0.322941,1.58825 -0.320678,0.6348 -0.72639,1.08347 -1.085968,1.20243 z"
     id="path3393"
     style="fill:#dba111"
     inkscape:connector-curvature="0" /><path
     d="m 37.222259,92.88875 -0.276806,0.79333 c 0,0 0.707844,0.24831 0.922689,0.31932 -0.270925,0.77478 -1.519721,4.33934 -1.519721,4.33934 l 1.854193,0.65018 c 0,0 1.250828,-3.56139 1.521076,-4.33618 0.216199,0.0755 0.924269,0.32159 0.924269,0.32159 l 0.449359,-1.28046 -3.702732,-1.29899 -0.172327,0.49187"
     id="path3395"
     style="fill:#dba111"
     inkscape:connector-curvature="0" /><path
     d="m 44.920812,94.60906 -2.505726,-0.52919 -0.107194,0.50974 -1.11989,5.31812 2.550055,0.54072 c 0.815038,0.16825 1.351689,-0.0318 1.657665,-0.22977 0.388526,-0.25351 0.660811,-0.66918 0.765516,-1.16603 0.02874,-0.13523 0.04255,-0.2664 0.04255,-0.39485 0,-0.35913 -0.113752,-0.68297 -0.319549,-0.96113 0.287208,-0.22796 0.492097,-0.54999 0.577357,-0.95186 0.02171,-0.1038 0.03459,-0.22095 0.03459,-0.3433 0,-0.6807 -0.388747,-1.54504 -1.57535,-1.79245 m -0.689755,4.06005 c -0.02669,0.12144 -0.07553,0.28223 -0.167574,0.34239 -0.08503,0.0552 -0.248535,0.0622 -0.460213,0.0162 0,0 -0.09634,-0.0212 -0.210318,-0.0436 0.08141,-0.38378 0.135917,-0.6391 0.215296,-1.02333 0.109,0.0256 0.248309,0.0529 0.248309,0.0529 0.328822,0.0694 0.391918,0.31276 0.391918,0.48939 2.26e-4,0.071 -0.0088,0.13117 -0.0174,0.16599 z M 44.059889,95.8228 c 0.220042,0.05 0.381736,0.13071 0.443929,0.22479 0.02848,0.0432 0.04249,0.1038 0.04249,0.17527 0,0.0432 -0.0059,0.0932 -0.01719,0.15333 -0.03372,0.15581 -0.07938,0.37201 -0.512906,0.28314 0,0 -0.05405,-0.0143 -0.128455,-0.0301 0.0692,-0.32181 0.101995,-0.4826 0.172101,-0.80645 z"
     id="path3397"
     style="fill:#dba111"
     inkscape:connector-curvature="0" /><path
     d="m 49.546684,95.47521 -2.7217,5.57344 1.55432,0.11917 c 0,0 0.420636,-0.88786 0.588662,-1.24155 0.328823,0.0273 0.658323,0.0504 0.980581,0.0764 0.120544,0.37224 0.424259,1.31709 0.424259,1.31709 l 2.0679,0.16079 -2.31056,-7.16213 -0.583462,1.15675"
     id="path3399"
     style="fill:#dba111"
     inkscape:connector-curvature="0" /><path
     d="m 55.683681,99.924 c -0.0344,-0.81458 -0.190875,-4.52251 -0.190875,-4.52251 l -1.96387,0.0825 0.24831,5.95087 3.935665,-0.1635 -0.05902,-1.4279 c 0,2.2e-4 -1.40574,0.0601 -1.970205,0.0805"
     id="path3401"
     style="fill:#dba111"
     inkscape:connector-curvature="0" /><path
     d="m 61.070541,99.35388 c -0.126645,-0.80531 -0.70129,-4.47118 -0.70129,-4.47118 l -0.514715,0.0825 -1.428805,0.22253 0.922235,5.88597 3.893145,-0.61128 -0.22298,-1.41207 c 0,0 -1.38878,0.21913 -1.94759,0.30348"
     id="path3403"
     style="fill:#dba111"
     inkscape:connector-curvature="0" /><path
     d="m 72.340881,95.39493 c -0.0158,0.51019 -0.31661,0.94959 -0.785865,1.13526 -0.26007,0.10335 -0.508385,0.10335 -0.757145,-0.002 -0.38174,-0.1635 -0.735435,-0.5769 -0.947785,-1.10813 -0.249895,-0.62666 -0.300785,-1.15901 -0.13682,-1.53306 0.112615,-0.26188 0.333565,-0.4575 0.67098,-0.59273 0.36568,-0.14542 0.712815,-0.0115 1.188635,0.26866 l 0.43647,0.25759 0.724805,-1.14319 -0.430135,-0.28268 c -0.790615,-0.51947 -1.769385,-0.62553 -2.61609,-0.28721 -0.785865,0.31321 -1.39511,0.89939 -1.717145,1.64885 -0.326785,0.76008 -0.326785,1.62985 0.0045,2.45484 0.625525,1.56359 2.3931,2.33386 3.9386,1.71511 1.11695,-0.44619 1.749035,-1.2947 1.829545,-2.45371 l 0.03665,-0.5172 -1.422705,-0.10561 -0.01675,0.54547"
     id="path3405"
     style="fill:#dba111"
     inkscape:connector-curvature="0" /><path
     d="m 76.925372,93.76937 c -0.40232,-0.71508 -2.209705,-3.95715 -2.209705,-3.95715 l -0.452745,0.25533 -1.264626,0.70625 2.906466,5.20007 3.436325,-1.91955 -0.695635,-1.24834 c 2.3e-4,0 -1.22979,0.68568 -1.72008,0.96339"
     id="path3407"
     style="fill:#dba111"
     inkscape:connector-curvature="0" /><path
     d="m 80.747277,85.74946 -0.42131,0.30824 -0.73815,0.54253 2.4121,3.28775 c 0.11036,0.14881 0.11036,0.24831 0.100635,0.30621 -0.02305,0.16961 -0.19969,0.35346 -0.35596,0.46609 -0.07372,0.0525 -0.244235,0.12415 -0.41882,0.0968 -0.12461,-0.018 -0.222985,-0.0857 -0.310505,-0.20399 l -2.383835,-3.25088 -1.58869,1.16308 2.372295,3.2346 c 0.35212,0.47876 0.789265,0.7619 1.299455,0.8397 0.57238,0.0893 1.22301,-0.10562 1.827735,-0.55249 1.24381,-0.90934 1.22346,-2.11698 0.680705,-2.85693 l -2.475655,-3.3807"
     id="path3409"
     style="fill:#dba111"
     inkscape:connector-curvature="0" /><path
     d="m 87.984942,84.55427 c -0.36568,-0.37948 -0.816625,-0.55 -1.29018,-0.52421 -0.0278,-0.36795 -0.170515,-0.71961 -0.45501,-1.01406 -0.49685,-0.5129 -1.60769,-0.91251 -2.630335,0.083 l -1.83972,1.77911 4.14531,4.27964 1.87138,-1.81417 c 0.59816,-0.57939 0.729775,-1.14046 0.73543,-1.50321 0.01,-0.46541 -0.18137,-0.92088 -0.536875,-1.2861 m -3.13171,-0.14429 c 0.06174,0.0658 0.13728,0.1427 0.13728,0.24967 0,0.0877 -0.0477,0.19607 -0.191325,0.33334 0,0 -0.0389,0.0393 -0.09137,0.092 -0.232255,-0.24085 -0.34239,-0.35392 -0.577805,-0.59591 0.41498,-0.3806 0.587305,-0.218 0.723215,-0.0791 z m 0.98149,1.47336 c 0.336055,-0.3243 0.659445,-0.0393 0.751715,0.0574 0.08933,0.0896 0.19087,0.21597 0.19087,0.32543 0,0 0,0 0,0.004 -0.002,0.10109 -0.08752,0.24108 -0.241525,0.39056 0,0 -0.07147,0.0694 -0.15627,0.14926 -0.27115,-0.28042 -0.454555,-0.46858 -0.726165,-0.74742 0.08029,-0.0798 0.181375,-0.17889 0.181375,-0.17889 z"
     id="path3411"
     style="fill:#dba111"
     inkscape:connector-curvature="0" /><path
     d="m 22.970826,84.17479 c 0.162145,0.15604 1.372493,1.31053 1.372493,1.31053 l 0.399155,-0.42086 -2.230055,-2.12671 -0.08978,0.0941 -3.480877,3.6514 0.857555,0.81843 c 0,0 1.483085,-1.55432 1.642741,-1.72438 0.162151,0.15423 1.253317,1.19338 1.253317,1.19338 l 0.399832,-0.4195 c 0,0 -1.091167,-1.03848 -1.253317,-1.19271 0.144738,-0.15152 0.985558,-1.03372 1.128937,-1.18366"
     id="path3413"
     style="fill:#ffffff"
     inkscape:connector-curvature="0" /><path
     d="m 28.304994,87.66087 c -0.552709,-0.3935 -1.214193,-0.55067 -1.863467,-0.44212 -0.712817,0.12234 -1.352141,0.53846 -1.804666,1.17529 -0.453881,0.63887 -0.635927,1.37951 -0.514939,2.08962 0.108774,0.65108 0.474684,1.22572 1.027845,1.61786 0.556101,0.39576 1.220299,0.55045 1.872509,0.44122 0.708978,-0.11918 1.349206,-0.5371 1.801048,-1.16964 0.361163,-0.51019 0.552032,-1.088 0.552032,-1.66038 0,-0.14271 -0.01242,-0.28721 -0.03572,-0.42969 -0.110586,-0.65018 -0.477174,-1.2264 -1.03463,-1.62216 m -0.503181,2.98448 c -0.374049,0.52309 -1.34762,1.6726 -2.316664,0.9833 -0.965658,-0.68546 -0.199013,-1.98151 0.173456,-2.50799 0.373597,-0.52647 1.34762,-1.67395 2.311917,-0.9885 0.96927,0.69157 0.204888,1.9883 -0.168709,2.51319 z"
     id="path3415"
     style="fill:#ffffff"
     inkscape:connector-curvature="0" /><path
     d="m 33.940164,91.06147 c -1.304877,-0.6599 -2.81668,-0.11082 -3.51774,1.2757 -0.353019,0.69699 -0.422673,1.45549 -0.198561,2.14321 0.205797,0.62463 0.653119,1.13549 1.259876,1.44079 0.608112,0.31096 1.289953,0.36614 1.917967,0.15944 0.683196,-0.22569 1.253543,-0.73182 1.606557,-1.42836 0.699027,-1.38629 0.2404,-2.93133 -1.068099,-3.59078 m -2.196805,4.34228 c -1.056568,-0.53145 -0.494365,-1.92928 -0.202405,-2.50347 0.291052,-0.5769 1.081893,-1.85826 2.13688,-1.32207 0.280876,0.14045 0.468352,0.34941 0.557682,0.62282 0.207152,0.63299 -0.128907,1.45097 -0.348272,1.88562 -0.218231,0.4315 -0.679121,1.18819 -1.31279,1.3958 -0.271151,0.0918 -0.55158,0.064 -0.831095,-0.0787 z"
     id="path3417"
     style="fill:#ffffff"
     inkscape:connector-curvature="0" /><path
     d="m 37.592465,93.01675 -0.149711,0.42358 c 0,0 0.738378,0.25962 0.923365,0.32474 -0.08186,0.23181 -1.521075,4.33573 -1.521075,4.33573 l 1.118529,0.39304 c 0,0 1.440342,-4.10369 1.52085,-4.33617 0.184992,0.0645 0.923366,0.32248 0.923366,0.32248 l 0.192906,-0.54501 -2.967068,-1.04142 -0.04115,0.12303"
     id="path3419"
     style="fill:#ffffff"
     inkscape:connector-curvature="0" /><path
     d="m 44.841884,94.98989 -2.123758,-0.44822 -0.02848,0.1289 -1.038021,4.93864 2.166958,0.45501 c 0.550897,0.11533 1.009298,0.0579 1.363903,-0.17436 0.306653,-0.20014 0.512449,-0.51947 0.596576,-0.91704 0.0215,-0.10855 0.03438,-0.21212 0.03438,-0.31321 0,-0.43194 -0.214162,-0.79763 -0.596581,-1.05973 0.4428,-0.12733 0.75986,-0.4532 0.861851,-0.93694 0.0174,-0.0755 0.02782,-0.16486 0.02782,-0.26595 -2.26e-4,-0.49413 -0.260072,-1.19519 -1.264628,-1.4071 m -0.742443,0.43715 c 0.357088,0.0755 0.604268,0.21213 0.730008,0.40639 0.07236,0.11036 0.108097,0.23949 0.108097,0.38965 0,0.0733 -0.0095,0.14926 -0.02668,0.2318 -0.137949,0.65765 -0.66917,0.65063 -0.974699,0.58392 0,0 -0.323393,-0.0667 -0.510869,-0.10606 0.04362,-0.20263 0.290148,-1.37499 0.332666,-1.57694 0.135685,0.0276 0.341482,0.0712 0.341482,0.0712 z m -0.16328,2.2045 c 0.603365,0.12687 0.698571,0.60291 0.698571,0.89216 0,0.12415 -0.01945,0.2128 -0.02191,0.2275 -0.06083,0.2854 -0.169612,0.4783 -0.336735,0.58618 -0.176623,0.11782 -0.431039,0.14044 -0.752851,0.0737 0,0 -0.386263,-0.0825 -0.593188,-0.1237 0.04455,-0.21236 0.333343,-1.58033 0.376989,-1.78884 0.176848,0.0369 0.629148,0.13298 0.629148,0.13298 z"
     id="path3421"
     style="fill:#ffffff"
     inkscape:connector-curvature="0" /><path
     d="m 49.898794,95.64663 -2.470219,5.05646 0.711462,0.0529 c 0,0 0.522857,-1.09886 0.59206,-1.2393 0.150388,0.0115 1.359604,0.10561 1.507959,0.1176 0.04725,0.14496 0.42448,1.31709 0.42448,1.31709 l 1.22527,0.0945 -1.834745,-5.68809 -0.156267,0.28879 m -0.271151,2.03308 c 0.119408,0.38196 0.349176,1.1183 0.425163,1.3587 -0.244019,-0.0181 -0.805996,-0.0617 -1.047521,-0.0801 0.110812,-0.22728 0.447548,-0.91952 0.622358,-1.27864 z"
     id="path3423"
     style="fill:#ffffff"
     inkscape:connector-curvature="0" /><path
     d="m 55.308496,100.3313 c -0.0097,-0.2465 -0.19132,-4.52252 -0.19132,-4.52252 l -0.12619,0.005 -1.05747,0.0432 0.217325,5.17316 3.155905,-0.13388 -0.0278,-0.64566 c 5e-4,2.3e-4 -1.742245,0.0737 -1.970435,0.0812"
     id="path3425"
     style="fill:#ffffff"
     inkscape:connector-curvature="0" /><path
     d="m 60.746241,99.80483 c -0.03935,-0.24379 -0.70332,-4.47661 -0.70332,-4.47661 l -0.12664,0.0203 -1.043455,0.16508 0.80215,5.1139 3.120175,-0.49255 -0.10064,-0.63909 c -2.25e-4,4.5e-4 -1.72506,0.27137 -1.94827,0.30892"
     id="path3427"
     style="fill:#ffffff"
     inkscape:connector-curvature="0" /><path
     d="m 72.729631,95.40375 c -0.0185,0.67369 -0.41385,1.24427 -1.030105,1.49258 -0.35867,0.1427 -0.712825,0.13772 -1.05521,-0.009 -0.482375,-0.20399 -0.90369,-0.68727 -1.159015,-1.32162 -0.28743,-0.72435 -0.333795,-1.3587 -0.132975,-1.83293 0.15627,-0.35867 0.453205,-0.62711 0.88741,-0.79944 0.568085,-0.22751 1.089585,0.0318 1.531025,0.29377 l 0.11036,0.0644 0.317515,-0.49865 -0.10629,-0.0717 c -0.685005,-0.44868 -1.531025,-0.54231 -2.259225,-0.2508 -0.68998,0.27658 -1.225725,0.78677 -1.503885,1.43988 -0.285405,0.66172 -0.28269,1.42972 0.0093,2.15362 0.54457,1.36616 2.082155,2.03715 3.432485,1.49914 0.979225,-0.39305 1.510675,-1.10338 1.58169,-2.11743 l 0.0093,-0.13071 -0.62507,-0.0432 -0.0072,0.13229"
     id="path3429"
     style="fill:#ffffff"
     inkscape:connector-curvature="0" /><path
     d="m 76.773847,94.30037 c -0.12189,-0.21372 -2.209695,-3.95444 -2.209695,-3.95444 l -0.114885,0.064 -0.919521,0.51495 2.522011,4.51641 2.756975,-1.5394 -0.313665,-0.56537 c 4.5e-4,4.6e-4 -1.52605,0.85078 -1.72122,0.96385"
     id="path3431"
     style="fill:#ffffff"
     inkscape:connector-curvature="0" /><path
     d="m 80.662022,86.29448 -0.106515,0.0783 -0.422675,0.3105 2.181885,2.97272 c 0.14609,0.20014 0.20353,0.39983 0.172325,0.59545 -0.05201,0.35415 -0.3745,0.62598 -0.50974,0.72255 -0.154685,0.11669 -0.43782,0.21325 -0.708975,0.16916 -0.230215,-0.0339 -0.418825,-0.1556 -0.57012,-0.35822 l -2.154065,-2.93813 -0.95412,0.70355 2.140045,2.91732 c 0.287885,0.3935 0.639545,0.62553 1.04367,0.68546 0.63729,0.0963 1.235455,-0.25849 1.53623,-0.47785 1.032595,-0.75919 1.046395,-1.70901 0.6002,-2.31328 l -2.248145,-3.06748"
     id="path3433"
     style="fill:#ffffff"
     inkscape:connector-curvature="0" /><path
     d="m 87.704067,84.82587 c -0.40051,-0.4143 -0.912965,-0.50883 -1.444415,-0.3044 0.0421,-0.12392 0.06717,-0.25034 0.06717,-0.37676 0,-0.30733 -0.12235,-0.60721 -0.368395,-0.86027 -0.33312,-0.34262 -1.19565,-0.76597 -2.077855,0.0918 l -1.5593,1.51067 3.59984,3.7163 1.59412,-1.5455 c 0.401865,-0.38603 0.611735,-0.80215 0.616705,-1.22301 0.0063,-0.36749 -0.142925,-0.71508 -0.42787,-1.00885 m -2.324585,-0.16147 c 0,0.2603 -0.16961,0.47401 -0.306205,0.60744 0,0 -0.239035,0.23225 -0.37405,0.36522 -0.14541,-0.14925 -0.97967,-1.00884 -1.122375,-1.16127 0.0968,-0.0936 0.249215,-0.23881 0.249215,-0.23881 0.487125,-0.47446 0.914775,-0.5059 1.307365,-0.0991 0.17979,0.1868 0.24605,0.36319 0.24605,0.52647 z m 0.991435,2.69682 c -0.147445,-0.15197 -1.12011,-1.15856 -1.26937,-1.31053 0.12845,-0.1237 0.46157,-0.44777 0.46157,-0.44777 0.635255,-0.61219 1.2791,0.0367 1.30646,0.0667 0.200145,0.2067 0.298515,0.40232 0.298515,0.59681 0,0.004 0,0.006 0,0.007 -0.0025,0.21371 -0.12642,0.43737 -0.361385,0.66963 5e-4,0 -0.309825,0.29828 -0.43579,0.41769 z"
     id="path3435"
     style="fill:#ffffff"
     inkscape:connector-curvature="0" /><path
     d="m 29.869716,18.34089 -2.172609,0.58595 0.249438,0.77818 c 0.3001,0.94349 0.02848,1.93131 -0.706936,2.57628 -0.409104,0.35867 -0.881531,0.52331 -1.402576,0.48758 -0.791745,-0.0531 -1.685485,-0.5656 -2.389711,-1.3716 -0.829967,-0.95072 -1.244044,-1.86595 -1.191356,-2.64164 0.03664,-0.56559 0.311636,-1.06244 0.83924,-1.52469 0.582786,-0.51042 1.321837,-0.49052 2.324357,-0.29173 l 0.743577,0.147 0.480792,-2.0808 -0.74855,-0.1825 c -1.609503,-0.39825 -3.287978,-0.007 -4.485435,1.04118 -2.345161,2.05208 -2.536486,5.40338 -0.444837,7.79535 1.943749,2.22213 5.316304,2.46434 7.514469,0.54163 1.583268,-1.3829 2.134843,-3.15229 1.597062,-5.11142 l -0.206925,-0.74877"
     id="path3437"
     style="fill:#dba111"
     inkscape:connector-curvature="0" /><path
     d="m 35.769483,7.44369 -2.2192,1.04503 c 0,0 1.238845,2.62536 1.66468,3.53018 -0.632987,0.29761 -1.246077,0.58731 -1.879745,0.8865 -0.42742,-0.90414 -1.666943,-3.53063 -1.666943,-3.53063 l -2.922067,1.37951 4.450153,9.43944 2.924555,-1.37883 c 0,0 -1.378826,-2.91957 -1.822304,-3.86623 0.633443,-0.29648 1.246076,-0.58596 1.880879,-0.88492 0.444832,0.94394 1.821852,3.86397 1.821852,3.86397 L 40.925216,16.54798 36.476424,7.1108 35.769483,7.44369"
     id="path3439"
     style="fill:#dba111"
     inkscape:connector-curvature="0" /><path
     d="m 45.663486,13.29166 c -0.142476,-0.70287 -0.287209,-1.41795 -0.427877,-2.11991 0.902787,-0.1816 3.301771,-0.66601 3.301771,-0.66601 L 48.115389,8.40911 c 0,0 -2.400118,0.4851 -3.303583,0.66759 C 44.681771,8.43399 44.574125,7.89418 44.443187,7.25237 45.380798,7.06331 47.94804,6.54452 47.94804,6.54452 l -0.423125,-2.09572 -0.768,0.15423 -5.905422,1.19429 2.064511,10.23029 6.727471,-1.36005 -0.422673,-2.09459 c 0,0 -2.613372,0.5267 -3.557316,0.71869"
     id="path3441"
     style="fill:#dba111"
     inkscape:connector-curvature="0" /><path
     d="m 55.205596,4.20614 -3.23528,-0.0672 -0.01605,0.78021 -0.202175,9.65338 6.79124,0.14248 0.0486,-2.26036 c 0,0 -2.60727,-0.0561 -3.560035,-0.0755 0.02715,-1.27775 0.17368,-8.17302 0.17368,-8.17302"
     id="path3443"
     style="fill:#dba111"
     inkscape:connector-curvature="0" /><path
     d="m 65.689396,9.4693 c -0.839235,-0.61648 -1.08483,-0.86366 -1.00003,-1.2004 0.0416,-0.17458 0.231805,-0.73204 0.83472,-0.58278 0.36274,0.0932 0.723675,0.28427 0.884465,1.06493 L 66.585176,9.61766 68.721371,8.89579 68.588396,8.22322 C 68.325616,6.90229 67.208441,5.77788 65.806091,5.42757 64.801766,5.17813 63.794951,5.31156 62.968606,5.80796 c -0.758505,0.45433 -1.29199,1.17145 -1.502985,2.02018 -0.5362,2.13937 0.905955,3.16947 1.85939,3.85199 0.977645,0.69903 1.22618,0.97267 1.07692,1.55658 -0.0468,0.1825 -0.15423,0.32656 -0.32248,0.42855 -0.195625,0.11511 -0.44122,0.15672 -0.640905,0.10471 -0.513585,-0.12642 -0.73589,-0.36907 -0.952315,-1.03327 l -0.262335,-0.79627 -2.143435,0.87655 0.207605,0.68048 c 0.40187,1.32229 1.361185,2.15565 2.931115,2.54892 1.76441,0.44144 3.904905,-0.36998 4.43816,-2.48854 0.55633,-2.23231 -0.962935,-3.35084 -1.967945,-4.08854"
     id="path3445"
     style="fill:#dba111"
     inkscape:connector-curvature="0" /><path
     d="m 73.407626,15.03527 c 0.823406,0.41612 3.005741,1.51972 3.005741,1.51972 l 0.965205,-1.90824 c 0,0 -2.184145,-1.10361 -3.004835,-1.51836 0.293765,-0.58527 0.54275,-1.07738 0.836065,-1.66152 0.85168,0.43014 3.19254,1.61312 3.19254,1.61312 l 0.96249,-1.90824 -6.074576,-3.06975 -0.35121,0.69541 -4.357435,8.6183 6.125466,3.09372 0.96588,-1.90712 c 0,0 -2.380211,-1.20243 -3.240256,-1.6355 0.32203,-0.64046 0.65289,-1.29086 0.974925,-1.93154"
     id="path3447"
     style="fill:#dba111"
     inkscape:connector-curvature="0" /><path
     d="m 85.505677,16.00997 -9.733665,5.03656 1.862105,1.61945 c 0,0 1.606565,-0.85417 2.19048,-1.16082 0.434205,0.37812 1.074205,0.9349 1.5014,1.30601 -0.209415,0.621 -0.80441,2.3671 -0.80441,2.3671 l 2.56543,2.23208 4.161585,-12.2715 -1.742925,0.87112"
     id="path3449"
     style="fill:#dba111"
     inkscape:connector-curvature="0" /><path
     d="m 29.50494,18.97591 -1.147253,0.31186 0.08413,0.25962 c 0.36455,1.14522 0.03572,2.34313 -0.860947,3.12718 -0.514944,0.45185 -1.115368,0.65877 -1.778658,0.61603 -0.940327,-0.0631 -1.940357,-0.62756 -2.747482,-1.5507 -0.922914,-1.05657 -1.380412,-2.10115 -1.319805,-3.02112 0.04752,-0.69857 0.389881,-1.33134 1.017668,-1.88043 0.824311,-0.72073 1.862113,-0.58889 2.768287,-0.40955 l 0.248991,0.0482 0.251024,-1.08755 -0.249443,-0.0622 c -1.446444,-0.35505 -2.947393,-0.008 -4.018884,0.93015 -2.11992,1.85668 -2.290209,4.88911 -0.394633,7.05833 1.754461,2.00594 4.795259,2.22575 6.780391,0.4921 1.439433,-1.26237 1.923165,-2.80153 1.435589,-4.57974 l -0.06897,-0.25216"
     id="path3451"
     style="fill:#ffffff"
     inkscape:connector-curvature="0" /><path
     d="m 35.991106,7.91249 -1.745865,0.82545 c 0,0 1.469737,3.11881 1.663094,3.52882 -0.373598,0.17707 -2.447377,1.15562 -2.823689,1.33134 -0.192906,-0.41069 -1.66174,-3.52928 -1.66174,-3.52928 l -1.984454,0.9349 4.006223,8.49527 1.983094,-0.93354 c 0,0 -1.626458,-3.44763 -1.822304,-3.86488 0.376087,-0.17707 2.447382,-1.15313 2.823464,-1.33089 0.195394,0.41612 1.822309,3.86579 1.822309,3.86579 l 1.980606,-0.9358 -4.005997,-8.49663 -0.234741,0.10945"
     id="path3453"
     style="fill:#ffffff"
     inkscape:connector-curvature="0" /><path
     d="m 45.254607,13.90521 c -0.08141,-0.4082 -0.550898,-2.73256 -0.632309,-3.14076 0.43443,-0.0873 3.301314,-0.66668 3.301314,-0.66668 l -0.216876,-1.0733 c 0,0 -2.865981,0.5769 -3.3029,0.66532 -0.07938,-0.40028 -0.493005,-2.44534 -0.57238,-2.84517 0.437823,-0.0898 3.502816,-0.70694 3.502816,-0.70694 l -0.217333,-1.07375 -5.651453,1.14046 1.858945,9.20787 5.705502,-1.15177 -0.216876,-1.07376 c -4.52e-4,2.3e-4 -3.117005,0.62915 -3.55845,0.71848"
     id="path3455"
     style="fill:#ffffff"
     inkscape:connector-curvature="0" /><path
     d="m 54.673021,4.71702 -2.19093,-0.0475 -0.0045,0.25871 -0.194035,9.13347 5.75164,0.12189 0.02555,-1.21917 c 0,0 -3.11361,-0.0658 -3.559575,-0.0753 0.0113,-0.48735 0.1721,-8.1721 0.1721,-8.1721"
     id="path3457"
     style="fill:#ffffff"
     inkscape:connector-curvature="0" /><path
     d="m 65.650501,7.18226 c 0.696535,0.17436 1.098855,0.63977 1.26937,1.46408 l 0.05925,0.28812 1.14273,-0.38626 -0.0432,-0.22548 c -0.2257,-1.12553 -1.18864,-2.08712 -2.39808,-2.39129 -0.869545,-0.21687 -1.735695,-0.10312 -2.441955,0.32091 -0.63887,0.384 -1.08936,0.98894 -1.266885,1.70244 -0.450035,1.79449 0.71961,2.63034 1.65767,3.30087 0.949595,0.67912 1.52198,1.14273 1.27819,2.1059 -0.09679,0.40096 -0.35867,0.63005 -0.56062,0.75058 -0.31299,0.18748 -0.69699,0.24605 -1.034405,0.16328 -0.692695,-0.17368 -1.04933,-0.54615 -1.319805,-1.37702 l -0.0882,-0.26549 -1.185925,0.48373 0.06898,0.22773 c 0.34465,1.13323 1.18253,1.8517 2.56136,2.1968 1.514745,0.37835 3.35039,-0.30711 3.80269,-2.11155 0.471295,-1.89128 -0.77026,-2.8065 -1.77504,-3.54103 -0.852805,-0.6296 -1.367975,-1.05046 -1.19271,-1.7461 0.153555,-0.6219 0.668495,-1.16013 1.466575,-0.96022"
     id="path3459"
     style="fill:#ffffff"
     inkscape:connector-curvature="0" /><path
     d="m 74.980492,10.7683 c 0.39983,0.20105 3.18915,1.61063 3.18915,1.61063 l 0.496395,-0.97855 -5.144886,-2.59912 -0.11782,0.23202 -4.11975,8.15289 5.193051,2.62445 0.494815,-0.97809 c 0,0 -2.835226,-1.43356 -3.236866,-1.63731 0.18725,-0.37224 1.257155,-2.48606 1.44305,-2.85852 0.395765,0.19991 3.004841,1.51836 3.004841,1.51836 l 0.4973,-0.97855 c 0,0 -2.61179,-1.31731 -3.007556,-1.51836 0.184091,-0.36319 1.124646,-2.22666 1.308276,-2.58985"
     id="path3461"
     style="fill:#ffffff"
     inkscape:connector-curvature="0" /><path
     d="m 85.745167,16.47358 -9.0516,4.68444 1.01156,0.87949 c 0,0 1.919555,-1.01767 2.191155,-1.1615 0.225245,0.19675 1.816205,1.58078 2.036695,1.77278 -0.09588,0.28608 -0.806895,2.36484 -0.806895,2.36484 l 1.717825,1.49348 3.497385,-10.31305 -0.596125,0.27952 m -4.80091,3.86352 c 0.4281,-0.2214 1.52198,-0.78971 2.18912,-1.13685 -0.248315,0.7092 -0.65764,1.87703 -0.814585,2.33159 -0.34714,-0.30394 -1.026945,-0.89464 -1.374535,-1.19474 z"
     id="path3463"
     style="fill:#ffffff"
     inkscape:connector-curvature="0" /><path
     d="m 79.428832,52.33962 c -0.74244,-1.96613 -3.298605,-2.8203 -5.715001,-1.90824 -1.00749,0.37902 -1.83271,1.01269 -2.395365,1.76079 1.595475,-4.55373 8.094536,-5.52006 8.094536,-9.7565 0,-7.10085 -10.083971,-5.11186 -8.616716,10e-4 0,-2.31983 3.692106,-2.74499 3.692106,0 0,2.74544 -6.437776,4.54581 -6.437776,9.1839 0,5.11299 5.1139,5.58609 4.596245,10.26239 -0.08797,0.80622 -0.955025,1.86573 -2.21015,1.86573 -7.83266,0 -5.036555,-9.64207 -7.773405,-12.57613 l 0.14315,-1.98106 c 1.582135,0.97018 5.779685,-1.30261 3.01637,-4.76721 0,1.7038 -3.54782,1.6095 -3.54782,-1.6095 0,-4.35562 4.07203,-2.08283 4.269915,-1.12102 -0.19517,-1.58621 -0.268895,-2.5928 -0.0071,-3.50689 -2.195225,0.70785 -2.40057,-0.56107 -2.12286,-1.05204 0.317965,-0.56786 0.74335,-1.23115 1.598645,-1.23115 0.462245,0 0.73973,0.0644 0.903235,0.17707 0.273415,0.18703 0.47333,-0.24017 0.434205,0.15717 0.23497,-0.35754 0.140895,0.0889 0.367495,-0.26979 0.2309,-0.35619 0.54185,-0.75895 1.088225,-1.2956 l -0.0235,-0.80351 0.63955,0.23451 0.61399,-0.99301 c -0.662615,-1.37386 -1.561785,-0.71215 -2.223945,-2.4155 -0.55384,-0.14383 -9.179375,0.79424 -8.929255,-2.64662 -0.70332,0 -2.369355,0.38536 -1.338345,1.78635 -0.8017,0.0966 -1.37951,-0.8139 -2.588045,1.64863 1.51384,-0.28382 0.730235,1.40845 0.730235,1.88992 0,3.11995 -4.153445,3.06726 -4.153445,1.60588 -1.000935,0.97267 -0.43308,3.0996 1.08076,3.62358 0,0 -0.575775,2.27506 -1.99689,3.71744 -2.109495,-0.0842 -5.493812,-0.45075 -7.440727,-2.29114 -0.839686,-0.79311 -1.506373,-1.22528 -2.074231,-1.44735 l 0,-1.03124 c 0.831321,-0.40684 1.742925,-1.1269 2.690261,-2.33024 0.739056,-0.90256 1.139114,-2.05999 1.031463,-3.2891 -0.01401,-0.14677 -0.03571,-0.29173 -0.06151,-0.43308 -0.0079,-0.045 -0.01899,-0.0887 -0.0294,-0.13343 -0.02079,-0.099 -0.0448,-0.19403 -0.0735,-0.29195 -0.01381,-0.0473 -0.02669,-0.0957 -0.04162,-0.14248 -0.03213,-0.0981 -0.0674,-0.192 -0.105613,-0.28517 -0.01606,-0.0391 -0.02735,-0.0807 -0.04613,-0.11737 -0.05269,-0.12551 -0.111489,-0.24357 -0.175037,-0.36252 -0.02714,-0.0482 -0.05586,-0.0932 -0.08232,-0.1375 -0.04367,-0.0715 -0.08504,-0.14383 -0.130939,-0.2128 -0.0371,-0.0547 -0.07599,-0.11013 -0.115112,-0.16532 -0.04024,-0.0527 -0.08277,-0.10674 -0.124155,-0.15966 -0.04593,-0.0565 -0.09114,-0.11647 -0.140212,-0.17255 -0.03258,-0.0371 -0.06784,-0.0728 -0.102221,-0.10697 -0.123025,-0.13591 -0.256453,-0.26233 -0.395757,-0.38309 -0.01154,-0.01 -0.02535,-0.0228 -0.0389,-0.0333 -0.07779,-0.0665 -0.160791,-0.13003 -0.242433,-0.19064 -0.02079,-0.0158 -0.04249,-0.0312 -0.0658,-0.0475 -0.0873,-0.0615 -0.176623,-0.12167 -0.269796,-0.17912 -0.0056,-0.004 -0.01088,-0.006 -0.01494,-0.01 -0.886504,-0.54275 -1.95777,-0.8268 -3.08919,-0.73701 -2.724189,0.21687 -4.749123,2.49306 -4.521614,5.08427 0.177074,2.01883 1.666035,3.63126 3.601866,4.14553 -0.679122,0.37902 -1.252861,0.59771 -1.382445,0.59771 0.0215,0.0138 0.04953,0.0299 0.08006,0.0495 0.0079,0.004 0.01719,0.009 0.02669,0.014 0.02622,0.0169 0.05744,0.0344 0.08933,0.0516 0.0079,0.005 0.01766,0.009 0.02535,0.0138 0.04367,0.022 0.08865,0.0448 0.139308,0.069 0.0079,0.004 0.0174,0.007 0.02535,0.0104 0.0448,0.0208 0.09046,0.0425 0.138852,0.0611 0.01381,0.006 0.02874,0.012 0.04362,0.017 0.118505,0.0495 0.251932,0.0941 0.3978,0.13569 0.02079,0.006 0.04275,0.0104 0.06061,0.0161 0.05902,0.0149 0.11895,0.0287 0.180917,0.0436 0.02037,0.004 0.04115,0.008 0.0631,0.0124 0.07825,0.014 0.160113,0.0278 0.242207,0.0378 0.007,0 0.01401,0.004 0.02079,0.004 l 0,0.5864 c -0.03074,0.007 -0.05858,0.01 -0.08729,0.0145 -0.886053,0.14587 -1.461829,0.41861 -1.722126,1.20741 -0.258711,0.79175 0.007,1.07783 0.421996,1.63325 -0.35053,0.62666 -1.269149,0.86094 -0.07033,2.24543 -0.08729,0.52285 0.0233,1.35553 0.784283,1.60814 0.248309,0.0841 0.455235,0.12891 0.673471,0.16667 l -10e-4,10.37932 c -0.758952,0.40209 -1.133453,0.90369 -1.340604,1.37114 0,0 -0.609246,-1.3526 -0.568992,1.32681 0.692243,-0.5371 0.419732,0.62191 0.419732,0.62191 -0.942589,1.2212 0.254642,1.15494 0.254642,1.15494 0.811877,-0.81097 0.646334,0.3675 0.646334,0.3675 0,1.43717 0.58369,1.9996 0.588663,2.00186 l 0,7.90729 -0.689524,0.002 0.0066,2.18188 1.205822,-0.002 c -0.676637,0.28087 -1.123056,0.94915 -1.057922,1.68775 0.08187,0.93105 0.941907,1.62284 1.921359,1.54731 0.978543,-0.0787 1.705837,-0.89487 1.622388,-1.82819 -0.0554,-0.64407 -0.482146,-1.16964 -1.062444,-1.41117 l 1.112649,-0.003 -0.0046,-2.18188 -0.663521,0.003 0.001,-7.01558 c 0.13682,0.0751 0.28472,0.1271 0.445285,0.16215 0.064,0.012 0.127546,0.0208 0.192905,0.0251 0.02874,0.005 0.05857,0.005 0.08729,0.005 -0.178429,-0.92224 0.372468,-1.53352 0.372468,-1.53352 0.282908,-0.42583 0.692013,-0.75782 1.157655,-0.99211 1.392395,-0.69857 3.292498,-0.52195 3.860356,0.61535 3.598251,-0.94847 6.690381,-4.56526 6.690381,-4.56526 l 1.7712,3.01456 c -3.7552,1.25557 -11.934545,8.36614 -6.256857,10.8289 -0.002,0.71689 -0.09815,6.03726 -3.509827,5.61459 -4.913305,-0.60517 -6.138582,1.42768 -5.195089,3.71291 -0.443478,1.92701 1.04051,2.59596 1.04051,2.59596 -0.222758,-1.1131 0.312539,-2.03533 2.343129,-2.02358 -0.01042,2.03059 1.301033,2.39673 1.301033,2.39673 0.0093,-1.73886 1.217584,-2.38293 2.291113,-2.37818 -0.0079,1.43287 1.656762,1.97744 1.656762,1.97744 0,0 -0.421992,-1.65134 1.459791,-1.97744 4.763595,-0.82997 0.289695,-5.72925 7.533915,-7.07936 0,0 -3.607295,-0.54389 -3.607295,-2.5159 0,-1.79495 3.26536,-3.02225 4.389545,-3.02225 2.305585,4.40515 4.810405,4.43997 5.466915,4.47141 1.02106,1.14046 0.678895,4.98454 -0.795135,4.909 -5.396135,-0.28969 -5.19871,2.99263 -4.59399,3.66407 -0.06897,1.27412 0.92224,2.01 0.92224,2.01 0,-1.36571 1.299445,-1.74971 2.965935,-1.65947 -0.08751,1.6683 0.97538,1.91751 0.97538,1.91751 0.02915,-1.67893 1.27118,-1.96365 2.153615,-1.91751 -0.06445,1.17664 1.10338,1.52311 1.10338,1.52311 0,0 -0.114885,-1.49349 1.4573,-1.49349 2.98245,-0.002 -1.348975,-6.39367 4.471865,-12.71498 -5.113225,2.36687 -7.833565,-3.54963 -7.833565,-4.68512 2.628075,3.07539 11.148901,3.68939 11.148901,-1.56405 0,-5.01869 -5.515991,-6.88871 -2.935181,-8.80826 1.500946,-1.11604 4.452641,1.13866 2.763766,3.46776 2.421825,-0.89735 3.77125,-3.24252 3.03039,-5.20752 m -32.683231,0.15831 c -1.927692,1.13345 -3.220129,2.56746 -4.977531,3.19479 -0.266855,0.0936 -0.479662,0.12031 -0.664649,0.10833 l 0,-9.79585 c 0.465637,0.0436 1.673953,0.20896 3.086701,0.7931 1.399184,0.76348 1.399184,2.34154 -0.366588,2.71559 1.116046,2.13688 4.982057,1.09072 5.824684,-0.64972 0.412723,-0.0366 0.777498,0.70015 1.120568,1.39669 -0.54253,0.28178 -1.652693,0.84173 -4.023185,2.23707 z m 21.57662,-16.23908 c -0.21213,0.28767 -0.421095,0.57374 -0.604275,0.81889 0.488935,0.81255 1.408685,1.32048 2.4164,1.22731 1.392625,-0.13185 2.41776,-1.36797 2.289755,-2.76195 -0.0075,-0.0506 -0.01445,-0.0963 -0.02125,-0.14587 -0.14926,0.72186 -1.00003,1.33315 -2.08215,1.43311 -0.81934,0.0769 -1.561105,-0.15831 -1.998475,-0.57149 z"
     id="path3465"
     style="fill:#d1d3d4"
     inkscape:connector-curvature="0" /><path
     d="m 37.176124,30.36385 c 0,0.002 -0.0036,0.005 -0.0036,0.008 l -0.001,0 c 0.02171,-0.0518 0.04454,-0.10358 0.07101,-0.15424 -0.0251,0.0482 -0.04793,0.0954 -0.06671,0.14587 m 0.08888,41.08645 c 0.0021,-10e-4 0.0059,-10e-4 0.0066,-0.004 l -5e-4,0 c -0.0015,0.003 -0.0036,0.003 -0.0059,0.004 z m -0.06106,-45.26862 0.0025,0 -0.0025,0 z m -0.737019,45.02755 1.205822,-0.002 c -0.147222,0.0615 -0.280198,0.14224 -0.401186,0.23858 0.119859,-0.046 0.246954,-0.0737 0.381737,-0.0737 0.604725,0 1.094332,0.48984 1.094332,1.09501 0,0.60427 -0.489607,1.09411 -1.094332,1.09411 -0.489608,0 -0.899165,-0.32113 -1.037796,-0.76551 l 0,0.0991 c 0.08277,0.93331 0.940552,1.62556 1.921133,1.54505 0.97764,-0.0764 1.704708,-0.89488 1.623974,-1.82593 -0.05721,-0.64136 -0.483054,-1.1676 -1.063352,-1.40913 l 1.111976,-0.005 -0.0051,-2.18211 -0.663521,0.004 0,-7.01581 c -0.648366,-0.33651 -1.022867,-1.06968 -0.878133,-1.82253 0.415206,0 0.786546,0.10787 1.03508,0.27794 -0.383322,0.84331 0.570122,1.7366 0.570122,1.7366 -0.178429,-0.92179 0.371339,-1.53171 0.371339,-1.53171 0.285171,-0.42674 0.69405,-0.75918 1.157655,-0.99392 1.394206,-0.69903 3.293175,-0.52241 3.861033,0.61444 3.598479,-0.94711 6.690833,-4.56549 6.690833,-4.56549 l 1.7721,3.01253 c 4.15367,0 2.707905,-3.11045 2.43653,-3.3816 0.956155,0 2.30106,0.70355 2.30106,2.26148 0,3.82553 -11.121088,4.37056 -11.121088,9.01407 0,1.94962 1.932444,2.69117 1.932444,2.69117 0,4.23372 -2.907144,6.74872 -4.895668,6.74872 -3.179875,0 -5.614817,-0.64407 -5.614817,2.82324 l 1.108579,0 c -1.053176,1.05295 -0.07033,2.59755 -0.07033,2.59755 -0.221849,-1.11175 0.315028,-2.03218 2.345161,-2.02245 l 1.26666,0 c -0.804862,0.80441 -0.334698,2.02561 0.03572,2.39831 0.007,-1.74112 1.214192,-2.38474 2.289075,-2.37841 0.389881,0 0.919291,0 0.919291,0 -0.25012,0.2465 0.151749,1.39104 0.738379,1.97541 0,0 -0.424028,-1.64931 1.459787,-1.97541 4.762009,-0.82997 0.287213,-5.72925 7.531879,-7.08139 0,0 -3.605035,-0.54231 -3.605035,-2.51636 0,-1.792 3.263775,-3.02203 4.386155,-3.02203 0.884695,-0.12641 1.72732,-0.0945 2.448735,0.0602 0.29332,2.84405 3.55822,2.70587 4.269915,2.70587 2.769865,2.77032 -0.704225,7.21731 -0.704225,7.21731 -4.251145,0 -5.93369,0.58663 -5.93369,3.06228 l 0.804635,0 c -0.45094,0.4532 -0.19517,1.69928 0.11534,2.01023 0,-1.36662 1.30171,-1.74835 2.968195,-1.66038 l 0.876325,0 c -0.427645,0.42719 -0.35211,1.46635 0.10064,1.91751 0.0249,-1.67915 1.268695,-1.9641 2.152485,-1.91751 l 0.73046,0 c -0.273415,0.27613 0,1.15155 0.374725,1.5265 0,0 -0.115335,-1.49461 1.455945,-1.49642 2.98358,0 -1.35033,-6.39368 4.4739,-12.71476 -5.112995,2.368 -7.835595,-3.55031 -7.835595,-4.68602 2.628525,3.07652 11.151161,3.69029 11.151161,-1.56179 0,-4.23757 -3.931146,-6.22926 -3.605486,-7.90231 0.113075,-1.28068 1.18728,-2.28455 2.499166,-2.28455 1.38471,0 2.50708,1.12486 2.50708,2.50979 0,1.05589 -0.648365,1.95755 -1.571955,2.32798 0.002,0 0.002,-0.002 0.002,-0.002 -0.002,0.002 -0.0052,0.005 -0.0052,0.01 2.419565,-0.89759 3.770805,-3.24343 3.03265,-5.20798 -0.744705,-1.96613 -3.30086,-2.82233 -5.715451,-1.91073 -1.011565,0.38174 -1.833845,1.01292 -2.39582,1.76238 1.592765,-4.5535 8.093181,-5.51825 8.093181,-9.75651 0,-7.10084 -10.084421,-5.11095 -8.617166,0.002 0,-0.0769 0.0045,-0.15265 0.014,-0.2266 0.25713,-2.89018 5.423496,-3.48088 5.423496,0.28653 0,3.21878 -6.616886,5.00286 -6.616886,9.33338 0,4.44766 4.887975,5.56009 4.887975,10.24046 0,0.55746 -0.29467,2.95757 -3.541485,2.95757 -3.133065,0 -4.63921,-1.75129 -5.494735,-4.03675 l 0,0 c -1.59593,-3.08309 -1.00975,-7.89598 -2.80673,-9.82028 l 0.1427,-1.97925 c 1.58304,0.97131 5.781945,-1.30352 3.023835,-4.76812 0,1.70562 -3.55076,1.60905 -3.55076,-1.60859 0,-4.35563 4.06977,-2.08283 4.26765,-1.12192 -0.19539,-1.5853 -0.272055,-2.59461 -0.0045,-3.50531 -2.19748,0.70581 -2.39966,-0.56198 -2.126245,-1.0543 0.321585,-0.56899 0.746515,-1.23116 1.600225,-1.23116 1.23409,0 1.155845,0.45298 1.09094,1.09117 0.47129,-0.71282 0.605175,-1.24856 1.70199,-2.32119 l -0.0233,-0.80554 0.63638,0.23655 0.618745,-0.99415 c -0.66171,-1.37385 -1.561325,-0.70943 -2.22621,-2.41413 -0.551345,-0.14474 -7.803475,-0.81391 -7.55245,-4.2559 -0.64181,0 -2.38881,2.21309 -1.20674,3.39721 0,0 -0.935565,0 -1.505695,0 -0.80531,0.0952 -2.68461,-0.46677 -3.89066,1.9944 2.969565,-2.9691 4.89725,4.11433 -0.57238,4.11433 l 0,-10e-4 0,0 c -0.807125,0.002 -1.499365,-0.33448 -1.546175,-0.90369 -0.545021,2.39084 2.900575,3.13487 2.900575,3.13487 0,0.71033 -1.72596,4.55577 -2.56475,5.39365 0.56538,0.5656 0.74109,3.97998 -1.872959,3.97998 0.942586,-2.54892 -1.829771,-4.70863 -4.522521,-6.13721 0.0025,0 0.0025,0 0.0036,0 -0.487663,-0.18545 -0.951945,-0.41069 -1.38208,-0.68207 -1.653149,-0.75533 -2.996925,-1.1805 -2.996925,-1.1805 l 0,-1.99802 c 0.831321,-0.40774 1.74293,-1.1278 2.690267,-2.33114 0.740185,-0.90165 1.138205,-2.05908 1.030108,-3.28911 -0.01154,-0.14699 -0.03325,-0.28969 -0.06242,-0.43352 -0.0066,-0.0448 -0.01698,-0.0873 -0.02648,-0.13207 -0.02171,-0.0991 -0.04593,-0.19653 -0.0744,-0.29174 -0.01288,-0.0486 -0.02669,-0.0943 -0.04362,-0.14247 -0.0312,-0.0982 -0.06695,-0.19404 -0.103581,-0.28721 -0.01627,-0.0396 -0.02986,-0.0773 -0.04613,-0.11646 -0.05405,-0.12303 -0.113301,-0.24402 -0.17572,-0.36003 -0.02489,-0.0495 -0.05541,-0.0941 -0.08141,-0.14135 -0.04367,-0.071 -0.08594,-0.14134 -0.131395,-0.21031 -0.03777,-0.0552 -0.07553,-0.11172 -0.116016,-0.16668 -0.04003,-0.0527 -0.08028,-0.10696 -0.12302,-0.15762 -0.04568,-0.0599 -0.09182,-0.1185 -0.141346,-0.17459 -0.03213,-0.0371 -0.06649,-0.0728 -0.101087,-0.1081 -0.12438,-0.13455 -0.256453,-0.26097 -0.39531,-0.37948 -0.01401,-0.0113 -0.02576,-0.0267 -0.03956,-0.0366 -0.07802,-0.0656 -0.159657,-0.1289 -0.243562,-0.1886 -0.02217,-0.0145 -0.04275,-0.0333 -0.06445,-0.0482 -0.08865,-0.0631 -0.176623,-0.12099 -0.270248,-0.17911 -0.0054,-0.003 -0.01109,-0.007 -0.01627,-0.009 -0.886047,-0.54547 -1.957769,-0.8268 -3.088738,-0.73837 -0.243562,0.0195 -0.480565,0.0631 -0.712365,0.11262 -1.56834,0.6011 -2.709717,2.43698 -2.709717,4.60981 0,2.04755 1.015185,3.79365 2.442861,4.49041 0.01945,0.005 0.04024,0.0134 0.06061,0.0183 -0.680481,0.37903 -1.253994,0.59794 -1.384256,0.59794 0.02217,0.014 0.05091,0.0299 0.08186,0.0506 0.0079,0.004 0.01627,0.008 0.02535,0.0129 0.02735,0.0159 0.05609,0.0319 0.09046,0.0502 0.0084,0.005 0.01627,0.009 0.02576,0.0124 0.04069,0.0217 0.0882,0.0473 0.137497,0.0715 0.009,0.003 0.01832,0.007 0.02535,0.0117 0.04321,0.0204 0.08978,0.0387 0.140212,0.0595 0.0138,0.006 0.02669,0.0118 0.04162,0.0174 0.120989,0.0477 0.252836,0.0943 0.400284,0.13546 0.02037,0.005 0.04003,0.0104 0.06083,0.0163 0.05722,0.0149 0.11715,0.0287 0.179112,0.0416 0.02079,0.006 0.04255,0.009 0.06445,0.0138 0.07803,0.0149 0.158307,0.0285 0.242659,0.0387 0.0059,0 0.01242,10e-4 0.01832,0.005 0.51946,0.0426 1.133453,-0.0864 1.133453,-0.0864 l 0,1.15902 c -0.09317,0 -0.909566,-0.26324 -1.133453,-0.48713 -0.02761,0.004 -0.05744,0.009 -0.08729,0.0149 -0.884015,0.14474 -1.460243,0.41679 -1.719863,1.20696 -0.258716,0.79175 0.007,1.07782 0.421765,1.63324 -0.353014,0.6244 -1.268918,0.86005 -0.07236,2.24543 -0.08503,0.52173 0.02417,1.35644 0.784283,1.6095 0.248986,0.0841 0.456143,0.12642 0.673471,0.16532 0.450488,0 1.133453,0.37631 1.133453,1.31143 l 0,8.91975 c 0.410234,0.0238 0.855297,0.0792 1.259876,0.11398 l 0,-9.79698 c 0.465642,0.0448 1.675082,0.21032 3.085572,0.7922 0.01627,0.008 0.02874,0.017 0.04275,0.0262 -0.001,-0.001 -0.0025,-0.001 -0.0025,-0.002 0.128906,0.0158 0.259845,0.0436 0.389429,0.0823 0.939423,0.28878 1.524242,1.10405 1.304877,1.82592 -0.219366,0.72051 -1.162176,1.07149 -2.100014,0.7836 1.114009,2.13869 4.982278,1.0923 5.824684,-0.64814 0.410685,-0.0366 0.776138,0.70038 1.11989,1.39579 0,0 0.968818,0.37111 3.368253,0.37111 0,0 -9.713762,6.20167 -12.523206,6.20167 -1.200397,0 -3.862844,0 -3.862844,0.90776 -0.731589,0 -1.786577,1.24337 -1.786577,1.95415 0.691792,-0.53982 1.255355,-0.53982 1.255355,-0.53982 0.589796,0 0.922006,0.17618 0.922006,0.17618 -0.216199,0.21348 -1.185469,1.30736 -1.185469,2.15678 0.811645,-0.813 1.165793,-0.80961 1.165793,-0.80961 0,0 0.848287,-0.10946 1.150645,0.19448 -0.204437,0.20286 -0.561977,0.93829 -0.561977,1.80829 0,0 0.503407,-0.97177 1.133453,-0.97177 l 0,9.32389 c 0,0.28494 -1.286556,0.55836 -1.816423,0.55836 m 0.395079,-27.032 c -0.239487,0.009 -0.353245,-0.30213 -0.355277,-0.41475 -0.0059,-0.11398 0.0839,-0.43104 0.322941,-0.44054 0.568987,-0.0195 1.707192,0.25351 1.711719,0.36568 0.0046,0.11127 -1.110616,0.46903 -1.679383,0.48961 z m -0.367039,-1.53894 c -0.329951,-0.0233 -0.438951,-0.46926 -0.427872,-0.62598 0.01042,-0.15378 0.184084,-0.5803 0.51381,-0.5561 0.787675,0.059 2.314406,0.60812 2.301515,0.76325 -0.0097,0.1574 -1.600907,0.47695 -2.387453,0.41883 z m -0.13546,-1.97179 c -0.349401,-0.0918 -0.378124,-0.59206 -0.335832,-0.75737 0.04362,-0.16464 0.313894,-0.5864 0.664649,-0.49549 0.832682,0.21823 2.363482,1.11355 2.319836,1.27774 -0.04254,0.16463 -1.815294,0.19335 -2.648653,-0.0249 z m 2.579676,-5.55579 c 0.144733,-0.34511 0.113978,-0.8164 0.02422,-1.25988 -0.01493,0 -0.02987,10e-4 -0.045,10e-4 -1.002068,0 -1.813939,-0.81255 -1.813939,-1.81281 -0.01494,-0.17119 0.0093,-0.33718 0.06694,-0.4896 l 10e-4,0 c 0,-0.004 0.002,-0.007 0.0036,-0.008 0.216651,-0.7585 0.912738,-1.31709 1.742931,-1.31709 0.999122,0 1.813261,0.81256 1.813261,1.81507 -4.56e-4,1.1563 -0.814365,2.22078 -1.792683,3.07178 z"
     id="path3467"
     style="fill:#034694"
     inkscape:connector-curvature="0" /><path
     d="m 66.158431,35.51755 c 0.485315,0.81256 1.407325,1.32049 2.414815,1.22664 1.394885,-0.13027 2.417305,-1.36707 2.289755,-2.76264 -0.0052,-0.0493 -0.01425,-0.0968 -0.0208,-0.14609 -0.1479,0.72096 -1.002745,1.33383 -2.0826,1.43401 -0.8216,0.0769 -1.56224,-0.15876 -1.99961,-0.57148 -0.21077,0.28857 -0.422215,0.57442 -0.601555,0.81956"
     id="path3469"
     style="fill:#ed1c24"
     inkscape:connector-curvature="0" /><path
     d="m 62.771856,30.81434 0.87587,0.0461 -0.43827,0.60111 c -2.3e-4,0 -0.58505,0.18499 -0.4376,-0.64724 m -2.08939,0 1.261915,0 c 0,0 -0.04545,1.01835 0.87587,1.10949 l -0.195615,0.32429 c -2.3e-4,0 -2.47633,-0.64723 -1.94217,-1.43378 z"
     id="path3471"
     style="fill:#ffffff"
     inkscape:connector-curvature="0" /><path
     d="m 39.008835,39.51428 c 0.04362,-0.16418 -1.487154,-1.05973 -2.319835,-1.27774 -0.350756,-0.0909 -0.621003,0.33085 -0.66465,0.49549 -0.04254,0.16531 -0.0138,0.66556 0.335833,0.75737 0.833358,0.21824 2.606135,0.18952 2.648652,0.0249 m -0.125514,1.52786 c 0.01288,-0.15513 -1.51384,-0.70422 -2.301515,-0.76324 -0.329725,-0.0242 -0.503407,0.40231 -0.513809,0.55609 -0.01109,0.15672 0.09769,0.60269 0.427871,0.62598 0.786321,0.0583 2.377502,-0.2612 2.387453,-0.41883 z m -1.733431,-4.6071 0,0.58528 c 0.223892,0.22411 1.040284,0.48712 1.133458,0.48712 l 0,-1.15901 c 2.26e-4,2.3e-4 -0.613767,0.12891 -1.133458,0.0866 z m -0.319544,5.70958 c -0.239041,0.01 -0.328822,0.32656 -0.322941,0.44054 0.0021,0.11262 0.116015,0.42403 0.355277,0.41475 0.568766,-0.0204 1.683903,-0.37834 1.679382,-0.48984 -0.0046,-0.11194 -1.142731,-0.38512 -1.711718,-0.36545 z m -1.171449,15.45025 c -0.941461,1.22007 -0.263463,2.33294 -0.263463,2.33294 0,-0.84964 0.96927,-1.94329 1.185469,-2.15678 0,2.3e-4 -0.331989,-0.17616 -0.922006,-0.17616 z m 3.003704,2.58849 c -0.144733,0.75262 0.229767,1.48557 0.878134,1.82253 0.137954,0.0715 0.28766,0.128 0.444837,0.15899 0.06739,0.0154 0.130488,0.0235 0.195841,0.031 0.02874,4.5e-4 0.05767,10e-4 0.08639,0.002 0,0 -0.953444,-0.89261 -0.570121,-1.73637 -0.248761,-0.17075 -0.619875,-0.27839 -1.035081,-0.27839 z M 36.939572,35.28192 c -1.427676,-0.69676 -2.442856,-2.44286 -2.442856,-4.49018 0,-2.17261 1.141371,-4.00871 2.709711,-4.60981 -2.354655,0.52172 -4.015717,2.61427 -3.807888,4.973 0.176171,1.99803 1.635957,3.59577 3.541033,4.12699 z m 15.157389,-5.01123 c 1.5152,-0.28517 2.029235,1.062 2.029235,1.54415 0,1.82638 -1.42248,2.56226 -2.601615,2.56927 l 0,10e-4 c 5.46963,0 3.542165,-7.08343 0.57238,-4.11432 z M 48.44104,45.98893 c 2.614056,0 2.438336,-3.41416 1.872966,-3.97999 0.838785,-0.83811 2.56475,-4.68331 2.56475,-5.39365 0,0 -3.45012,-0.74402 -2.899223,-3.13826 -0.0011,-0.002 -0.0011,-0.003 -0.0011,-0.005 l -0.04613,-0.008 c -0.940322,0.99212 -0.368619,3.06138 1.123053,3.57768 0,0 -0.57577,2.27505 -1.996887,3.71766 -1.41479,-0.055 -3.397885,-0.24108 -5.139681,-0.90777 2.692525,1.42904 5.465107,3.58876 4.522291,6.13745 z M 38.2293,29.59609 c 0.67596,-0.054 1.271181,0.42516 1.328847,1.07104 0.05609,0.64272 -0.447321,1.2108 -1.124411,1.2644 -0.678443,0.0545 -1.274799,-0.42471 -1.328847,-1.06991 0,1.00003 0.811872,1.81281 1.813939,1.81281 0.01494,0 0.02987,-10e-4 0.04501,-10e-4 0.08978,0.44347 0.120537,0.91477 -0.02417,1.25987 0.978544,-0.851 1.792453,-1.91548 1.792453,-3.07178 0,-1.00251 -0.813909,-1.81507 -1.813257,-1.81507 -0.834488,0 -1.53329,0.56199 -1.747,1.32546 0.158533,-0.41973 0.559719,-0.73566 1.057471,-0.77591 z m 19.264021,-1.3198 c -1.18208,-1.18412 0.56492,-3.3972 1.20673,-3.3972 -0.701965,0 -3.7457,1.99282 -2.71243,3.3972 0.570125,0 1.5057,0 1.5057,0 z M 42.263337,47.95235 c 0.937617,0.28789 1.880428,-0.0631 2.100019,-0.7836 0.219591,-0.72187 -0.365459,-1.53714 -1.304877,-1.82592 -0.129584,-0.0387 -0.260523,-0.0665 -0.389429,-0.0823 1.356441,0.77342 1.340609,2.32503 -0.405713,2.69184 z m -2.720113,-9.9632 c 0,0 1.343776,0.42516 2.996919,1.18049 -0.331983,-0.20579 -0.643388,-0.43782 -0.923135,-0.70128 -0.839239,-0.79311 -1.50683,-1.22528 -2.073784,-1.44486 l 0,0.96565 0,0 z m 0.50974,17.28386 c 2.809443,0 12.523207,-6.2019 12.523207,-6.2019 -2.39921,0 -3.36826,-0.37111 -3.36826,-0.37111 -0.541625,0.28224 -1.653144,0.83992 -4.022507,2.23548 -1.927918,1.13481 -3.220129,2.56973 -4.977982,3.19593 -0.267759,0.097 -0.480566,0.11963 -0.664198,0.10945 -0.404579,-0.0348 -0.849642,-0.0898 -1.259876,-0.1142 l 0,-8.91953 c 0,-0.93534 -0.682965,-1.31143 -1.133458,-1.31143 l 0,10.37999 c -0.759855,0.40277 -1.133679,0.90324 -1.33925,1.37114 0,0 -1.448481,-0.19313 -1.407097,2.48763 0,-0.71101 1.054982,-1.95437 1.786576,-1.95437 0,-0.90708 2.662447,-0.90708 3.862845,-0.90708 z m 24.230017,14.3593 c -0.711465,0 -3.976595,0.13818 -4.26991,-2.70586 -0.721645,-0.15491 -1.564045,-0.18613 -2.448745,-0.0604 2.3083,4.40538 4.81403,4.44066 5.469635,4.47435 1.020385,1.13821 0.67845,4.98184 -0.79559,4.90449 -5.396135,-0.28743 -5.198255,2.99557 -4.593755,3.667 0,-2.47542 1.68277,-3.06228 5.933685,-3.06228 2.25e-4,0 3.474775,-4.44698 0.70468,-7.21731 z m 1.10971,10.62967 -0.73046,0 c -0.06173,1.17937 1.105645,1.52651 1.105645,1.52651 -0.375185,-0.37496 -0.6486,-1.25061 -0.375185,-1.52651 z m -6.828335,1.66038 c -0.3105,-0.31095 -0.56627,-1.55703 -0.11533,-2.01046 l -0.80464,0 c -0.06716,1.27616 0.91997,2.01046 0.91997,2.01046 z M 74.672247,40.93677 c 0,-3.76854 -5.168396,-3.17649 -5.423496,-0.28269 0.22796,-2.12104 3.681025,-2.43404 3.681025,0.22276 0,2.74545 -6.44004,4.544 -6.44004,9.18412 0,5.11299 5.112545,5.5861 4.595345,10.26059 -0.08752,0.80916 -0.954575,1.86663 -2.2097,1.86663 -2.691395,0 -4.13196,-1.14228 -4.968485,-2.75653 0.85552,2.28523 2.36122,4.03699 5.49473,4.03699 3.24682,0 3.54149,-2.3999 3.54149,-2.95735 0,-4.68015 -4.887975,-5.7928 -4.887975,-10.24069 4.55e-4,-4.33097 6.617106,-6.11506 6.617106,-9.33383 z M 36.561228,59.11844 c 0,1.44305 0.588662,2.00277 0.588662,2.00277 0,-0.86999 0.357545,-1.60543 0.561982,-1.80828 -0.302137,-0.30417 -1.150644,-0.19449 -1.150644,-0.19449 z M 73.906287,51.1424 c -1.311891,0 -2.386101,1.00388 -2.499176,2.28456 0.0597,-0.30734 0.2646,-0.60608 0.664655,-0.90505 1.502985,-1.11717 4.448796,1.133 2.768516,3.45849 0.923585,-0.37089 1.57241,-1.27209 1.57241,-2.3282 5e-4,-1.38493 -1.1217,-2.5098 -2.506405,-2.5098 z m -11.497401,29.11958 -0.876325,0 c -0.08956,1.66672 0.97696,1.91752 0.97696,1.91752 -0.452525,-0.45117 -0.528055,-1.49055 -0.100635,-1.91752 z M 37.653297,71.37275 c -0.13546,0 -0.261877,0.0278 -0.382414,0.0737 -0.416566,0.31706 -0.67053,0.80961 -0.655381,1.34988 0.138857,0.44438 0.548187,0.76551 1.037795,0.76551 0.604725,0 1.094333,-0.48983 1.094333,-1.0941 0,-0.60518 -0.489608,-1.09502 -1.094333,-1.09502 z m 6.155995,8.09364 -1.26666,0 c -0.01088,2.03014 1.302167,2.3983 1.302167,2.3983 -0.370205,-0.37269 -0.840143,-1.59411 -0.03552,-2.3983 z m 3.927973,-12.83823 c 0,-4.64351 11.121086,-5.18853 11.121086,-9.01406 0,-1.55794 -1.344905,-2.26149 -2.30106,-2.26149 0.2707,0.27116 1.717145,3.3816 -2.436525,3.3816 -3.756105,1.25716 -11.935448,8.36705 -6.257987,10.83184 -0.0026,0.71464 -0.09883,6.03546 -3.508696,5.61731 -4.912172,-0.60789 -6.137675,1.4227 -5.194859,3.70793 0,-3.46731 2.434942,-2.82323 5.614817,-2.82323 1.988524,0 4.895668,-2.51478 4.895668,-6.74874 0,0 -1.932444,-0.74154 -1.932444,-2.69116 z m -9.453691,2.84585 0,-9.32411 c -0.630277,0 -1.133453,0.97176 -1.133453,0.97176 l 0,7.95501 0,-0.0509 -0.688851,0.002 0.0059,1.00433 c 0.529867,-2.3e-4 1.816423,-0.27364 1.816423,-0.55836 z m 1.914123,12.01483 c 0,0 -0.98307,-1.5446 0.07033,-2.59755 l -1.108579,0 c -0.445059,1.92927 1.038247,2.59755 1.038247,2.59755 z m 6.855695,-2.00233 c 0,0 -0.529411,0 -0.919292,0 -0.007,1.43288 1.65767,1.97542 1.65767,1.97542 -0.58663,-0.58392 -0.988499,-1.72891 -0.738378,-1.97542 z"
     id="path3473"
     style="fill:#6a7ab5"
     inkscape:connector-curvature="0" /><line
     x1="92.247391"
     y1="43.091038"
     x2="92.247391"
     y2="43.091038"
     id="line3475"
     style="fill:none" /><path
     d="m 16.129828,64.0064 -0.06128,-0.18816 -0.02623,-0.19584 c -0.08978,-0.67053 -0.251932,-1.91955 -1.216229,-2.14299 -0.257808,-0.0599 -0.524212,-0.0291 -0.80848,0.0877 0.07734,-0.2967 0.0683,-0.56537 -0.02489,-0.81165 -0.355503,-0.92449 -1.614023,-0.91273 -2.290204,-0.90391 l -0.198787,0 -0.195846,-0.0362 c -0.664198,-0.12235 -1.9032643,-0.3537 -2.4116493,0.49481 -0.136594,0.2266 -0.1908685,0.48893 -0.167575,0.79446 -0.2573565,-0.16599 -0.51675,-0.24039 -0.778402,-0.22773 -0.9896281,0.0527 -1.3679726,1.25354 -1.5703771,1.89987 l -0.061736,0.18771 -0.091819,0.17436 c -0.324296,0.59545 -0.925629,1.69928 -0.2761285,2.44693 0.173456,0.19969 0.4068415,0.33357 0.704909,0.40412 -0.235649,0.19517 -0.387849,0.41838 -0.454337,0.6737 -0.2584855,0.9548 0.767774,1.68504 1.3173166,2.07627 l 0.161247,0.11895 0.138852,0.14045 c 0.4656425,0.49277 1.330885,1.40461 2.2420373,1.01857 0.241078,-0.1038 0.440994,-0.28359 0.601107,-0.54479 0.113978,0.28494 0.277935,0.49616 0.498881,0.64181 0.829967,0.53755 1.840625,-0.21145 2.384286,-0.61128 l 0.160791,-0.11783 0.178434,-0.0875 c 0.610601,-0.2924 1.748129,-0.83222 1.662191,-1.81846 -0.02284,-0.26459 -0.133428,-0.50747 -0.331306,-0.74018 0.30462,-0.018 0.556547,-0.11036 0.760989,-0.27613 0.770715,-0.62259 0.369523,-1.81552 0.154232,-2.4571"
     id="path3477"
     style="fill:#ffffff"
     inkscape:connector-curvature="0" /><path
     d="m 11.794557,64.80629 c 5.536572,3.27237 3.831412,-0.32611 3.709742,-0.85824 -0.122569,-0.53032 -0.169156,-4.51076 -3.709742,0.85824"
     id="path3479"
     style="fill:#ed1c24"
     inkscape:connector-curvature="0" /><path
     d="m 11.446516,65.6254 c -1.401216,6.27427 1.494165,3.54284 1.961162,3.26468 0.466771,-0.28065 4.238022,-1.55613 -1.961162,-3.26468"
     id="path3481"
     style="fill:#ed1c24"
     inkscape:connector-curvature="0" /><path
     d="m 10.557523,65.54941 c -6.4027178,0.60427 -2.9080408,2.515 -2.4975813,2.87186 0.4115885,0.35574 2.7877303,3.55009 2.4975813,-2.87186"
     id="path3483"
     style="fill:#ed1c24"
     inkscape:connector-curvature="0" /><path
     d="M 10.356704,64.67806 C 7.8012252,58.77671 7.0642066,62.68999 6.8513996,63.19272 c -0.212802,0.49843 -2.5165799,3.74751 3.5053044,1.48534"
     id="path3485"
     style="fill:#ed1c24"
     inkscape:connector-curvature="0" /><path
     d="m 101.80919,63.13935 -0.0914,-0.17436 -0.0627,-0.18771 c -0.2024,-0.64656 -0.58075,-1.84718 -1.56766,-1.9001 -0.264593,-0.0124 -0.522623,0.0613 -0.779983,0.2257 0.0235,-0.3035 -0.0339,-0.56582 -0.166895,-0.79243 -0.51065,-0.84896 -1.747905,-0.61738 -2.412105,-0.49504 l -0.19788,0.0362 -0.19788,0 c -0.673695,-0.009 -1.933345,-0.0204 -2.287495,0.90414 -0.09634,0.24605 -0.10335,0.51495 -0.0278,0.81142 -0.27997,-0.11668 -0.546825,-0.14699 -0.806445,-0.0875 -0.963395,0.22299 -1.128935,1.47224 -1.21419,2.14277 l -0.0296,0.19606 -0.0597,0.18816 c -0.216425,0.64136 -0.61626,1.83429 0.15423,2.45756 0.20444,0.16554 0.454565,0.25803 0.760995,0.27612 -0.197885,0.23271 -0.308245,0.47582 -0.33131,0.74019 -0.08525,0.98624 1.05046,1.52605 1.662195,1.81846 l 0.176615,0.0875 0.1608,0.11782 c 0.545465,0.40029 1.557025,1.14884 2.38428,0.61128 0.22389,-0.14563 0.38649,-0.35686 0.49911,-0.6418 0.161245,0.2612 0.359125,0.44098 0.602465,0.54501 0.9107,0.38581 1.776845,-0.52602 2.242033,-1.0188 l 0.13999,-0.14021 0.15898,-0.11918 c 0.55135,-0.39101 1.57693,-1.12147 1.31935,-2.07604 -0.069,-0.256 -0.21823,-0.47876 -0.45546,-0.67392 0.29693,-0.0708 0.531,-0.20445 0.70354,-0.40414 0.65063,-0.74787 0.0502,-1.85148 -0.27612,-2.44715"
     id="path3487"
     style="fill:#ffffff"
     inkscape:connector-curvature="0" /><path
     d="m 96.914647,64.22034 c -4.821485,-4.25363 -0.873615,-3.74593 -0.330855,-3.79364 0.54027,-0.0455 4.342508,-1.23274 0.330855,3.79364"
     id="path3489"
     style="fill:#ed1c24"
     inkscape:connector-curvature="0" /><path
     d="m 96.243437,64.80629 c -5.53657,3.27237 -3.834805,-0.32611 -3.710645,-0.85824 0.12144,-0.53032 0.16735,-4.51076 3.710645,0.85824"
     id="path3491"
     style="fill:#ed1c24"
     inkscape:connector-curvature="0" /><path
     d="m 96.590127,65.6254 c 1.40189,6.27427 -1.493715,3.54284 -1.961615,3.26468 -0.46632,-0.28065 -4.236215,-1.55613 1.961615,-3.26468"
     id="path3493"
     style="fill:#ed1c24"
     inkscape:connector-curvature="0" /><path
     d="m 97.477982,65.54941 c 6.402948,0.60427 2.910758,2.515 2.498715,2.87186 -0.409095,0.35574 -2.788635,3.55009 -2.498715,-2.87186"
     id="path3495"
     style="fill:#ed1c24"
     inkscape:connector-curvature="0" /><path
     d="m 97.677447,64.67806 c 2.557063,-5.90135 3.292503,-1.98807 3.506213,-1.48534 0.21167,0.49843 2.51545,3.74751 -3.506213,1.48534"
     id="path3497"
     style="fill:#ed1c24"
     inkscape:connector-curvature="0" /><path
     d="m 98.921267,64.86215 c -0.0061,-0.0513 -0.02265,-0.0973 -0.0296,-0.147 0.514035,-0.37767 1.069455,-0.78225 1.069455,-0.78225 l -0.05337,-0.11963 c 0,0 -0.64792,0.11307 -1.269375,0.2214 -0.31186,-0.5111 -0.843535,-0.85778 -1.452325,-0.91704 -0.193355,-0.5812 -0.386485,-1.17325 -0.386485,-1.17325 l -0.130265,0.0111 c 0,0 -0.08752,0.61693 -0.17572,1.2212 -0.374045,0.10109 -0.70988,0.31277 -0.9652,0.61581 -0.13614,0.16328 -0.23452,0.34804 -0.312765,0.54094 -0.62598,0 -1.287465,0.002 -1.287465,0.002 l -0.0278,0.12891 c 0,0 0.6167,0.30055 1.18637,0.57939 0.002,0.052 -0.0045,0.10335 0,0.15582 0.04365,0.50182 0.27862,0.95231 0.65764,1.2809 -0.20014,0.62553 -0.425385,1.32456 -0.425385,1.32456 l 0.11036,0.0667 c 0,0 0.519465,-0.53801 0.981935,-1.01292 0.24153,0.0794 0.498665,0.11059 0.75851,0.0875 0.261875,-0.0199 0.51019,-0.0984 0.73543,-0.21529 0.5362,0.38603 1.14092,0.8234 1.14092,0.8234 l 0.09906,-0.0853 c 0,0 -0.34284,-0.64791 -0.648365,-1.22798 0.316835,-0.39124 0.46609,-0.87859 0.42448,-1.37928"
     id="path3499"
     style="fill:#ffffff"
     inkscape:connector-curvature="0" /><path
     d="m 96.904922,63.89875 c -0.30349,0.0235 -0.576905,0.1669 -0.77207,0.40142 -0.19517,0.23248 -0.289695,0.52625 -0.26188,0.82815 0.05291,0.62508 0.60653,1.08981 1.229795,1.03463 0.305755,-0.0278 0.576905,-0.17051 0.774785,-0.40209 0.193355,-0.23452 0.287435,-0.52647 0.26188,-0.83042 -0.05451,-0.6253 -0.60879,-1.08822 -1.23251,-1.03169"
     id="path3501"
     style="fill:#ed1c24"
     inkscape:connector-curvature="0" /><path
     d="m 11.121994,64.22034 c 4.823073,-4.25363 0.872931,-3.74593 0.331758,-3.79364 -0.542984,-0.0455 -4.3445394,-1.23274 -0.331758,3.79364"
     id="path3503"
     style="fill:#ed1c24"
     inkscape:connector-curvature="0" /><path
     d="m 12.947916,65.04375 c 0.57374,-0.27862 1.187507,-0.57962 1.187507,-0.57962 l -0.02874,-0.12891 c 0,0 -0.660123,-0.002 -1.28769,-0.002 -0.07598,-0.19268 -0.174811,-0.37768 -0.311631,-0.54072 -0.255098,-0.30304 -0.590699,-0.5145 -0.965657,-0.61604 -0.08593,-0.60472 -0.173456,-1.22097 -0.173456,-1.22097 l -0.132519,-0.0111 c 0,0 -0.192003,0.5916 -0.382419,1.17325 -0.612639,0.0593 -1.1449898,0.40594 -1.4563998,0.91704 -0.618966,-0.10833 -1.2707245,-0.2214 -1.2707245,-0.2214 l -0.050189,0.11963 c 0,0 0.5540685,0.40458 1.067878,0.78225 -0.00837,0.05 -0.0233,0.0959 -0.02874,0.14677 -0.04249,0.50341 0.110134,0.98804 0.426517,1.37928 -0.308013,0.57962 -0.6508555,1.22799 -0.6508555,1.22799 l 0.1015385,0.0853 c 0,0 0.603591,-0.43737 1.1393393,-0.8234 0.225241,0.1176 0.47333,0.19313 0.73453,0.21529 0.261877,0.0235 0.518331,-0.008 0.75986,-0.0875 0.461116,0.47514 0.979904,1.01292 0.979904,1.01292 l 0.113752,-0.0667 c 0,0 -0.225698,-0.69948 -0.426969,-1.32275 0.378345,-0.33085 0.613085,-0.78134 0.65764,-1.28316 0.0054,-0.052 -0.0026,-0.10313 -0.0026,-0.15514"
     id="path3505"
     style="fill:#ffffff"
     inkscape:connector-curvature="0" /><path
     d="m 11.90424,64.30039 c -0.195846,-0.23451 -0.4679,-0.37835 -0.772752,-0.40141 -0.623035,-0.0565 -1.1773248,0.40639 -1.2316043,1.03192 -0.02576,0.30394 0.068074,0.5959 0.2614313,0.83041 0.195389,0.23158 0.470163,0.37428 0.773429,0.40209 0.623035,0.0552 1.177099,-0.40977 1.231153,-1.03463 0.02556,-0.30213 -0.06762,-0.59589 -0.261657,-0.82838"
     id="path3507"
     style="fill:#ed1c24"
     inkscape:connector-curvature="0" /><path
     d="m 11.826898,37.46379 c -2.6954653,-0.47604 -5.2765009,1.33337 -5.7527714,4.02884 -0.4755875,2.69727 1.3317936,5.27808 4.0274844,5.75412 2.697954,0.47582 5.280119,-1.33269 5.754804,-4.02951 0.477173,-2.69592 -1.331337,-5.27673 -4.029517,-5.75345"
     id="path3509"
     style="fill:#ffffff"
     inkscape:connector-curvature="0" /><path
     d="m 12.951309,41.22057 c -0.04362,-0.0267 -0.119634,-0.076 -0.211673,-0.13682 -0.407298,-0.27002 -1.205827,-0.79808 -1.227761,-0.81391 -0.110591,-0.076 -0.218236,-0.14835 -0.324301,-0.21981 C 10.832523,39.81212 10.515011,39.60519 10.216492,39.43287 10.101385,39.36747 9.9901167,39.30645 9.8781762,39.25172 9.4034867,39.01223 8.9484777,38.86749 8.4113747,38.82023 7.9972972,39.1192 7.6379457,39.4894 7.3468936,39.91728 c 1.2349966,0.44596 2.4408236,1.16014 4.9515224,2.71966 0.143604,-0.33199 0.62417,-1.35418 0.652893,-1.41637"
     id="path3511"
     style="fill:#ed1c24"
     inkscape:connector-curvature="0" /><path
     d="m 11.793654,43.88279 c 0.05019,-0.12506 0.270925,-0.68364 0.361158,-0.89871 -2.5728913,-1.5982 -3.7676338,-2.30536 -5.0053454,-2.74296 -0.1920025,0.34465 -0.335832,0.72074 -0.429683,1.12102 0.7064891,0.96995 2.5998026,1.92294 5.0738704,2.52065"
     id="path3513"
     style="fill:#ed1c24"
     inkscape:connector-curvature="0" /><path
     d="m 11.515036,39.82139 c 0.963395,-0.56989 2.057953,-0.41476 2.902848,-0.12642 -0.315028,-0.40684 -0.696538,-0.76234 -1.140242,-1.03915 -0.798077,-0.15876 -1.900329,-0.18363 -2.777785,0.51381 0.319097,0.18748 0.648597,0.40616 1.015179,0.65176"
     id="path3515"
     style="fill:#ed1c24"
     inkscape:connector-curvature="0" /><path
     d="m 7.6709637,44.42442 c 0.1289065,0.0884 0.2609745,0.17255 0.4014125,0.25148 0.28359,0.15672 0.5906995,0.29218 0.9079905,0.40819 0.134557,0.0509 0.2713765,0.0982 0.4093255,0.1427 0.482603,0.15876 1.5900528,0.44642 1.6725988,0.46564 0.01699,-0.0425 0.431941,-1.06877 0.589339,-1.45866 -1.9181923,-0.47581 -4.0186573,-1.30849 -5.0166554,-2.39129 -0.059924,0.50001 -0.03664,0.9946 0.068977,1.46363 0.210544,0.45864 0.5486395,0.82409 0.9670121,1.11831"
     id="path3517"
     style="fill:#ed1c24"
     inkscape:connector-curvature="0" /><path
     d="m 11.126967,46.0934 -0.400283,-0.10313 c -0.371109,-0.0943 -0.7734293,-0.19991 -1.1825288,-0.32543 0.199459,0.42517 0.5133578,0.75647 0.8480568,1.01292 0.44845,0.0595 0.891025,0.0482 1.316413,-0.0254 -0.307341,-0.23903 -0.581658,-0.55903 -0.581658,-0.55903"
     id="path3519"
     style="fill:#ed1c24"
     inkscape:connector-curvature="0" /><path
     d="m 15.138845,41.08872 c -0.09114,-0.29783 -0.210769,-0.58639 -0.361157,-0.85529 -0.756243,-0.33718 -1.908017,-0.66668 -2.913928,-0.17458 l 1.387422,0.91612 c 0.289246,-0.0258 0.555419,-0.0337 0.798981,-0.0278 0.132976,0.002 0.256453,0.009 0.374506,0.0208 0.271602,0.024 0.503407,0.0676 0.714176,0.12076"
     id="path3521"
     style="fill:#ed1c24"
     inkscape:connector-curvature="0" /><path
     d="m 14.428512,41.34246 c -0.04049,2.28004 -1.115363,4.03857 -2.041669,5.13878 1.449835,-0.50386 2.593244,-1.75333 2.87842,-3.36735 0.0977,-0.55158 0.08051,-1.09411 -0.02171,-1.61041 -0.225241,-0.0701 -0.494585,-0.12868 -0.815038,-0.16102"
     id="path3523"
     style="fill:#ed1c24"
     inkscape:connector-curvature="0" /><path
     d="m 10.153397,38.9765 c 0.649274,-0.57239 1.416145,-0.76574 2.123311,-0.78157 -0.179562,-0.0574 -0.362517,-0.10697 -0.55316,-0.13931 -1.008395,-0.17798 -1.9948568,0.01 -2.8327368,0.46338 0.4461925,0.0873 0.849411,0.24379 1.2625858,0.4575"
     id="path3525"
     style="fill:#ed1c24"
     inkscape:connector-curvature="0" /><path
     d="m 13.304102,41.34473 c -0.329952,0.68726 -0.523986,1.10812 -0.685008,1.49099 -0.04953,0.11602 -0.09769,0.22864 -0.146314,0.34579 -0.07689,0.19199 -0.313898,0.7888 -0.313898,0.7888 l -0.141341,0.35031 -0.612639,1.51768 c 0.168935,0.22411 0.373598,0.40684 0.574873,0.54954 0.910249,-1.03825 2.043025,-2.78321 2.077629,-5.06731 -0.22909,-0.008 -0.481023,2.3e-4 -0.753302,0.0242"
     id="path3527"
     style="fill:#ed1c24"
     inkscape:connector-curvature="0" /><path
     d="m 9.0850717,45.514 c -0.305529,-0.10516 -0.610601,-0.22502 -0.8987125,-0.36546 0.1076455,0.33244 0.2627805,0.62757 0.41905,0.88085 0.326785,0.20964 0.6854595,0.37496 1.068325,0.49301 -0.248083,-0.27952 -0.462245,-0.61015 -0.5886625,-1.0084"
     id="path3529"
     style="fill:#ed1c24"
     inkscape:connector-curvature="0" /><path
     d="M 7.7367747,44.90295 C 7.5296227,44.7788 7.3369431,44.64062 7.1585091,44.48887 c 0.201953,0.36116 0.4563691,0.69224 0.7514956,0.98262 -0.070106,-0.18115 -0.1316215,-0.36862 -0.17323,-0.56854"
     id="path3531"
     style="fill:#ed1c24"
     inkscape:connector-curvature="0" /><path
     d="m 91.641762,43.21746 c 0.476495,2.69683 3.05663,4.50534 5.753,4.02952 2.697048,-0.47582 4.503978,-3.05685 4.030418,-5.75413 -0.47604,-2.69546 -3.057528,-4.50488 -5.754803,-4.02883 -2.69682,0.47649 -4.503975,3.0573 -4.028615,5.75344"
     id="path3533"
     style="fill:#ffffff"
     inkscape:connector-curvature="0" /><path
     d="m 94.546417,41.22057 c 0.04275,-0.0267 0.11918,-0.076 0.21326,-0.13682 0.407745,-0.27002 1.20492,-0.79808 1.225275,-0.81391 0.11307,-0.076 0.220945,-0.14835 0.32678,-0.21981 0.351215,-0.23791 0.67144,-0.44484 0.970405,-0.61716 0.114885,-0.0654 0.22751,-0.12642 0.33742,-0.18115 0.473555,-0.23949 0.93105,-0.38423 1.467245,-0.43149 0.413855,0.29897 0.77479,0.66917 1.061778,1.09705 -1.234098,0.44596 -2.436308,1.16014 -4.950173,2.71966 -0.144055,-0.33199 -0.622365,-1.35418 -0.65199,-1.41637"
     id="path3535"
     style="fill:#ed1c24"
     inkscape:connector-curvature="0" /><path
     d="m 95.704982,43.88279 c -0.05091,-0.12506 -0.273415,-0.68364 -0.358675,-0.89871 2.56792,-1.5982 3.76628,-2.30536 5.003083,-2.74296 0.19087,0.34465 0.33561,0.72074 0.42969,1.12102 -0.70762,0.96995 -2.600713,1.92294 -5.074098,2.52065"
     id="path3537"
     style="fill:#ed1c24"
     inkscape:connector-curvature="0" /><path
     d="m 95.983592,39.82139 c -0.964295,-0.56989 -2.05795,-0.41476 -2.9042,-0.12642 0.31548,-0.40684 0.69925,-0.76234 1.14273,-1.03915 0.797175,-0.15876 1.89874,-0.18363 2.77507,0.51381 -0.31661,0.18748 -0.648365,0.40616 -1.0136,0.65176"
     id="path3539"
     style="fill:#ed1c24"
     inkscape:connector-curvature="0" /><path
     d="m 99.825182,44.42442 c -0.125965,0.0884 -0.25758,0.17255 -0.40051,0.25148 -0.282235,0.15672 -0.588895,0.29218 -0.9055,0.40819 -0.135685,0.0509 -0.273415,0.0982 -0.41114,0.1427 -0.48011,0.15876 -1.58869,0.44642 -1.671915,0.46564 -0.0185,-0.0425 -0.43466,-1.06877 -0.58889,-1.45866 1.917515,-0.47581 4.016395,-1.30849 5.017333,-2.39129 0.0597,0.50001 0.0339,0.9946 -0.0699,1.46363 -0.21122,0.45864 -0.54864,0.82409 -0.969498,1.11831"
     id="path3541"
     style="fill:#ed1c24"
     inkscape:connector-curvature="0" /><path
     d="m 96.372347,46.0934 0.397565,-0.10313 c 0.37224,-0.0943 0.77705,-0.19991 1.18638,-0.32543 -0.202405,0.42517 -0.514945,0.75647 -0.848965,1.01292 -0.447775,0.0595 -0.891705,0.0482 -1.31483,-0.0254 0.30372,-0.23903 0.57985,-0.55903 0.57985,-0.55903"
     id="path3543"
     style="fill:#ed1c24"
     inkscape:connector-curvature="0" /><path
     d="m 92.359562,41.08872 c 0.09181,-0.29783 0.20941,-0.58639 0.36342,-0.85529 0.75398,-0.33718 1.903265,-0.66668 2.909855,-0.17458 l -1.386065,0.91612 c -0.289695,-0.0258 -0.555645,-0.0337 -0.799885,-0.0278 -0.13117,0.002 -0.255325,0.009 -0.37496,0.0208 -0.27115,0.024 -0.500465,0.0676 -0.712365,0.12076"
     id="path3545"
     style="fill:#ed1c24"
     inkscape:connector-curvature="0" /><path
     d="m 93.070122,41.34246 c 0.03935,2.28004 1.11695,4.03857 2.04416,5.13878 -1.453685,-0.50386 -2.59845,-1.75333 -2.880685,-3.36735 -0.09679,-0.55158 -0.08299,-1.09411 0.02265,-1.61041 0.223435,-0.0701 0.494585,-0.12868 0.81391,-0.16102"
     id="path3547"
     style="fill:#ed1c24"
     inkscape:connector-curvature="0" /><path
     d="m 97.346367,38.9765 c -0.649725,-0.57239 -1.418175,-0.76574 -2.124215,-0.78157 0.17888,-0.0574 0.36093,-0.10697 0.553385,-0.13931 1.007495,-0.17798 1.993725,0.01 2.831385,0.46338 -0.44439,0.0873 -0.848515,0.24379 -1.260555,0.4575"
     id="path3549"
     style="fill:#ed1c24"
     inkscape:connector-curvature="0" /><path
     d="m 94.194757,41.34473 c 0.330855,0.68726 0.521275,1.10812 0.68772,1.49099 0.0477,0.11602 0.09363,0.22864 0.14225,0.34579 0.07824,0.19199 0.31502,0.7888 0.31502,0.7888 l 0.14044,0.35031 0.61399,1.51768 c -0.17006,0.22411 -0.373145,0.40684 -0.57509,0.54954 -0.9098,-1.03825 -2.04461,-2.78321 -2.0765,-5.06731 0.22796,-0.008 0.48102,2.3e-4 0.75217,0.0242"
     id="path3551"
     style="fill:#ed1c24"
     inkscape:connector-curvature="0" /><path
     d="m 98.413787,45.514 c 0.30575,-0.10516 0.608565,-0.22502 0.89939,-0.36546 -0.11081,0.33244 -0.26278,0.62757 -0.42131,0.88085 -0.326335,0.20964 -0.685005,0.37496 -1.066295,0.49301 0.247635,-0.27952 0.461575,-0.61015 0.588215,-1.0084"
     id="path3553"
     style="fill:#ed1c24"
     inkscape:connector-curvature="0" /><path
     d="m 99.763217,44.90295 c 0.204435,-0.12415 0.397563,-0.26233 0.576903,-0.41408 -0.2024,0.36116 -0.455008,0.69224 -0.751263,0.98262 0.06875,-0.18115 0.13071,-0.36862 0.17436,-0.56854"
     id="path3555"
     style="fill:#ed1c24"
     inkscape:connector-curvature="0" /></svg>