<?xml version="1.0" encoding="UTF-8" standalone="no"?>
<svg
   xmlns:dc="http://purl.org/dc/elements/1.1/"
   xmlns:cc="http://creativecommons.org/ns#"
   xmlns:rdf="http://www.w3.org/1999/02/22-rdf-syntax-ns#"
   xmlns:svg="http://www.w3.org/2000/svg"
   xmlns="http://www.w3.org/2000/svg"
   xmlns:sodipodi="http://sodipodi.sourceforge.net/DTD/sodipodi-0.dtd"
   xmlns:inkscape="http://www.inkscape.org/namespaces/inkscape"
   version="1.1"
   id="VARG"
   x="0px"
   y="0px"
   width="215.05894"
   height="374.96042"
   viewBox="0 0 215.05894 374.96042"
   enable-background="new 0 0 171 276"
   xml:space="preserve"
   inkscape:version="0.91 r13725"
   sodipodi:docname="Milan-logo-resize.svg"><metadata
     id="metadata4522"><rdf:RDF><cc:Work
         rdf:about=""><dc:format>image/svg+xml</dc:format><dc:type
           rdf:resource="http://purl.org/dc/dcmitype/StillImage" /><dc:title></dc:title></cc:Work></rdf:RDF></metadata><defs
     id="defs4520" /><sodipodi:namedview
     pagecolor="#ffffff"
     bordercolor="#666666"
     borderopacity="1"
     objecttolerance="10"
     gridtolerance="10"
     guidetolerance="10"
     inkscape:pageopacity="0"
     inkscape:pageshadow="2"
     inkscape:window-width="1536"
     inkscape:window-height="801"
     id="namedview4518"
     showgrid="false"
     inkscape:zoom="0.85507246"
     inkscape:cx="84.371537"
     inkscape:cy="187.04525"
     inkscape:window-x="-8"
     inkscape:window-y="-8"
     inkscape:window-maximized="1"
     inkscape:current-layer="VARG"
     fit-margin-top="0"
     fit-margin-left="0"
     fit-margin-right="0"
     fit-margin-bottom="0" /><path
     d="m 107.52949,365.70187 c 53.57091,0 98.27091,-79.79481 98.27091,-178.22166 0,-98.426836 -44.7,-178.2216594 -98.27091,-178.2216594 -53.570926,0 -98.2709394,79.7934474 -98.2709394,178.2216594 0,98.42822 44.7000134,178.22166 98.2709394,178.22166 z"
     id="path4476"
     inkscape:connector-curvature="0"
     style="fill:#ffffff;stroke:#000000;stroke-width:18.51710129" /><path
     d="m 107.21194,365.1854 c 53.57092,0 98.27092,-79.79484 98.27092,-178.22168 0,-98.426831 -44.7,-178.2216544 -98.27092,-178.2216544 -53.57092,0 -98.2709331,79.7934464 -98.2709331,178.2216544 0,98.42822 44.7000131,178.22168 98.2709331,178.22168 z"
     id="path4478"
     inkscape:connector-curvature="0"
     style="fill:none;stroke:#fb090b;stroke-width:6.61325026" /><polygon
     points="59.267,68.833 59.267,204.5 72.233,209.5 72.233,68.833 "
     id="polygon4480"
     transform="matrix(1.2701752,0,0,1.3772926,-1.0705154,-3.1026504)" /><polygon
     points="46.267,76.833 46.267,199.5 59.233,204.5 59.233,68.833 "
     id="polygon4482"
     transform="matrix(1.2701752,0,0,1.3772926,-1.0705154,-3.1026504)"
     style="fill:#fb090b" /><polygon
     points="33.267,86.833 33.267,189.5 46.233,199.5 46.233,76.833 "
     id="polygon4484"
     transform="matrix(1.2701752,0,0,1.3772926,-1.0705154,-3.1026504)" /><polygon
     points="20.267,106.833 20.267,169.5 33.233,189.5 33.233,86.833 "
     id="polygon4486"
     transform="matrix(1.2701752,0,0,1.3772926,-1.0705154,-3.1026504)"
     style="fill:#fb090b" /><polygon
     points="14.267,118.833 14.267,159.5 20.233,171.5 20.233,103.833 "
     id="polygon4488"
     transform="matrix(1.2701752,0,0,1.3772926,-1.0705154,-3.1026504)" /><line
     x1="138.96632"
     y1="95.718109"
     x2="138.96632"
     y2="278.55371"
     id="line4490"
     style="fill:none;stroke:#000000;stroke-width:6.61325026;stroke-linecap:square" /><line
     x1="161.82947"
     y1="108.80238"
     x2="161.82947"
     y2="265.46939"
     id="line4492"
     style="fill:none;stroke:#000000;stroke-width:6.61325026;stroke-linecap:square" /><line
     x1="110.41914"
     y1="198.67073"
     x2="196.60051"
     y2="198.67073"
     id="line4494"
     style="fill:none;stroke:#000000;stroke-width:6.61325026;stroke-linecap:square" /><line
     x1="110.41914"
     y1="174.60251"
     x2="196.60051"
     y2="174.60251"
     id="line4496"
     style="fill:none;stroke:#000000;stroke-width:6.61325026;stroke-linecap:square" /><polygon
     points="85.233,64.833 72.267,66.833 72.267,209.5 85.233,209.5 85.233,144.449 112.767,144.449 112.767,204.5 125.733,199.5 125.733,144.449 158.583,144.449 158.583,131.483 125.733,131.483 125.733,79.833 112.767,71.833 112.767,131.483 85.233,131.483 "
     id="polygon4498"
     transform="matrix(1.2701752,0,0,1.3772926,-1.0705154,-3.1026504)"
     style="fill:#fb090b" /><line
     x1="110.38737"
     y1="88.831635"
     x2="110.38737"
     y2="285.78448"
     id="line4500"
     style="fill:none;stroke:#000000;stroke-width:6.61325026;stroke-linecap:square" /><ellipse
     cx="107.21194"
     cy="186.96373"
     id="circle4502"
     rx="91.611404"
     ry="99.337227"
     style="fill:none;stroke:#000000;stroke-width:6.61325026" /><path
     d="m 61.114731,291.59802 0.840856,0.32917 c 5.676413,2.22573 8.157066,-0.0812 9.015705,-2.22845 l 4.835558,1.89653 -9.814646,29.42586 -5.885993,-2.30835 6.759873,-20.26684 -7.10536,-2.78629 1.354007,-4.06163 z"
     id="path4504"
     inkscape:connector-curvature="0" /><path
     d="m 88.970946,307.75091 c -2.652124,-0.43522 -3.743206,-2.66505 -3.487901,-4.49411 0.316275,-2.26702 1.992906,-3.59612 4.7784,-3.13884 1.989095,0.32641 3.418042,2.07559 3.090336,4.42937 -0.309922,2.22157 -1.94972,3.60162 -4.380835,3.20358 z m 9.547909,10.97151 c 0.558881,-4.0093 -0.847207,-6.24602 -3.646674,-8.22107 2.701663,-0.89384 4.124253,-2.97906 4.495151,-5.63724 0.595711,-4.27098 -2.32315,-8.62737 -8.821369,-9.6934 -5.480805,-0.89935 -10.213479,1.57839 -10.948911,6.85205 -0.401375,2.87579 0.6516,5.05465 2.956968,6.68124 -5.07816,1.39658 -5.64974,5.49263 -5.86821,7.06138 -0.589361,4.22691 1.472134,9.86968 9.561881,11.19601 8.309487,1.36352 11.723718,-4.31644 12.271164,-8.23897 z m -6.401684,-0.78231 c -0.298491,2.13482 -1.919235,4.6773 -5.145481,4.1484 -2.829951,-0.46413 -4.280491,-2.70773 -3.866413,-5.67167 0.468694,-3.35508 2.835031,-4.43764 5.089592,-4.06852 3.447256,0.56606 4.225874,3.41293 3.922302,5.59179 z"
     id="path4506"
     inkscape:connector-curvature="0" /><path
     d="m 110.40898,306.80747 c -0.34296,-4.48033 2.49335,-5.5312 4.09757,-5.67582 3.20848,-0.28785 4.93591,1.76705 5.20772,5.3246 0.28198,3.68976 -2.00688,5.44307 -4.18903,5.63864 -2.36253,0.21348 -4.75681,-0.5881 -5.11626,-5.28742 z m -4.56883,14.16408 c 0.91454,4.91418 5.02609,7.64122 10.41671,7.1564 5.70309,-0.51373 11.19659,-4.9431 10.27317,-17.02059 -0.33659,-4.39217 -1.40481,-16.01515 -12.36515,-15.03039 -6.19338,0.55643 -10.51071,4.52717 -9.92514,12.16977 0.39882,5.22683 4.26524,9.43444 10.32524,8.88905 2.13897,-0.19283 4.54978,-0.93932 5.81361,-3.17605 l 0.0952,0.0798 c 0.45601,6.54765 -1.96368,8.93312 -4.54849,9.1645 -1.91541,0.17217 -3.36724,-0.62667 -3.88927,-2.74631 l -0.003,-0.0441 -6.19338,0.5578 z"
     id="path4508"
     inkscape:connector-curvature="0" /><path
     d="m 137.08011,302.093 c -1.33876,-4.25446 1.17492,-6.02291 2.69913,-6.58623 3.04715,-1.12798 5.18485,0.41045 6.24672,3.78756 1.10251,3.50383 -0.72273,5.80943 -2.79693,6.57658 -2.24186,0.83051 -4.7441,0.6845 -6.14892,-3.77791 z m -1.24858,14.94361 c 1.99037,4.52579 6.59094,6.08351 11.71101,4.18973 5.41603,-2.00397 9.7486,-7.75139 6.13876,-19.22287 -1.31209,-4.17044 -4.96003,-15.1626 -15.36912,-11.31033 -5.88218,2.17613 -9.17701,7.16743 -6.89324,14.42577 1.56105,4.96377 6.25689,8.02273 12.01205,5.89343 2.03102,-0.75062 4.20046,-2.11277 4.92447,-4.6167 l 0.1105,0.0523 c 1.91417,6.23089 0.10288,9.18242 -2.35109,10.09144 -1.82017,0.6735 -3.40787,0.28234 -4.38973,-1.63624 l -0.0127,-0.0414 -5.88091,2.17475 z"
     id="path4510"
     inkscape:connector-curvature="0" /><path
     d="m 108.74886,37.867672 c -8.82519,0.15839 -16.587232,7.683916 -16.447514,16.822251 0.138451,9.074982 8.060544,16.320918 16.949224,16.161152 4.38082,-0.0785 8.4835,-1.779461 11.36044,-4.710341 l 4.44943,4.427997 c -4.00359,4.016186 -9.61776,6.495311 -15.77685,6.605495 C 96.585647,77.40148 86.01779,67.387185 85.825993,54.806993 85.634196,42.226802 95.700336,31.778662 108.65232,31.547277 c 6.15908,-0.110186 11.71737,2.043902 15.77938,6.040805 l -4.31224,4.585008 c -2.96459,-2.828961 -6.92627,-4.385302 -11.3706,-4.305418 z"
     id="path4512"
     inkscape:connector-curvature="0" /><polygon
     points="122.125,42 118.5,39.875 114.625,50.375 111.125,33 107.25,31 99.25,58.875 103.25,59.875 108.25,43.875 112.25,62.875 114.125,62.875 119.25,50.875 125.375,69 131.125,73 "
     id="polygon4514"
     transform="matrix(1.2701752,0,0,1.3772926,-1.0705154,-3.1026504)" /><path
     d="m 88.953164,78.157613 -9.843859,-38.564194 -8.573683,5.337009 -24.292105,53.714414 9.84386,-6.886465 6.350877,-13.945087 17.46491,-7.230786 2.540352,9.296724 6.509648,-1.721615 z m -23.339471,-8.608078 9.526314,-20.831552 3.334211,15.322382 -12.860525,5.50917 z"
     id="path4516"
     inkscape:connector-curvature="0" /></svg>