<?xml version="1.0" encoding="UTF-8" standalone="no"?>
<svg
   xmlns:dc="http://purl.org/dc/elements/1.1/"
   xmlns:cc="http://creativecommons.org/ns#"
   xmlns:rdf="http://www.w3.org/1999/02/22-rdf-syntax-ns#"
   xmlns:svg="http://www.w3.org/2000/svg"
   xmlns="http://www.w3.org/2000/svg"
   xmlns:sodipodi="http://sodipodi.sourceforge.net/DTD/sodipodi-0.dtd"
   xmlns:inkscape="http://www.inkscape.org/namespaces/inkscape"
   version="1.1"
   id="VARG"
   x="0px"
   y="0px"
   width="107.51974"
   height="187.61667"
   viewBox="0 0 107.51974 187.61667"
   enable-background="new 0 0 171 276"
   xml:space="preserve"
   inkscape:version="0.91 r13725"
   sodipodi:docname="Milan-logo-resize.svg"><metadata
     id="metadata4522"><rdf:RDF><cc:Work
         rdf:about=""><dc:format>image/svg+xml</dc:format><dc:type
           rdf:resource="http://purl.org/dc/dcmitype/StillImage" /><dc:title></dc:title></cc:Work></rdf:RDF></metadata><defs
     id="defs4520" /><sodipodi:namedview
     pagecolor="#ffffff"
     bordercolor="#666666"
     borderopacity="1"
     objecttolerance="10"
     gridtolerance="10"
     guidetolerance="10"
     inkscape:pageopacity="0"
     inkscape:pageshadow="2"
     inkscape:window-width="1536"
     inkscape:window-height="801"
     id="namedview4518"
     showgrid="false"
     inkscape:zoom="0.85507246"
     inkscape:cx="84.391276"
     inkscape:cy="187.04525"
     inkscape:window-x="-8"
     inkscape:window-y="-8"
     inkscape:window-maximized="1"
     inkscape:current-layer="VARG"
     fit-margin-top="0"
     fit-margin-left="0"
     fit-margin-right="0"
     fit-margin-bottom="0" /><path
     d="m 53.759876,182.98596 c 26.782018,0 49.129154,-39.92731 49.129154,-89.177627 0,-49.2503 -22.347136,-89.1776205 -49.129154,-89.1776205 -26.782024,0 -49.1291635,39.9266305 -49.1291635,89.1776205 0,49.250997 22.3471395,89.177627 49.1291635,89.177627 z"
     id="path4476"
     inkscape:connector-curvature="0"
     style="fill:#ffffff;stroke:#000000;stroke-width:9.26142502" /><path
     d="m 53.601122,182.72753 c 26.782023,0 49.129158,-39.92733 49.129158,-89.177627 0,-49.25031 -22.347135,-89.1776305 -49.129158,-89.1776305 -26.782023,0 -49.129161,39.9266305 -49.129161,89.1776305 0,49.250997 22.347138,89.177627 49.129161,89.177627 z"
     id="path4478"
     inkscape:connector-curvature="0"
     style="fill:none;stroke:#fb090b;stroke-width:3.307652" /><polygon
     points="59.267,204.5 72.233,209.5 72.233,68.833 59.267,68.833 "
     id="polygon4480"
     transform="matrix(0.63500609,0,0,0.68916249,-0.53315777,-1.5545175)" /><polygon
     points="46.267,199.5 59.233,204.5 59.233,68.833 46.267,76.833 "
     id="polygon4482"
     transform="matrix(0.63500609,0,0,0.68916249,-0.53315777,-1.5545175)"
     style="fill:#fb090b" /><polygon
     points="33.267,189.5 46.233,199.5 46.233,76.833 33.267,86.833 "
     id="polygon4484"
     transform="matrix(0.63500609,0,0,0.68916249,-0.53315777,-1.5545175)" /><polygon
     points="20.267,169.5 33.233,189.5 33.233,86.833 20.267,106.833 "
     id="polygon4486"
     transform="matrix(0.63500609,0,0,0.68916249,-0.53315777,-1.5545175)"
     style="fill:#fb090b" /><polygon
     points="14.267,159.5 20.233,171.5 20.233,103.833 14.267,118.833 "
     id="polygon4488"
     transform="matrix(0.63500609,0,0,0.68916249,-0.53315777,-1.5545175)" /><line
     x1="69.476273"
     y1="47.892887"
     x2="69.476273"
     y2="139.37921"
     id="line4490"
     style="fill:none;stroke:#000000;stroke-width:3.307652;stroke-linecap:square" /><line
     x1="80.90638"
     y1="54.43993"
     x2="80.90638"
     y2="132.83215"
     id="line4492"
     style="fill:none;stroke:#000000;stroke-width:3.307652;stroke-linecap:square" /><line
     x1="55.204517"
     y1="99.407776"
     x2="98.289673"
     y2="99.407776"
     id="line4494"
     style="fill:none;stroke:#000000;stroke-width:3.307652;stroke-linecap:square" /><line
     x1="55.204517"
     y1="87.364655"
     x2="98.289673"
     y2="87.364655"
     id="line4496"
     style="fill:none;stroke:#000000;stroke-width:3.307652;stroke-linecap:square" /><polygon
     points="112.767,144.449 112.767,204.5 125.733,199.5 125.733,144.449 158.583,144.449 158.583,131.483 125.733,131.483 125.733,79.833 112.767,71.833 112.767,131.483 85.233,131.483 85.233,64.833 72.267,66.833 72.267,209.5 85.233,209.5 85.233,144.449 "
     id="polygon4498"
     transform="matrix(0.63500609,0,0,0.68916249,-0.53315777,-1.5545175)"
     style="fill:#fb090b" /><line
     x1="55.188629"
     y1="44.447071"
     x2="55.188629"
     y2="142.99731"
     id="line4500"
     style="fill:none;stroke:#000000;stroke-width:3.307652;stroke-linecap:square" /><ellipse
     cx="53.60112"
     cy="93.549896"
     id="circle4502"
     rx="45.799824"
     ry="49.705845"
     style="fill:none;stroke:#000000;stroke-width:3.307652" /><path
     d="m 30.555476,145.90626 0.420374,0.16471 c 2.837842,1.1137 4.078009,-0.0406 4.507274,-1.11506 l 2.417469,0.94897 -4.906694,14.72396 -2.942618,-1.15504 3.379502,-10.14101 -3.552224,-1.39419 0.676917,-2.03234 z"
     id="path4504"
     inkscape:connector-curvature="0" /><path
     d="m 44.481796,153.98876 c -1.325892,-0.21778 -1.871363,-1.33352 -1.743727,-2.24874 0.158117,-1.13436 0.996325,-1.79941 2.388894,-1.5706 0.99442,0.16333 1.708801,1.03858 1.544969,2.21635 -0.154941,1.11162 -0.974735,1.80216 -2.190136,1.60299 z m 4.773342,5.48987 c 0.279404,-2.00615 -0.423549,-3.12535 -1.823103,-4.11362 1.350658,-0.44725 2.061862,-1.49065 2.247287,-2.82073 0.297817,-2.13709 -1.161427,-4.31692 -4.410119,-4.85034 -2.740051,-0.45001 -5.106084,0.78979 -5.473753,3.4286 -0.200662,1.43897 0.325759,2.52922 1.478294,3.34312 -2.538754,0.69882 -2.824507,2.74838 -2.933728,3.53334 -0.294643,2.11504 0.735973,4.93854 4.780326,5.6022 4.154212,0.68227 5.861107,-2.15984 6.134796,-4.12257 z m -3.200432,-0.39145 c -0.149226,1.06821 -0.959494,2.3404 -2.57241,2.07575 -1.414794,-0.23224 -2.139971,-1.35488 -1.932958,-2.83796 0.234316,-1.6788 1.417333,-2.22048 2.544469,-2.03579 1.723406,0.28325 2.112666,1.70775 1.960899,2.798 z"
     id="path4506"
     inkscape:connector-curvature="0" /><path
     d="m 55.199437,153.51668 c -0.171458,-2.24184 1.246515,-2.76767 2.048522,-2.84003 1.604034,-0.14404 2.467638,0.88418 2.603525,2.66429 0.140973,1.84627 -1.00331,2.72358 -2.094245,2.82144 -1.181114,0.10682 -2.3781,-0.29427 -2.557802,-2.6457 z m -2.284122,7.08735 c 0.457211,2.45893 2.512723,3.82348 5.207686,3.58089 2.85118,-0.25706 5.597577,-2.47341 5.135927,-8.51668 -0.168274,-2.19773 -0.702315,-8.01358 -6.181782,-7.52083 -3.096293,0.27843 -5.254681,2.26529 -4.961933,6.08945 0.199384,2.61537 2.132346,4.72075 5.161957,4.44786 1.069348,-0.0965 2.274599,-0.47002 2.906433,-1.58922 l 0.04759,0.0399 c 0.227976,3.27628 -0.981714,4.4699 -2.273953,4.58568 -0.957582,0.0861 -1.683404,-0.31357 -1.944385,-1.37418 l -0.0015,-0.0221 -3.096293,0.27912 z"
     id="path4508"
     inkscape:connector-curvature="0" /><path
     d="m 68.533291,151.15769 c -0.669295,-2.12883 0.587384,-3.01372 1.349391,-3.29559 1.52338,-0.56441 2.592093,0.20538 3.12296,1.8952 0.551183,1.75323 -0.361319,2.90689 -1.398286,3.29075 -1.120786,0.41557 -2.371745,0.34251 -3.074065,-1.89036 z m -0.62421,7.4774 c 0.995057,2.26459 3.295047,3.04403 5.854754,2.09643 2.707667,-1.00273 4.873674,-3.8786 3.068985,-9.61863 -0.655961,-2.08679 -2.479696,-7.58699 -7.683573,-5.65941 -2.940713,1.08888 -4.587916,3.5864 -3.446178,7.21829 0.780425,2.48375 3.128043,4.01437 6.005254,2.94892 1.01538,-0.37559 2.099961,-1.05717 2.461919,-2.31007 l 0.05524,0.0262 c 0.956963,3.11778 0.05143,4.59465 -1.175394,5.0495 -0.909969,0.337 -1.703717,0.14127 -2.194583,-0.81874 l -0.0063,-0.0207 -2.940077,1.08819 z"
     id="path4510"
     inkscape:connector-curvature="0" /><path
     d="m 54.369484,18.945993 c -4.412029,0.0793 -8.292552,3.84484 -8.222702,8.41743 0.06922,4.54089 4.029755,8.16658 8.473524,8.08664 2.190129,-0.0393 4.241206,-0.8904 5.679492,-2.35694 l 2.224429,2.21566 c -2.001539,2.0096 -4.808263,3.25009 -7.887412,3.30522 -6.348157,0.11371 -11.631408,-4.89719 -11.727294,-11.192 -0.09589,-6.29481 4.936538,-11.5228 11.411699,-11.63857 3.079145,-0.0551 5.857933,1.02271 7.888677,3.02266 l -2.155843,2.29422 c -1.482105,-1.41554 -3.46269,-2.19429 -5.68457,-2.15432 z"
     id="path4512"
     inkscape:connector-curvature="0" /><polygon
     points="99.25,58.875 103.25,59.875 108.25,43.875 112.25,62.875 114.125,62.875 119.25,50.875 125.375,69 131.125,73 122.125,42 118.5,39.875 114.625,50.375 111.125,33 107.25,31 "
     id="polygon4514"
     transform="matrix(0.63500609,0,0,0.68916249,-0.53315777,-1.5545175)" /><path
     d="m 44.472906,39.106063 -4.921298,-19.29655 -4.286291,2.67051 -12.144494,26.87734 4.921298,-3.44582 3.175031,-6.97777 8.731335,-3.6181 1.270013,4.65185 3.254406,-0.86146 z m -11.668238,-4.30726 4.762546,-10.42359 1.666892,7.66694 -6.429438,2.75665 z"
     id="path4516"
     inkscape:connector-curvature="0" /></svg>